<?xml version="1.0" encoding="utf-8"?>
<!-- Generator: Adobe Illustrator 24.1.1, SVG Export Plug-In . SVG Version: 6.00 Build 0)  -->
<svg version="1.1" xmlns="http://www.w3.org/2000/svg" xmlns:xlink="http://www.w3.org/1999/xlink" x="0px" y="0px"
	 viewBox="0 0 50 36.8" style="enable-background:new 0 0 50 36.8;" xml:space="preserve">
<style type="text/css">
	.st0{display:none;}
	.st1{display:inline;fill:#FFFFFF;}
	.st2{fill:#FFFFFF;}
</style>
<g id="sun" class="st0">
	<path class="st1" d="M24.8,26.3c-4.1,0-7.5-3.4-7.5-7.5c0-4.1,3.4-7.5,7.5-7.5c4.1,0,7.5,3.4,7.5,7.5
		C32.3,22.9,28.9,26.3,24.8,26.3 M24.8,10.2c-4.7,0-8.6,3.8-8.6,8.6c0,4.7,3.8,8.6,8.6,8.6c4.7,0,8.6-3.8,8.6-8.6
		C33.3,14.1,29.5,10.2,24.8,10.2"/>
	<path class="st1" d="M24.8,7.7c0.3,0,0.5-0.2,0.5-0.5V3c0-0.3-0.2-0.5-0.5-0.5c-0.3,0-0.5,0.2-0.5,0.5v4.2
		C24.2,7.5,24.5,7.7,24.8,7.7"/>
	<path class="st1" d="M24.8,29.8c-0.3,0-0.5,0.2-0.5,0.5v4.2c0,0.3,0.2,0.5,0.5,0.5c0.3,0,0.5-0.2,0.5-0.5v-4.2
		C25.3,30,25,29.8,24.8,29.8"/>
	<path class="st1" d="M30.5,9.4c0.1,0.1,0.2,0.1,0.3,0.1c0.2,0,0.4-0.1,0.5-0.3l2.2-3.6c0.2-0.3,0.1-0.6-0.2-0.7
		c-0.3-0.2-0.6-0.1-0.7,0.2l-2.2,3.6C30.2,8.9,30.3,9.2,30.5,9.4"/>
	<path class="st1" d="M19,28.1c-0.2-0.2-0.6-0.1-0.7,0.2L16,31.9c-0.2,0.3-0.1,0.6,0.2,0.7c0.1,0.1,0.2,0.1,0.3,0.1
		c0.2,0,0.4-0.1,0.4-0.3l2.2-3.6C19.3,28.6,19.2,28.3,19,28.1"/>
	<path class="st1" d="M34.9,13.8c0.1,0,0.2,0,0.3-0.1l3.7-2c0.3-0.1,0.4-0.5,0.2-0.7c-0.1-0.3-0.5-0.4-0.7-0.2l-3.7,2
		c-0.3,0.1-0.4,0.5-0.2,0.7C34.6,13.7,34.7,13.8,34.9,13.8"/>
	<path class="st1" d="M14.3,23.8l-3.7,2c-0.3,0.1-0.4,0.5-0.2,0.7c0.1,0.2,0.3,0.3,0.5,0.3c0.1,0,0.2,0,0.2-0.1l3.7-2
		c0.3-0.1,0.4-0.5,0.2-0.7C14.9,23.7,14.6,23.6,14.3,23.8"/>
	<path class="st1" d="M40.5,18.2l-4.2,0c-0.3,0-0.5,0.2-0.5,0.5c0,0.3,0.2,0.5,0.5,0.5h0l4.2,0c0.3,0,0.5-0.2,0.5-0.5
		C41.1,18.4,40.8,18.2,40.5,18.2"/>
	<path class="st1" d="M13.7,18.8c0-0.3-0.2-0.5-0.5-0.5l-4.2,0c-0.3,0-0.5,0.2-0.5,0.5c0,0.3,0.2,0.5,0.5,0.5h0l4.2,0
		C13.5,19.3,13.7,19.1,13.7,18.8"/>
	<path class="st1" d="M38.9,25.9l-3.7-2c-0.3-0.1-0.6,0-0.7,0.2c-0.1,0.3,0,0.6,0.2,0.7l3.7,2c0.1,0,0.2,0.1,0.3,0.1
		c0.2,0,0.4-0.1,0.5-0.3C39.2,26.3,39.1,26,38.9,25.9"/>
	<path class="st1" d="M14.9,12.7l-3.7-2c-0.3-0.1-0.6,0-0.7,0.2c-0.1,0.3,0,0.6,0.2,0.7l3.7,2c0.1,0,0.2,0.1,0.3,0.1
		c0.2,0,0.4-0.1,0.5-0.3C15.2,13.2,15.1,12.9,14.9,12.7"/>
	<path class="st1" d="M31.3,28.3c-0.2-0.2-0.5-0.3-0.7-0.2c-0.2,0.2-0.3,0.5-0.2,0.7l2.2,3.6c0.1,0.2,0.3,0.3,0.5,0.3
		c0.1,0,0.2,0,0.3-0.1c0.3-0.2,0.3-0.5,0.2-0.7L31.3,28.3z M31.3,28.3"/>
	<path class="st1" d="M18.2,9.2c0.1,0.2,0.3,0.3,0.4,0.3c0.1,0,0.2,0,0.3-0.1c0.2-0.2,0.3-0.5,0.2-0.7l-2.2-3.6
		c-0.2-0.2-0.5-0.3-0.7-0.2c-0.2,0.2-0.3,0.5-0.2,0.7L18.2,9.2z M18.2,9.2"/>
	<path class="st1" d="M24.8,26.3c-4.1,0-7.5-3.4-7.5-7.5c0-4.1,3.4-7.5,7.5-7.5c4.1,0,7.5,3.4,7.5,7.5
		C32.3,22.9,28.9,26.3,24.8,26.3 M24.8,10.2c-4.7,0-8.6,3.8-8.6,8.6c0,4.7,3.8,8.6,8.6,8.6c4.7,0,8.6-3.8,8.6-8.6
		C33.3,14.1,29.5,10.2,24.8,10.2"/>
	<path class="st1" d="M24.8,7.7c0.3,0,0.5-0.2,0.5-0.5V3c0-0.3-0.2-0.5-0.5-0.5c-0.3,0-0.5,0.2-0.5,0.5v4.2
		C24.2,7.5,24.5,7.7,24.8,7.7"/>
	<path class="st1" d="M24.8,29.8c-0.3,0-0.5,0.2-0.5,0.5v4.2c0,0.3,0.2,0.5,0.5,0.5c0.3,0,0.5-0.2,0.5-0.5v-4.2
		C25.3,30,25,29.8,24.8,29.8"/>
	<path class="st1" d="M30.5,9.4c0.1,0.1,0.2,0.1,0.3,0.1c0.2,0,0.4-0.1,0.5-0.3l2.2-3.6c0.2-0.3,0.1-0.6-0.2-0.7
		c-0.3-0.2-0.6-0.1-0.7,0.2l-2.2,3.6C30.2,8.9,30.3,9.2,30.5,9.4"/>
	<path class="st1" d="M19,28.1c-0.2-0.2-0.6-0.1-0.7,0.2L16,31.9c-0.2,0.3-0.1,0.6,0.2,0.7c0.1,0.1,0.2,0.1,0.3,0.1
		c0.2,0,0.4-0.1,0.4-0.3l2.2-3.6C19.3,28.6,19.2,28.3,19,28.1"/>
	<path class="st1" d="M34.9,13.8c0.1,0,0.2,0,0.3-0.1l3.7-2c0.3-0.1,0.4-0.5,0.2-0.7c-0.1-0.3-0.5-0.4-0.7-0.2l-3.7,2
		c-0.3,0.1-0.4,0.5-0.2,0.7C34.6,13.7,34.7,13.8,34.9,13.8"/>
	<path class="st1" d="M14.3,23.8l-3.7,2c-0.3,0.1-0.4,0.5-0.2,0.7c0.1,0.2,0.3,0.3,0.5,0.3c0.1,0,0.2,0,0.2-0.1l3.7-2
		c0.3-0.1,0.4-0.5,0.2-0.7C14.9,23.7,14.6,23.6,14.3,23.8"/>
	<path class="st1" d="M40.5,18.2l-4.2,0c-0.3,0-0.5,0.2-0.5,0.5c0,0.3,0.2,0.5,0.5,0.5h0l4.2,0c0.3,0,0.5-0.2,0.5-0.5
		C41.1,18.4,40.8,18.2,40.5,18.2"/>
	<path class="st1" d="M13.7,18.8c0-0.3-0.2-0.5-0.5-0.5l-4.2,0c-0.3,0-0.5,0.2-0.5,0.5c0,0.3,0.2,0.5,0.5,0.5h0l4.2,0
		C13.5,19.3,13.7,19.1,13.7,18.8"/>
	<path class="st1" d="M38.9,25.9l-3.7-2c-0.3-0.1-0.6,0-0.7,0.2c-0.1,0.3,0,0.6,0.2,0.7l3.7,2c0.1,0,0.2,0.1,0.3,0.1
		c0.2,0,0.4-0.1,0.5-0.3C39.2,26.3,39.1,26,38.9,25.9"/>
	<path class="st1" d="M14.9,12.7l-3.7-2c-0.3-0.1-0.6,0-0.7,0.2c-0.1,0.3,0,0.6,0.2,0.7l3.7,2c0.1,0,0.2,0.1,0.3,0.1
		c0.2,0,0.4-0.1,0.5-0.3C15.2,13.2,15.1,12.9,14.9,12.7"/>
	<path class="st1" d="M31.3,28.3c-0.2-0.2-0.5-0.3-0.7-0.2c-0.2,0.2-0.3,0.5-0.2,0.7l2.2,3.6c0.1,0.2,0.3,0.3,0.5,0.3
		c0.1,0,0.2,0,0.3-0.1c0.3-0.2,0.3-0.5,0.2-0.7L31.3,28.3z M31.3,28.3"/>
	<path class="st1" d="M18.2,9.2c0.1,0.2,0.3,0.3,0.4,0.3c0.1,0,0.2,0,0.3-0.1c0.2-0.2,0.3-0.5,0.2-0.7l-2.2-3.6
		c-0.2-0.2-0.5-0.3-0.7-0.2c-0.2,0.2-0.3,0.5-0.2,0.7L18.2,9.2z M18.2,9.2"/>
</g>
<g id="sun_cloud" class="st0">
	<path class="st1" d="M21.8,34.5h19.6c0.1,0,0.3,0,0.4,0v0c3.2,0,5.8-2.6,5.8-5.8c0-3.2-2.6-5.8-5.8-5.8c-0.5,0-0.9,0.1-1.4,0.2
		c-0.2,0-0.3,0-0.5-0.1c-0.1-0.1-0.2-0.2-0.2-0.4c-0.6-4.1-4.1-7.1-8.3-7.1c-4.7,0-8.4,3.8-8.4,8.4c0,0.2,0,0.5,0,0.7
		c0,0.2,0,0.3-0.2,0.5c-0.1,0.1-0.3,0.2-0.5,0.2c-0.2,0-0.3,0-0.5,0c-2.6,0-4.7,2.1-4.7,4.7C17.2,32.4,19.3,34.5,21.8,34.5 M21.8,24
		c0,0,0-0.1,0-0.1c0-5.3,4.3-9.6,9.6-9.6c4.5,0,8.4,3.1,9.3,7.5c0.4-0.1,0.7-0.1,1.1-0.1c3.8,0,6.9,3.1,6.9,6.9s-3.1,6.9-6.9,6.9h0
		c-0.1,0-2.3,0-5.2,0H21.8c-3.2,0-5.8-2.6-5.8-5.8C16,26.6,18.6,24,21.8,24"/>
	<path class="st1" d="M10.5,18.3c0-5.1,4.1-9.2,9.2-9.2c3.1,0,5.8,1.3,7.5,3.9c0.2,0.3,0.1,0.6-0.2,0.8c-0.3,0.2-0.6,0.1-0.8-0.2
		c-1.5-2.3-3.8-3.4-6.5-3.4c-4.4,0-8.1,3.6-8.1,8.1c0,2.8,1.4,5.3,3.7,6.8c0.3,0.2,0.3,0.5,0.2,0.8c-0.1,0.2-0.3,0.3-0.5,0.3
		c-0.1,0-0.2,0-0.3-0.1C12.1,24.3,10.5,21.4,10.5,18.3"/>
	<path class="st1" d="M19.6,6.2C19.3,6.2,19,6,19,5.7V1.1c0-0.3,0.3-0.6,0.6-0.6c0.3,0,0.6,0.3,0.6,0.6v4.6
		C20.1,6,19.9,6.2,19.6,6.2"/>
	<path class="st1" d="M13.3,8c-0.1,0.1-0.2,0.1-0.3,0.1c-0.2,0-0.4-0.1-0.5-0.3L10.2,4c-0.2-0.3-0.1-0.6,0.2-0.8
		C10.6,3,11,3.1,11.1,3.4l2.4,3.9C13.7,7.5,13.6,7.8,13.3,8"/>
	<path class="st1" d="M8.6,12.8c-0.1,0-0.2,0-0.3-0.1l-4-2.2C4.1,10.4,4,10.1,4.1,9.8c0.1-0.3,0.5-0.4,0.8-0.2l4,2.1
		c0.3,0.2,0.4,0.5,0.2,0.8C9,12.7,8.8,12.8,8.6,12.8"/>
	<path class="st1" d="M2.6,17.5L2.6,17.5l4.6,0c0.3,0,0.6,0.3,0.6,0.6c0,0.3-0.3,0.6-0.6,0.6l-4.6,0C2.3,18.6,2,18.4,2,18
		C2,17.7,2.3,17.5,2.6,17.5"/>
	<path class="st1" d="M4.4,25.7l4-2.2c0.3-0.2,0.6-0.1,0.8,0.2c0.2,0.3,0.1,0.6-0.2,0.8l-4,2.2c-0.1,0.1-0.2,0.1-0.3,0.1
		c-0.2,0-0.4-0.1-0.5-0.3C4,26.2,4.1,25.9,4.4,25.7"/>
	<path class="st1" d="M34.7,10.4l-4,2.2c-0.1,0-0.2,0.1-0.3,0.1c-0.2,0-0.4-0.1-0.5-0.3c-0.2-0.3-0.1-0.6,0.2-0.8l4-2.2
		c0.3-0.2,0.6-0.1,0.8,0.2C35.1,9.9,35,10.3,34.7,10.4"/>
	<path class="st1" d="M12.5,28.3c0.2-0.3,0.5-0.3,0.8-0.2c0.3,0.2,0.3,0.5,0.2,0.8l-2.4,3.9C11,32.9,10.8,33,10.6,33
		c-0.1,0-0.2,0-0.3-0.1c-0.3-0.2-0.4-0.5-0.2-0.8L12.5,28.3z M12.5,28.3"/>
	<path class="st1" d="M26.6,7.8c-0.1,0.2-0.3,0.3-0.5,0.3c-0.1,0-0.2,0-0.3-0.1c-0.3-0.2-0.3-0.5-0.2-0.8l2.4-3.9
		c0.2-0.3,0.5-0.3,0.8-0.2c0.3,0.2,0.3,0.5,0.2,0.8L26.6,7.8z M26.6,7.8"/>
</g>
<g id="sun_light_rain" class="st0">
	<path class="st1" d="M22.4,28.7h16.4c0.1,0,0.2,0,0.3,0v0c2.7,0,4.9-2.2,4.9-4.9c0-2.7-2.2-4.9-4.9-4.9c-0.4,0-0.8,0.1-1.2,0.1
		c-0.1,0-0.3,0-0.4-0.1c-0.1-0.1-0.2-0.2-0.2-0.3c-0.5-3.5-3.5-6-7-6c-3.9,0-7.1,3.2-7.1,7.1c0,0.2,0,0.4,0,0.6c0,0.1,0,0.3-0.1,0.4
		c-0.1,0.1-0.2,0.1-0.4,0.1c-0.1,0-0.3,0-0.4,0c-2.2,0-3.9,1.8-3.9,3.9C18.5,26.9,20.3,28.7,22.4,28.7 M22.4,19.9v-0.1
		c0-4.4,3.6-8,8-8c3.8,0,7,2.6,7.8,6.3c0.3,0,0.6-0.1,0.9-0.1c3.2,0,5.8,2.6,5.8,5.8c0,3.2-2.6,5.8-5.8,5.8H22.4
		c-2.7,0-4.9-2.2-4.9-4.9C17.6,22.1,19.7,19.9,22.4,19.9"/>
	<path class="st1" d="M12.9,15.1c0-4.3,3.5-7.7,7.7-7.7c2.6,0,4.9,1.1,6.3,3.3c0.1,0.2,0.1,0.5-0.1,0.7c-0.2,0.1-0.5,0.1-0.7-0.1
		c-1.3-1.9-3.2-2.9-5.5-2.9c-3.7,0-6.8,3-6.8,6.8c0,2.3,1.2,4.4,3.1,5.7c0.2,0.1,0.3,0.4,0.1,0.7c-0.1,0.1-0.2,0.2-0.4,0.2
		c-0.1,0-0.2,0-0.3-0.1C14.3,20.2,12.9,17.7,12.9,15.1"/>
	<path class="st1" d="M20.5,5c-0.3,0-0.5-0.2-0.5-0.5V0.7c0-0.3,0.2-0.5,0.5-0.5c0.3,0,0.5,0.2,0.5,0.5v3.8C21,4.8,20.8,5,20.5,5"/>
	<path class="st1" d="M15.3,6.5c-0.1,0-0.2,0.1-0.2,0.1c-0.2,0-0.3-0.1-0.4-0.2l-2-3.2c-0.1-0.2-0.1-0.5,0.2-0.7
		c0.2-0.1,0.5-0.1,0.7,0.2l2,3.2C15.6,6.1,15.5,6.4,15.3,6.5"/>
	<path class="st1" d="M11.4,10.5c-0.1,0-0.2,0-0.2-0.1L7.8,8.7C7.6,8.6,7.5,8.3,7.6,8C7.7,7.8,8,7.7,8.2,7.8l3.4,1.8
		c0.2,0.1,0.3,0.4,0.2,0.6C11.7,10.4,11.5,10.5,11.4,10.5"/>
	<path class="st1" d="M6.3,14.5L6.3,14.5l3.8,0c0.3,0,0.5,0.2,0.5,0.5c0,0.3-0.2,0.5-0.5,0.5h0l-3.8,0c-0.3,0-0.5-0.2-0.5-0.5
		C5.9,14.7,6.1,14.5,6.3,14.5"/>
	<path class="st1" d="M7.8,21.4l3.4-1.8c0.2-0.1,0.5,0,0.6,0.2c0.1,0.2,0,0.5-0.2,0.7l-3.4,1.8c-0.1,0-0.1,0.1-0.2,0.1
		c-0.2,0-0.3-0.1-0.4-0.2C7.5,21.8,7.6,21.5,7.8,21.4"/>
	<path class="st1" d="M33.3,8.5l-3.3,1.8c-0.1,0-0.2,0.1-0.2,0.1c-0.2,0-0.3-0.1-0.4-0.3c-0.1-0.2,0-0.5,0.2-0.6l3.3-1.8
		c0.2-0.1,0.5,0,0.6,0.2C33.6,8.1,33.5,8.4,33.3,8.5"/>
	<path class="st1" d="M14.6,23.5c0.1-0.2,0.4-0.3,0.7-0.2c0.2,0.1,0.3,0.4,0.1,0.7l-2,3.2c-0.1,0.1-0.2,0.2-0.4,0.2
		c-0.1,0-0.2,0-0.3-0.1c-0.2-0.1-0.3-0.4-0.2-0.7L14.6,23.5z M14.6,23.5"/>
	<path class="st1" d="M26.5,6.4c-0.1,0.1-0.2,0.2-0.4,0.2c-0.1,0-0.2,0-0.3-0.1c-0.2-0.1-0.3-0.4-0.1-0.7l2-3.2
		c0.1-0.2,0.4-0.3,0.7-0.2c0.2,0.1,0.3,0.4,0.2,0.7L26.5,6.4z M26.5,6.4"/>
	<path class="st1" d="M34.8,31.8c-0.2-0.1-0.5,0-0.7,0.2l-1.8,3.5c-0.1,0.2,0,0.5,0.2,0.7c0.1,0,0.1,0.1,0.2,0.1
		c0.2,0,0.4-0.1,0.4-0.3l1.8-3.5C35.1,32.2,35,31.9,34.8,31.8"/>
	<path class="st1" d="M25.9,31.8c-0.2-0.1-0.5,0-0.7,0.2l-1.8,3.5c-0.1,0.2,0,0.5,0.2,0.7c0.1,0,0.1,0.1,0.2,0.1
		c0.2,0,0.4-0.1,0.4-0.3l1.8-3.5C26.3,32.2,26.2,31.9,25.9,31.8"/>
</g>
<g id="sun_heavy_rain" class="st0">
	<path class="st1" d="M24.9,31.5c-0.2-0.1-0.5,0-0.6,0.2l-1.7,3.4c-0.1,0.2,0,0.5,0.2,0.6c0.1,0,0.1,0.1,0.2,0.1
		c0.2,0,0.3-0.1,0.4-0.3l1.7-3.4C25.2,31.9,25.1,31.6,24.9,31.5"/>
	<path class="st1" d="M31,31.5c-0.2-0.1-0.5,0-0.6,0.2l-1.7,3.4c-0.1,0.2,0,0.5,0.2,0.6c0.1,0,0.1,0.1,0.2,0.1
		c0.2,0,0.3-0.1,0.4-0.3l1.7-3.4C31.3,31.9,31.2,31.6,31,31.5"/>
	<path class="st1" d="M37.1,31.5c-0.2-0.1-0.5,0-0.6,0.2l-1.7,3.4c-0.1,0.2,0,0.5,0.2,0.6c0.1,0,0.1,0.1,0.2,0.1
		c0.2,0,0.3-0.1,0.4-0.3l1.7-3.4C37.4,31.9,37.3,31.6,37.1,31.5"/>
	<path class="st1" d="M22.3,29.2h16.5c0.1,0,0.2,0,0.3,0v0c2.7,0,4.9-2.2,4.9-4.9c0-2.7-2.2-4.9-4.9-4.9c-0.4,0-0.8,0.1-1.2,0.1
		c-0.1,0-0.3,0-0.4-0.1c-0.1-0.1-0.2-0.2-0.2-0.3c-0.5-3.5-3.5-6-7-6c-3.9,0-7.1,3.2-7.1,7.1c0,0.2,0,0.4,0,0.6c0,0.1,0,0.3-0.1,0.4
		c-0.1,0.1-0.2,0.1-0.4,0.1c-0.1,0-0.3,0-0.4,0c-2.2,0-3.9,1.8-3.9,3.9C18.4,27.5,20.1,29.2,22.3,29.2 M22.2,20.4v-0.1
		c0-4.4,3.6-8.1,8.1-8.1c3.8,0,7,2.6,7.9,6.3c0.3,0,0.6-0.1,0.9-0.1c3.2,0,5.8,2.6,5.8,5.8c0,3.2-2.6,5.8-5.8,5.8H22.3
		c-2.7,0-4.9-2.2-4.9-4.9C17.4,22.6,19.6,20.5,22.2,20.4"/>
	<path class="st1" d="M12.7,15.6c0-4.3,3.5-7.7,7.7-7.7c2.6,0,4.9,1.1,6.3,3.3c0.1,0.2,0.1,0.5-0.1,0.7c-0.2,0.1-0.5,0.1-0.7-0.1
		c-1.3-1.9-3.2-2.9-5.5-2.9c-3.7,0-6.8,3-6.8,6.8c0,2.3,1.2,4.4,3.1,5.7c0.2,0.1,0.3,0.4,0.1,0.7c-0.1,0.1-0.2,0.2-0.4,0.2
		c-0.1,0-0.2,0-0.3-0.1C14.1,20.7,12.7,18.3,12.7,15.6"/>
	<path class="st1" d="M20.4,5.5c-0.3,0-0.5-0.2-0.5-0.5V1.2c0-0.3,0.2-0.5,0.5-0.5c0.3,0,0.5,0.2,0.5,0.5V5
		C20.8,5.3,20.6,5.5,20.4,5.5"/>
	<path class="st1" d="M15.1,7C15.1,7,15,7.1,14.9,7.1c-0.2,0-0.3-0.1-0.4-0.2l-2-3.3c-0.1-0.2-0.1-0.5,0.2-0.7
		c0.2-0.1,0.5-0.1,0.7,0.2l2,3.3C15.4,6.6,15.4,6.9,15.1,7"/>
	<path class="st1" d="M11.2,11c-0.1,0-0.2,0-0.2-0.1L7.6,9.2C7.3,9,7.3,8.7,7.4,8.5C7.5,8.3,7.8,8.2,8,8.3l3.4,1.8
		c0.2,0.1,0.3,0.4,0.2,0.6C11.5,10.9,11.3,11,11.2,11"/>
	<path class="st1" d="M6.1,15L6.1,15l3.8,0c0.3,0,0.5,0.2,0.5,0.5c0,0.3-0.2,0.5-0.5,0.5l-3.8,0c-0.3,0-0.5-0.2-0.5-0.5
		C5.6,15.2,5.8,15,6.1,15"/>
	<path class="st1" d="M7.6,21.9L11,20c0.2-0.1,0.5,0,0.7,0.2c0.1,0.2,0,0.5-0.2,0.6l-3.4,1.8c-0.1,0-0.2,0.1-0.2,0.1
		c-0.2,0-0.3-0.1-0.4-0.2C7.3,22.3,7.4,22,7.6,21.9"/>
	<path class="st1" d="M33.1,9l-3.4,1.8c-0.1,0-0.2,0.1-0.2,0.1c-0.2,0-0.3-0.1-0.4-0.2c-0.1-0.2,0-0.5,0.2-0.7l3.4-1.8
		c0.2-0.1,0.5,0,0.7,0.2C33.4,8.6,33.4,8.9,33.1,9"/>
	<path class="st1" d="M14.4,24.1c0.1-0.2,0.4-0.3,0.7-0.2c0.2,0.1,0.3,0.4,0.2,0.7l-2,3.2C13.1,28,13,28,12.8,28
		c-0.1,0-0.2,0-0.3-0.1c-0.2-0.1-0.3-0.4-0.2-0.7L14.4,24.1z M14.4,24.1"/>
	<path class="st1" d="M26.3,6.9c-0.1,0.1-0.2,0.2-0.4,0.2c-0.1,0-0.2,0-0.3-0.1c-0.2-0.1-0.3-0.4-0.2-0.7l2-3.2
		c0.1-0.2,0.4-0.3,0.7-0.2c0.2,0.1,0.3,0.4,0.2,0.7L26.3,6.9z M26.3,6.9"/>
</g>
<g id="light_rain" class="st0">
	<path class="st1" d="M33.1,27.3c-0.3-0.1-0.6,0-0.7,0.2L28.7,35c-0.1,0.3,0,0.6,0.2,0.7c0.1,0,0.2,0.1,0.2,0.1
		c0.2,0,0.4-0.1,0.5-0.3l3.7-7.4C33.5,27.7,33.4,27.4,33.1,27.3"/>
	<path class="st1" d="M17.8,24.1h19c0.1,0,0.3,0,0.4,0v0c3.1,0,5.6-2.5,5.6-5.6c0-3.1-2.5-5.6-5.6-5.6c-0.4,0-0.9,0.1-1.4,0.2
		c-0.1,0-0.3,0-0.4-0.1c-0.1-0.1-0.2-0.2-0.2-0.4c-0.6-4-4-6.9-8.1-6.9c-4.5,0-8.2,3.7-8.2,8.2c0,0.2,0,0.4,0,0.7
		c0,0.2,0,0.3-0.2,0.4c-0.1,0.1-0.3,0.2-0.4,0.2c-0.2,0-0.3,0-0.5,0c-2.5,0-4.5,2-4.5,4.5C13.3,22.1,15.4,24.1,17.8,24.1 M17.8,14
		c0,0,0-0.1,0-0.1c0-5.1,4.2-9.3,9.3-9.3c4.4,0,8.1,3,9.1,7.3c0.4-0.1,0.7-0.1,1.1-0.1c3.7,0,6.7,3,6.7,6.7s-3,6.7-6.7,6.7H17.8
		c-3.1,0-5.6-2.5-5.6-5.6C12.2,16.5,14.7,14,17.8,14"/>
	<path class="st1" d="M11.1,8.1c0.3,0,0.7,0,1.1,0.1c0.9-4.2,4.7-7.3,9.1-7.3c1.9,0,3.8,0.6,5.3,1.7c0.3,0.2,0.3,0.5,0.1,0.8
		c-0.2,0.2-0.5,0.3-0.8,0.1c-1.4-1-3-1.5-4.7-1.5c-4,0-7.4,2.9-8.1,6.9c0,0.2-0.1,0.3-0.2,0.4c-0.1,0.1-0.3,0.1-0.4,0.1
		c-0.5-0.1-0.9-0.2-1.4-0.2c-3.1,0-5.6,2.5-5.6,5.6c0,2.9,2.2,5.3,5,5.6c0.3,0,0.5,0.3,0.5,0.6c0,0.3-0.3,0.5-0.5,0.5c0,0,0,0-0.1,0
		c-3.4-0.4-6-3.2-6-6.7C4.4,11.1,7.4,8.1,11.1,8.1"/>
</g>
<g id="rain">
	<path class="st2" d="M19,24.6h19.5c0.1,0,0.3,0,0.4,0v0c3.2,0,5.8-2.6,5.8-5.8c0-3.2-2.6-5.8-5.8-5.8c-0.5,0-0.9,0.1-1.4,0.2
		c-0.2,0-0.3,0-0.5-0.1c-0.1-0.1-0.2-0.2-0.2-0.4c-0.6-4.1-4.1-7.1-8.3-7.1c-4.6,0-8.4,3.8-8.4,8.4c0,0.2,0,0.5,0,0.7
		c0,0.2-0.1,0.3-0.2,0.5c-0.1,0.1-0.3,0.2-0.5,0.2c-0.2,0-0.3,0-0.5,0c-2.6,0-4.6,2.1-4.6,4.6S16.4,24.6,19,24.6 M18.9,14.2
		c0,0,0-0.1,0-0.1c0-5.3,4.3-9.5,9.5-9.5c4.5,0,8.3,3.1,9.3,7.5c0.4-0.1,0.7-0.1,1.1-0.1c3.8,0,6.9,3.1,6.9,6.9
		c0,3.8-3.1,6.9-6.9,6.9H19c-3.2,0-5.8-2.6-5.8-5.8C13.2,16.8,15.8,14.2,18.9,14.2"/>
	<path class="st2" d="M12,8.1c0.4,0,0.7,0,1.1,0.1c1-4.4,4.8-7.5,9.3-7.5c2,0,3.9,0.6,5.5,1.7C28.1,2.6,28.2,3,28,3.2
		c-0.2,0.3-0.5,0.3-0.8,0.1c-1.4-1-3.1-1.5-4.8-1.5c-4.2,0-7.6,3-8.3,7.1c0,0.2-0.1,0.3-0.2,0.4c-0.1,0.1-0.3,0.1-0.4,0.1
		c-0.5-0.1-0.9-0.2-1.4-0.2c-3.2,0-5.8,2.6-5.8,5.8c0,3,2.2,5.4,5.2,5.7c0.3,0,0.5,0.3,0.5,0.6c0,0.3-0.3,0.5-0.6,0.5c0,0,0,0-0.1,0
		c-3.5-0.4-6.2-3.3-6.2-6.9C5.1,11.2,8.2,8.1,12,8.1"/>
	<path class="st2" d="M21.7,28.3c-0.3-0.1-0.6,0-0.7,0.2l-3.7,6.3c-0.1,0.3,0,0.6,0.2,0.7c0.1,0,0.2,0.1,0.2,0.1
		c0.2,0,0.4-0.1,0.5-0.3L22,29C22.1,28.8,22,28.4,21.7,28.3"/>
	<path class="st2" d="M27.9,28.3c-0.3-0.1-0.6,0-0.7,0.2l-3.7,6.3c-0.1,0.3,0,0.6,0.2,0.7c0.1,0,0.2,0.1,0.2,0.1
		c0.2,0,0.4-0.1,0.5-0.3l3.7-6.3C28.3,28.8,28.2,28.4,27.9,28.3"/>
	<path class="st2" d="M34.1,28.3c-0.3-0.1-0.6,0-0.7,0.2l-3.7,6.3c-0.1,0.3,0,0.6,0.2,0.7c0.1,0,0.2,0.1,0.2,0.1
		c0.2,0,0.4-0.1,0.5-0.3l3.7-6.3C34.5,28.8,34.4,28.4,34.1,28.3"/>
</g>
<g id="Layer_7" class="st0">
	<path class="st1" d="M18.9,28h17.7c0.1,0,0.2,0,0.4,0v0c2.9,0,5.3-2.4,5.3-5.3c0-2.9-2.4-5.3-5.3-5.3c-0.4,0-0.8,0.1-1.3,0.2
		c-0.1,0-0.3,0-0.4-0.1c-0.1-0.1-0.2-0.2-0.2-0.3c-0.6-3.7-3.8-6.5-7.5-6.5c-4.2,0-7.6,3.4-7.6,7.6c0,0.2,0,0.4,0,0.6
		c0,0.2,0,0.3-0.2,0.4c-0.1,0.1-0.3,0.2-0.4,0.1c-0.2,0-0.3,0-0.5,0c-2.3,0-4.2,1.9-4.2,4.2C14.6,26.1,16.5,28,18.9,28 M18.8,18.5
		c0,0,0-0.1,0-0.1c0-4.8,3.9-8.7,8.7-8.7c4.1,0,7.6,2.8,8.5,6.8c0.3-0.1,0.7-0.1,1-0.1c3.5,0,6.3,2.8,6.3,6.3c0,3.5-2.8,6.3-6.3,6.3
		H18.9c-2.9,0-5.2-2.4-5.2-5.2C13.6,20.9,16,18.5,18.8,18.5"/>
	<path class="st1" d="M12.5,12.9c0.3,0,0.7,0,1,0.1c0.9-4,4.3-6.8,8.5-6.8c1.8,0,3.5,0.5,5,1.6c0.2,0.2,0.3,0.5,0.1,0.7
		c-0.2,0.2-0.5,0.3-0.7,0.1c-1.3-0.9-2.8-1.4-4.4-1.4c-3.8,0-7,2.7-7.5,6.5c0,0.1-0.1,0.3-0.2,0.4c-0.1,0.1-0.3,0.1-0.4,0.1
		C13.4,14,13,14,12.5,14c-2.9,0-5.3,2.4-5.3,5.2c0,2.7,2,4.9,4.7,5.2c0.3,0,0.5,0.3,0.5,0.6c0,0.3-0.3,0.5-0.5,0.5c0,0,0,0-0.1,0
		c-3.2-0.3-5.6-3-5.6-6.2C6.3,15.8,9.1,12.9,12.5,12.9"/>
	<path class="st1" d="M18.5,33.1c-0.3,0-0.5,0.2-0.5,0.5v0.8h-0.8c-0.3,0-0.5,0.2-0.5,0.5c0,0.3,0.2,0.5,0.5,0.5H18v0.8
		c0,0.3,0.2,0.5,0.5,0.5c0.1,0,0.3-0.1,0.4-0.2c0.1-0.1,0.2-0.2,0.2-0.4l0-0.8h0.8c0.1,0,0.3-0.1,0.4-0.2c0.1-0.1,0.2-0.2,0.2-0.4
		c0-0.3-0.2-0.5-0.5-0.5H19v-0.8C19,33.4,18.8,33.1,18.5,33.1"/>
	<path class="st1" d="M28.1,33.1c-0.3,0-0.5,0.2-0.5,0.5v0.8h-0.8c-0.3,0-0.5,0.2-0.5,0.5c0,0.3,0.2,0.5,0.5,0.5h0.8v0.8
		c0,0.3,0.2,0.5,0.5,0.5c0.1,0,0.3-0.1,0.4-0.2c0.1-0.1,0.2-0.2,0.2-0.4v-0.8h0.8c0.1,0,0.3-0.1,0.4-0.2c0.1-0.1,0.2-0.2,0.2-0.4
		c0-0.3-0.2-0.5-0.5-0.5h-0.8v-0.8C28.6,33.4,28.4,33.1,28.1,33.1"/>
	<path class="st1" d="M37.7,33.1c-0.3,0-0.5,0.2-0.5,0.5v0.8h-0.8c-0.3,0-0.5,0.2-0.5,0.5c0,0.3,0.2,0.5,0.5,0.5h0.8v0.8
		c0,0.3,0.2,0.5,0.5,0.5c0.1,0,0.3-0.1,0.4-0.2c0.1-0.1,0.2-0.2,0.2-0.4v-0.8H39c0.1,0,0.3-0.1,0.4-0.2c0.1-0.1,0.2-0.2,0.2-0.4
		c0-0.3-0.2-0.5-0.5-0.5h-0.8v-0.8C38.2,33.4,38,33.1,37.7,33.1"/>
	<path class="st1" d="M13.7,39.5c-0.3,0-0.5,0.2-0.5,0.5v0.8h-0.8c-0.3,0-0.5,0.2-0.5,0.5c0,0.3,0.2,0.5,0.5,0.5h0.8v0.8
		c0,0.3,0.2,0.5,0.5,0.5c0.1,0,0.3-0.1,0.4-0.2c0.1-0.1,0.2-0.2,0.2-0.4v-0.8H15c0.1,0,0.3-0.1,0.4-0.2c0.1-0.1,0.2-0.2,0.2-0.4
		c0-0.3-0.2-0.5-0.5-0.5l-0.8,0V40C14.2,39.7,14,39.5,13.7,39.5"/>
	<path class="st1" d="M23.3,39.5c-0.3,0-0.5,0.2-0.5,0.5v0.8h-0.8c-0.3,0-0.5,0.2-0.5,0.5c0,0.3,0.2,0.5,0.5,0.5h0.8l0,0.8
		c0,0.3,0.2,0.5,0.5,0.5c0.1,0,0.3-0.1,0.4-0.2c0.1-0.1,0.2-0.2,0.2-0.4v-0.8h0.8c0.1,0,0.3-0.1,0.4-0.2c0.1-0.1,0.2-0.2,0.2-0.4
		c0-0.3-0.2-0.5-0.5-0.5l-0.8,0V40C23.8,39.7,23.6,39.5,23.3,39.5"/>
	<path class="st1" d="M32.9,39.5c-0.3,0-0.5,0.2-0.5,0.5v0.8h-0.8c-0.3,0-0.5,0.2-0.5,0.5c0,0.3,0.2,0.5,0.5,0.5h0.8v0.8
		c0,0.3,0.2,0.5,0.5,0.5c0.1,0,0.3-0.1,0.4-0.2c0.1-0.1,0.2-0.2,0.2-0.4v-0.8h0.8c0.1,0,0.3-0.1,0.4-0.2c0.1-0.1,0.2-0.2,0.2-0.4
		c0-0.3-0.2-0.5-0.5-0.5l-0.8,0V40C33.4,39.7,33.2,39.5,32.9,39.5"/>
</g>
<g id="Layer_8" class="st0">
	<path class="st1" d="M14.7,33.8h18.1c0.1,0,0.2,0,0.4,0v0c3,0,5.4-2.4,5.4-5.4c0-3-2.4-5.4-5.4-5.4c-0.4,0-0.9,0.1-1.3,0.2
		c-0.1,0-0.3,0-0.4-0.1c-0.1-0.1-0.2-0.2-0.2-0.4c-0.6-3.8-3.8-6.6-7.7-6.6c-4.3,0-7.8,3.5-7.8,7.8c0,0.2,0,0.4,0,0.6
		c0,0.2,0,0.3-0.2,0.4c-0.1,0.1-0.3,0.2-0.4,0.1c-0.2,0-0.3,0-0.5,0c-2.4,0-4.3,1.9-4.3,4.3C10.4,31.9,12.4,33.8,14.7,33.8
		 M14.7,24.1c0,0,0-0.1,0-0.1c0-4.9,4-8.9,8.9-8.9c4.2,0,7.8,2.9,8.7,6.9c0.3-0.1,0.7-0.1,1-0.1c3.5,0,6.4,2.9,6.4,6.4
		s-2.9,6.4-6.4,6.4H14.7c-3,0-5.4-2.4-5.4-5.4C9.4,26.5,11.8,24.1,14.7,24.1"/>
</g>
<g id="Layer_9" class="st0">
	<path class="st1" d="M18.7,24.2h18.2c0.1,0,0.2,0,0.4,0v0c3,0,5.4-2.4,5.4-5.4c0-3-2.4-5.4-5.4-5.4c-0.4,0-0.9,0.1-1.3,0.2
		c-0.1,0-0.3,0-0.4-0.1c-0.1-0.1-0.2-0.2-0.2-0.4c-0.6-3.8-3.9-6.6-7.7-6.6c-4.3,0-7.8,3.5-7.8,7.8c0,0.2,0,0.4,0,0.6
		c0,0.2,0,0.3-0.2,0.4c-0.1,0.1-0.3,0.2-0.4,0.1c-0.2,0-0.3,0-0.5,0c-2.4,0-4.3,1.9-4.3,4.3S16.3,24.2,18.7,24.2 M18.7,14.5
		c0,0,0-0.1,0-0.1c0-4.9,4-8.9,8.9-8.9c4.2,0,7.8,2.9,8.7,7c0.3-0.1,0.7-0.1,1-0.1c3.6,0,6.4,2.9,6.4,6.4c0,3.5-2.9,6.4-6.4,6.4
		H18.7c-3,0-5.4-2.4-5.4-5.4C13.3,16.9,15.7,14.5,18.7,14.5"/>
	<path class="st1" d="M12.2,8.8c0.3,0,0.7,0,1,0.1c0.9-4.1,4.5-7,8.7-7c1.8,0,3.6,0.6,5.1,1.6c0.2,0.2,0.3,0.5,0.1,0.7
		c-0.2,0.2-0.5,0.3-0.7,0.1C25.1,3.5,23.5,3,21.9,3c-3.9,0-7.1,2.8-7.7,6.6c0,0.1-0.1,0.3-0.2,0.4c-0.1,0.1-0.3,0.1-0.4,0.1
		c-0.4-0.1-0.9-0.2-1.3-0.2c-3,0-5.4,2.4-5.4,5.4c0,2.8,2.1,5.1,4.8,5.3c0.3,0,0.5,0.3,0.5,0.6c0,0.3-0.3,0.5-0.5,0.5c0,0,0,0-0.1,0
		c-3.3-0.3-5.8-3.1-5.8-6.4C5.8,11.7,8.7,8.8,12.2,8.8"/>
	<path class="st1" d="M19.3,27.7c-0.3-0.1-0.6,0-0.7,0.2l-3.5,6.9c-0.1,0.3,0,0.6,0.2,0.7c0.1,0,0.2,0.1,0.2,0.1
		c0.2,0,0.4-0.1,0.5-0.3l3.5-6.9C19.7,28.1,19.6,27.8,19.3,27.7"/>
	<path class="st1" d="M38.8,27.7c-0.3-0.1-0.6,0-0.7,0.2l-3.5,6.9c-0.1,0.3,0,0.6,0.2,0.7c0.1,0,0.2,0.1,0.2,0.1
		c0.2,0,0.4-0.1,0.5-0.3l3.5-6.9C39.2,28.1,39.1,27.8,38.8,27.7"/>
	<path class="st1" d="M24.5,27.4c-0.2,0-0.4,0.1-0.6,0.2c-0.2,0.1-0.3,0.3-0.3,0.5v0l-2.4,9.7v0c-0.1,0.3,0.1,0.6,0.3,0.8
		c0.2,0.1,0.4,0.2,0.6,0.2c0.1,0,0.2,0,0.2,0h0l4.1-1l-2.2,8.8c0,0,0,0,0,0c0,0.2,0,0.5,0.1,0.7c0.1,0.2,0.3,0.3,0.5,0.4h0.1
		c0.1,0,0.1,0,0.2,0c0.3,0,0.7-0.2,0.9-0.5v0l6.4-13.6c0.1-0.3,0.1-0.6-0.1-0.9c0,0,0-0.1,0-0.1l-0.1,0.1l0.1-0.1
		c-0.2-0.2-0.4-0.3-0.7-0.3c-0.1,0-0.2,0-0.2,0l-3.9,1l1.7-4.7c0,0,0,0,0,0c0-0.1,0.1-0.2,0.1-0.4c0-0.2-0.1-0.5-0.3-0.6
		c-0.2-0.2-0.4-0.3-0.7-0.3H24.5z M24.5,28.2h3.9c0.1,0,0.1,0,0.1,0c0,0,0,0,0,0.1c0,0,0,0,0,0v0l0,0l-2,5.4l-0.3,0.7l0.8-0.2
		l4.7-1.1c0,0,0.1,0,0,0c0,0,0.1,0,0.1,0c0,0,0,0,0,0c0,0,0,0,0,0.1l-6.4,13.6c0,0,0,0,0,0c0,0,0,0.1-0.1,0.1c0,0,0,0-0.1,0
		c0,0,0,0,0,0c0,0,0,0,0,0c0,0,0,0,0,0l2.3-9.5l0.2-0.7L27,36.9l-4.8,1.2h0c0,0,0,0,0,0c-0.1,0-0.1,0-0.1,0c0,0,0,0,0,0v0l2.4-9.7v0
		C24.4,28.3,24.4,28.3,24.5,28.2C24.5,28.3,24.5,28.2,24.5,28.2L24.5,28.2z M-2.3-5.9"/>
</g>
</svg>
