<?xml version="1.0" encoding="utf-8"?>
<!-- Generator: Adobe Illustrator 24.1.1, SVG Export Plug-In . SVG Version: 6.00 Build 0)  -->
<svg version="1.1" xmlns="http://www.w3.org/2000/svg" xmlns:xlink="http://www.w3.org/1999/xlink" x="0px" y="0px"
	 viewBox="0 0 50 36.8" style="enable-background:new 0 0 50 36.8;" xml:space="preserve">
<style type="text/css">
	.st0{display:none;}
	.st1{display:inline;fill:#FFFFFF;}
	.st2{fill:#FFFFFF;}
</style>
<g id="sun" class="st0">
	<path class="st1" d="M24.8,26.3c-4.1,0-7.5-3.4-7.5-7.5c0-4.1,3.4-7.5,7.5-7.5c4.1,0,7.5,3.4,7.5,7.5
		C32.3,22.9,28.9,26.3,24.8,26.3 M24.8,10.2c-4.7,0-8.6,3.8-8.6,8.6c0,4.7,3.8,8.6,8.6,8.6c4.7,0,8.6-3.8,8.6-8.6
		C33.3,14.1,29.5,10.2,24.8,10.2"/>
	<path class="st1" d="M24.8,7.7c0.3,0,0.5-0.2,0.5-0.5V3c0-0.3-0.2-0.5-0.5-0.5c-0.3,0-0.5,0.2-0.5,0.5v4.2
		C24.2,7.5,24.5,7.7,24.8,7.7"/>
	<path class="st1" d="M24.8,29.8c-0.3,0-0.5,0.2-0.5,0.5v4.2c0,0.3,0.2,0.5,0.5,0.5c0.3,0,0.5-0.2,0.5-0.5v-4.2
		C25.3,30,25,29.8,24.8,29.8"/>
	<path class="st1" d="M30.5,9.4c0.1,0.1,0.2,0.1,0.3,0.1c0.2,0,0.4-0.1,0.5-0.3l2.2-3.6c0.2-0.3,0.1-0.6-0.2-0.7
		c-0.3-0.2-0.6-0.1-0.7,0.2l-2.2,3.6C30.2,8.9,30.3,9.2,30.5,9.4"/>
	<path class="st1" d="M19,28.1c-0.2-0.2-0.6-0.1-0.7,0.2L16,31.9c-0.2,0.3-0.1,0.6,0.2,0.7c0.1,0.1,0.2,0.1,0.3,0.1
		c0.2,0,0.4-0.1,0.4-0.3l2.2-3.6C19.3,28.6,19.2,28.3,19,28.1"/>
	<path class="st1" d="M34.9,13.8c0.1,0,0.2,0,0.3-0.1l3.7-2c0.3-0.1,0.4-0.5,0.2-0.7c-0.1-0.3-0.5-0.4-0.7-0.2l-3.7,2
		c-0.3,0.1-0.4,0.5-0.2,0.7C34.6,13.7,34.7,13.8,34.9,13.8"/>
	<path class="st1" d="M14.3,23.8l-3.7,2c-0.3,0.1-0.4,0.5-0.2,0.7c0.1,0.2,0.3,0.3,0.5,0.3c0.1,0,0.2,0,0.2-0.1l3.7-2
		c0.3-0.1,0.4-0.5,0.2-0.7C14.9,23.7,14.6,23.6,14.3,23.8"/>
	<path class="st1" d="M40.5,18.2l-4.2,0c-0.3,0-0.5,0.2-0.5,0.5c0,0.3,0.2,0.5,0.5,0.5h0l4.2,0c0.3,0,0.5-0.2,0.5-0.5
		C41.1,18.4,40.8,18.2,40.5,18.2"/>
	<path class="st1" d="M13.7,18.8c0-0.3-0.2-0.5-0.5-0.5l-4.2,0c-0.3,0-0.5,0.2-0.5,0.5c0,0.3,0.2,0.5,0.5,0.5h0l4.2,0
		C13.5,19.3,13.7,19.1,13.7,18.8"/>
	<path class="st1" d="M38.9,25.9l-3.7-2c-0.3-0.1-0.6,0-0.7,0.2c-0.1,0.3,0,0.6,0.2,0.7l3.7,2c0.1,0,0.2,0.1,0.3,0.1
		c0.2,0,0.4-0.1,0.5-0.3C39.2,26.3,39.1,26,38.9,25.9"/>
	<path class="st1" d="M14.9,12.7l-3.7-2c-0.3-0.1-0.6,0-0.7,0.2c-0.1,0.3,0,0.6,0.2,0.7l3.7,2c0.1,0,0.2,0.1,0.3,0.1
		c0.2,0,0.4-0.1,0.5-0.3C15.2,13.2,15.1,12.9,14.9,12.7"/>
	<path class="st1" d="M31.3,28.3c-0.2-0.2-0.5-0.3-0.7-0.2c-0.2,0.2-0.3,0.5-0.2,0.7l2.2,3.6c0.1,0.2,0.3,0.3,0.5,0.3
		c0.1,0,0.2,0,0.3-0.1c0.3-0.2,0.3-0.5,0.2-0.7L31.3,28.3z M31.3,28.3"/>
	<path class="st1" d="M18.2,9.2c0.1,0.2,0.3,0.3,0.4,0.3c0.1,0,0.2,0,0.3-0.1c0.2-0.2,0.3-0.5,0.2-0.7l-2.2-3.6
		c-0.2-0.2-0.5-0.3-0.7-0.2c-0.2,0.2-0.3,0.5-0.2,0.7L18.2,9.2z M18.2,9.2"/>
	<path class="st1" d="M24.8,26.3c-4.1,0-7.5-3.4-7.5-7.5c0-4.1,3.4-7.5,7.5-7.5c4.1,0,7.5,3.4,7.5,7.5
		C32.3,22.9,28.9,26.3,24.8,26.3 M24.8,10.2c-4.7,0-8.6,3.8-8.6,8.6c0,4.7,3.8,8.6,8.6,8.6c4.7,0,8.6-3.8,8.6-8.6
		C33.3,14.1,29.5,10.2,24.8,10.2"/>
	<path class="st1" d="M24.8,7.7c0.3,0,0.5-0.2,0.5-0.5V3c0-0.3-0.2-0.5-0.5-0.5c-0.3,0-0.5,0.2-0.5,0.5v4.2
		C24.2,7.5,24.5,7.7,24.8,7.7"/>
	<path class="st1" d="M24.8,29.8c-0.3,0-0.5,0.2-0.5,0.5v4.2c0,0.3,0.2,0.5,0.5,0.5c0.3,0,0.5-0.2,0.5-0.5v-4.2
		C25.3,30,25,29.8,24.8,29.8"/>
	<path class="st1" d="M30.5,9.4c0.1,0.1,0.2,0.1,0.3,0.1c0.2,0,0.4-0.1,0.5-0.3l2.2-3.6c0.2-0.3,0.1-0.6-0.2-0.7
		c-0.3-0.2-0.6-0.1-0.7,0.2l-2.2,3.6C30.2,8.9,30.3,9.2,30.5,9.4"/>
	<path class="st1" d="M19,28.1c-0.2-0.2-0.6-0.1-0.7,0.2L16,31.9c-0.2,0.3-0.1,0.6,0.2,0.7c0.1,0.1,0.2,0.1,0.3,0.1
		c0.2,0,0.4-0.1,0.4-0.3l2.2-3.6C19.3,28.6,19.2,28.3,19,28.1"/>
	<path class="st1" d="M34.9,13.8c0.1,0,0.2,0,0.3-0.1l3.7-2c0.3-0.1,0.4-0.5,0.2-0.7c-0.1-0.3-0.5-0.4-0.7-0.2l-3.7,2
		c-0.3,0.1-0.4,0.5-0.2,0.7C34.6,13.7,34.7,13.8,34.9,13.8"/>
	<path class="st1" d="M14.3,23.8l-3.7,2c-0.3,0.1-0.4,0.5-0.2,0.7c0.1,0.2,0.3,0.3,0.5,0.3c0.1,0,0.2,0,0.2-0.1l3.7-2
		c0.3-0.1,0.4-0.5,0.2-0.7C14.9,23.7,14.6,23.6,14.3,23.8"/>
	<path class="st1" d="M40.5,18.2l-4.2,0c-0.3,0-0.5,0.2-0.5,0.5c0,0.3,0.2,0.5,0.5,0.5h0l4.2,0c0.3,0,0.5-0.2,0.5-0.5
		C41.1,18.4,40.8,18.2,40.5,18.2"/>
	<path class="st1" d="M13.7,18.8c0-0.3-0.2-0.5-0.5-0.5l-4.2,0c-0.3,0-0.5,0.2-0.5,0.5c0,0.3,0.2,0.5,0.5,0.5h0l4.2,0
		C13.5,19.3,13.7,19.1,13.7,18.8"/>
	<path class="st1" d="M38.9,25.9l-3.7-2c-0.3-0.1-0.6,0-0.7,0.2c-0.1,0.3,0,0.6,0.2,0.7l3.7,2c0.1,0,0.2,0.1,0.3,0.1
		c0.2,0,0.4-0.1,0.5-0.3C39.2,26.3,39.1,26,38.9,25.9"/>
	<path class="st1" d="M14.9,12.7l-3.7-2c-0.3-0.1-0.6,0-0.7,0.2c-0.1,0.3,0,0.6,0.2,0.7l3.7,2c0.1,0,0.2,0.1,0.3,0.1
		c0.2,0,0.4-0.1,0.5-0.3C15.2,13.2,15.1,12.9,14.9,12.7"/>
	<path class="st1" d="M31.3,28.3c-0.2-0.2-0.5-0.3-0.7-0.2c-0.2,0.2-0.3,0.5-0.2,0.7l2.2,3.6c0.1,0.2,0.3,0.3,0.5,0.3
		c0.1,0,0.2,0,0.3-0.1c0.3-0.2,0.3-0.5,0.2-0.7L31.3,28.3z M31.3,28.3"/>
	<path class="st1" d="M18.2,9.2c0.1,0.2,0.3,0.3,0.4,0.3c0.1,0,0.2,0,0.3-0.1c0.2-0.2,0.3-0.5,0.2-0.7l-2.2-3.6
		c-0.2-0.2-0.5-0.3-0.7-0.2c-0.2,0.2-0.3,0.5-0.2,0.7L18.2,9.2z M18.2,9.2"/>
</g>
<g id="sun_cloud">
	<path class="st2" d="M21.8,34.5h19.6c0.1,0,0.3,0,0.4,0v0c3.2,0,5.8-2.6,5.8-5.8c0-3.2-2.6-5.8-5.8-5.8c-0.5,0-0.9,0.1-1.4,0.2
		c-0.2,0-0.3,0-0.5-0.1c-0.1-0.1-0.2-0.2-0.2-0.4c-0.6-4.1-4.1-7.1-8.3-7.1c-4.7,0-8.4,3.8-8.4,8.4c0,0.2,0,0.5,0,0.7
		c0,0.2,0,0.3-0.2,0.5c-0.1,0.1-0.3,0.2-0.5,0.2c-0.2,0-0.3,0-0.5,0c-2.6,0-4.7,2.1-4.7,4.7C17.2,32.4,19.3,34.5,21.8,34.5 M21.8,24
		c0,0,0-0.1,0-0.1c0-5.3,4.3-9.6,9.6-9.6c4.5,0,8.4,3.1,9.3,7.5c0.4-0.1,0.7-0.1,1.1-0.1c3.8,0,6.9,3.1,6.9,6.9s-3.1,6.9-6.9,6.9h0
		c-0.1,0-2.3,0-5.2,0H21.8c-3.2,0-5.8-2.6-5.8-5.8C16,26.6,18.6,24,21.8,24"/>
	<path class="st2" d="M10.5,18.3c0-5.1,4.1-9.2,9.2-9.2c3.1,0,5.8,1.3,7.5,3.9c0.2,0.3,0.1,0.6-0.2,0.8c-0.3,0.2-0.6,0.1-0.8-0.2
		c-1.5-2.3-3.8-3.4-6.5-3.4c-4.4,0-8.1,3.6-8.1,8.1c0,2.8,1.4,5.3,3.7,6.8c0.3,0.2,0.3,0.5,0.2,0.8c-0.1,0.2-0.3,0.3-0.5,0.3
		c-0.1,0-0.2,0-0.3-0.1C12.1,24.3,10.5,21.4,10.5,18.3"/>
	<path class="st2" d="M19.6,6.2C19.3,6.2,19,6,19,5.7V1.1c0-0.3,0.3-0.6,0.6-0.6c0.3,0,0.6,0.3,0.6,0.6v4.6
		C20.1,6,19.9,6.2,19.6,6.2"/>
	<path class="st2" d="M13.3,8c-0.1,0.1-0.2,0.1-0.3,0.1c-0.2,0-0.4-0.1-0.5-0.3L10.2,4c-0.2-0.3-0.1-0.6,0.2-0.8
		C10.6,3,11,3.1,11.1,3.4l2.4,3.9C13.7,7.5,13.6,7.8,13.3,8"/>
	<path class="st2" d="M8.6,12.8c-0.1,0-0.2,0-0.3-0.1l-4-2.2C4.1,10.4,4,10.1,4.1,9.8c0.1-0.3,0.5-0.4,0.8-0.2l4,2.1
		c0.3,0.2,0.4,0.5,0.2,0.8C9,12.7,8.8,12.8,8.6,12.8"/>
	<path class="st2" d="M2.6,17.5L2.6,17.5l4.6,0c0.3,0,0.6,0.3,0.6,0.6c0,0.3-0.3,0.6-0.6,0.6l-4.6,0C2.3,18.6,2,18.4,2,18
		C2,17.7,2.3,17.5,2.6,17.5"/>
	<path class="st2" d="M4.4,25.7l4-2.2c0.3-0.2,0.6-0.1,0.8,0.2c0.2,0.3,0.1,0.6-0.2,0.8l-4,2.2c-0.1,0.1-0.2,0.1-0.3,0.1
		c-0.2,0-0.4-0.1-0.5-0.3C4,26.2,4.1,25.9,4.4,25.7"/>
	<path class="st2" d="M34.7,10.4l-4,2.2c-0.1,0-0.2,0.1-0.3,0.1c-0.2,0-0.4-0.1-0.5-0.3c-0.2-0.3-0.1-0.6,0.2-0.8l4-2.2
		c0.3-0.2,0.6-0.1,0.8,0.2C35.1,9.9,35,10.3,34.7,10.4"/>
	<path class="st2" d="M12.5,28.3c0.2-0.3,0.5-0.3,0.8-0.2c0.3,0.2,0.3,0.5,0.2,0.8l-2.4,3.9C11,32.9,10.8,33,10.6,33
		c-0.1,0-0.2,0-0.3-0.1c-0.3-0.2-0.4-0.5-0.2-0.8L12.5,28.3z M12.5,28.3"/>
	<path class="st2" d="M26.6,7.8c-0.1,0.2-0.3,0.3-0.5,0.3c-0.1,0-0.2,0-0.3-0.1c-0.3-0.2-0.3-0.5-0.2-0.8l2.4-3.9
		c0.2-0.3,0.5-0.3,0.8-0.2c0.3,0.2,0.3,0.5,0.2,0.8L26.6,7.8z M26.6,7.8"/>
</g>
<g id="sun_light_rain" class="st0">
	<path class="st1" d="M22,33.2h14.9c0.1,0,0.2,0,0.3,0v0c2.4,0,4.4-2,4.4-4.4c0-2.4-2-4.4-4.4-4.4c-0.3,0-0.7,0-1.1,0.1
		c-0.1,0-0.2,0-0.3-0.1c-0.1-0.1-0.2-0.2-0.2-0.3c-0.5-3.1-3.1-5.4-6.3-5.4c-3.5,0-6.4,2.9-6.4,6.4c0,0.2,0,0.3,0,0.5
		c0,0.1,0,0.3-0.1,0.3c-0.1,0.1-0.2,0.1-0.3,0.1c-0.1,0-0.3,0-0.4,0c-1.9,0-3.5,1.6-3.5,3.5C18.5,31.6,20.1,33.2,22,33.2 M22,25.3
		L22,25.3c0-4.1,3.3-7.4,7.3-7.4c3.4,0,6.4,2.4,7.1,5.7c0.3,0,0.6-0.1,0.8-0.1c2.9,0,5.3,2.4,5.3,5.3c0,2.9-2.4,5.3-5.3,5.3H22
		c-2.4,0-4.4-2-4.4-4.4C17.6,27.3,19.6,25.3,22,25.3"/>
	<path class="st1" d="M13.4,20.9c0-3.9,3.1-7,7-7c2.4,0,4.4,1,5.7,3c0.1,0.2,0.1,0.5-0.1,0.6c-0.2,0.1-0.5,0.1-0.6-0.1
		c-1.1-1.7-2.9-2.6-5-2.6c-3.4,0-6.1,2.7-6.1,6.1c0,2.1,1,4,2.8,5.1c0.2,0.1,0.3,0.4,0.1,0.6c-0.1,0.1-0.2,0.2-0.4,0.2
		c-0.1,0-0.2,0-0.2-0.1C14.6,25.5,13.4,23.3,13.4,20.9"/>
	<path class="st1" d="M20.3,11.8c-0.2,0-0.4-0.2-0.4-0.4V7.9c0-0.2,0.2-0.4,0.4-0.4c0.2,0,0.4,0.2,0.4,0.4v3.5
		C20.8,11.6,20.6,11.8,20.3,11.8"/>
	<path class="st1" d="M15.6,13.1c-0.1,0-0.1,0.1-0.2,0.1c-0.1,0-0.3-0.1-0.4-0.2l-1.8-2.9c-0.1-0.2-0.1-0.5,0.1-0.6
		c0.2-0.1,0.5-0.1,0.6,0.1l1.8,2.9C15.9,12.8,15.8,13,15.6,13.1"/>
	<path class="st1" d="M12,16.8c-0.1,0-0.1,0-0.2-0.1l-3-1.6c-0.2-0.1-0.3-0.4-0.2-0.6c0.1-0.2,0.4-0.3,0.6-0.2l3,1.6
		c0.2,0.1,0.3,0.4,0.2,0.6C12.3,16.7,12.2,16.8,12,16.8"/>
	<path class="st1" d="M7.4,20.3L7.4,20.3l3.5,0c0.2,0,0.4,0.2,0.4,0.4c0,0.2-0.2,0.4-0.4,0.4h0l-3.5,0C7.2,21.2,7,21,7,20.8
		C7,20.5,7.2,20.3,7.4,20.3"/>
	<path class="st1" d="M8.8,26.6l3-1.7c0.2-0.1,0.5,0,0.6,0.2c0.1,0.2,0,0.5-0.2,0.6l-3,1.7c-0.1,0-0.1,0.1-0.2,0.1
		c-0.2,0-0.3-0.1-0.4-0.2C8.5,27,8.6,26.7,8.8,26.6"/>
	<path class="st1" d="M31.8,15l-3,1.7c-0.1,0-0.1,0.1-0.2,0.1c-0.2,0-0.3-0.1-0.4-0.2c-0.1-0.2,0-0.5,0.2-0.6l3-1.7
		c0.2-0.1,0.5,0,0.6,0.2C32.1,14.6,32.1,14.9,31.8,15"/>
	<path class="st1" d="M15,28.6c0.1-0.2,0.4-0.3,0.6-0.1c0.2,0.1,0.3,0.4,0.1,0.6l-1.8,2.9c-0.1,0.1-0.2,0.2-0.4,0.2
		c-0.1,0-0.2,0-0.2-0.1c-0.2-0.1-0.3-0.4-0.1-0.6L15,28.6z M15,28.6"/>
	<path class="st1" d="M25.7,13c-0.1,0.1-0.2,0.2-0.4,0.2c-0.1,0-0.2,0-0.2-0.1c-0.2-0.1-0.3-0.4-0.1-0.6l1.8-2.9
		c0.1-0.2,0.4-0.3,0.6-0.1c0.2,0.1,0.3,0.4,0.1,0.6L25.7,13z M25.7,13"/>
	<path class="st1" d="M33.2,38c-0.2-0.1-0.5,0-0.6,0.2L31,41.4c-0.1,0.2,0,0.5,0.2,0.6c0.1,0,0.1,0,0.2,0c0.2,0,0.3-0.1,0.4-0.2
		l1.6-3.2C33.5,38.4,33.4,38.1,33.2,38"/>
	<path class="st1" d="M25.2,38c-0.2-0.1-0.5,0-0.6,0.2L23,41.4c-0.1,0.2,0,0.5,0.2,0.6c0.1,0,0.1,0,0.2,0c0.2,0,0.3-0.1,0.4-0.2
		l1.6-3.2C25.5,38.4,25.4,38.1,25.2,38"/>
</g>
<g id="sun_heavy_rain" class="st0">
	<path class="st1" d="M24.4,37.5c-0.2-0.1-0.5,0-0.6,0.2l-1.6,3.2c-0.1,0.2,0,0.5,0.2,0.6c0.1,0,0.1,0,0.2,0c0.2,0,0.3-0.1,0.4-0.2
		l1.6-3.2C24.7,37.9,24.6,37.6,24.4,37.5"/>
	<path class="st1" d="M30,37.5c-0.2-0.1-0.5,0-0.6,0.2l-1.6,3.2c-0.1,0.2,0,0.5,0.2,0.6c0.1,0,0.1,0,0.2,0c0.2,0,0.3-0.1,0.4-0.2
		l1.6-3.2C30.4,37.9,30.3,37.6,30,37.5"/>
	<path class="st1" d="M35.7,37.5c-0.2-0.1-0.5,0-0.6,0.2l-1.6,3.2c-0.1,0.2,0,0.5,0.2,0.6c0.1,0,0.1,0,0.2,0c0.2,0,0.3-0.1,0.4-0.2
		l1.6-3.2C36,37.9,35.9,37.6,35.7,37.5"/>
	<path class="st1" d="M22,34.4h15.3c0.1,0,0.2,0,0.3,0v0c2.5,0,4.5-2,4.5-4.5c0-2.5-2-4.5-4.5-4.5c-0.4,0-0.7,0-1.1,0.1
		c-0.1,0-0.3,0-0.4-0.1c-0.1-0.1-0.2-0.2-0.2-0.3c-0.5-3.2-3.2-5.6-6.5-5.6c-3.6,0-6.6,3-6.6,6.6c0,0.2,0,0.4,0,0.5
		c0,0.1,0,0.3-0.1,0.4c-0.1,0.1-0.2,0.1-0.4,0.1c-0.1,0-0.3,0-0.4,0c-2,0-3.6,1.6-3.6,3.6C18.3,32.8,20,34.4,22,34.4 M21.9,26.3
		L21.9,26.3c0-4.2,3.4-7.6,7.5-7.6c3.5,0,6.5,2.4,7.3,5.9c0.3,0,0.6-0.1,0.8-0.1c3,0,5.4,2.4,5.4,5.4c0,3-2.4,5.4-5.4,5.4H22
		c-2.5,0-4.5-2-4.5-4.5C17.4,28.3,19.5,26.3,21.9,26.3"/>
	<path class="st1" d="M13.1,21.8c0-4,3.2-7.2,7.2-7.2c2.4,0,4.5,1,5.8,3.1c0.1,0.2,0.1,0.5-0.1,0.6c-0.2,0.1-0.5,0.1-0.6-0.1
		c-1.2-1.8-3-2.7-5.1-2.7c-3.5,0-6.3,2.8-6.3,6.3c0,2.1,1.1,4.1,2.9,5.3c0.2,0.1,0.3,0.4,0.1,0.6c-0.1,0.1-0.2,0.2-0.4,0.2
		c-0.1,0-0.2,0-0.2-0.1C14.4,26.5,13.1,24.2,13.1,21.8"/>
	<path class="st1" d="M20.2,12.4c-0.2,0-0.4-0.2-0.4-0.4V8.4C19.8,8.2,20,8,20.2,8c0.2,0,0.4,0.2,0.4,0.4V12
		C20.6,12.2,20.4,12.4,20.2,12.4"/>
	<path class="st1" d="M15.3,13.8c-0.1,0-0.2,0.1-0.2,0.1c-0.2,0-0.3-0.1-0.4-0.2l-1.9-3c-0.1-0.2-0.1-0.5,0.1-0.6
		c0.2-0.1,0.5-0.1,0.6,0.1l1.9,3C15.6,13.4,15.5,13.7,15.3,13.8"/>
	<path class="st1" d="M11.7,17.5c-0.1,0-0.1,0-0.2-0.1l-3.1-1.7c-0.2-0.1-0.3-0.4-0.2-0.6C8.3,15,8.5,14.9,8.7,15l3.1,1.7
		c0.2,0.1,0.3,0.4,0.2,0.6C12,17.5,11.8,17.5,11.7,17.5"/>
	<path class="st1" d="M7,21.2L7,21.2l3.6,0c0.2,0,0.4,0.2,0.4,0.4c0,0.2-0.2,0.4-0.4,0.4l-3.6,0c-0.2,0-0.4-0.2-0.4-0.4
		C6.5,21.4,6.7,21.2,7,21.2"/>
	<path class="st1" d="M8.4,27.6l3.1-1.7c0.2-0.1,0.5,0,0.6,0.2c0.1,0.2,0,0.5-0.2,0.6l-3.1,1.7c-0.1,0-0.1,0.1-0.2,0.1
		c-0.2,0-0.3-0.1-0.4-0.2C8.1,28,8.2,27.7,8.4,27.6"/>
	<path class="st1" d="M32,15.7l-3.1,1.7c-0.1,0-0.1,0.1-0.2,0.1c-0.2,0-0.3-0.1-0.4-0.2c-0.1-0.2,0-0.5,0.2-0.6l3.1-1.7
		c0.2-0.1,0.5,0,0.6,0.2C32.3,15.3,32.3,15.6,32,15.7"/>
	<path class="st1" d="M14.7,29.6c0.1-0.2,0.4-0.3,0.6-0.1c0.2,0.1,0.3,0.4,0.1,0.6l-1.9,3c-0.1,0.1-0.2,0.2-0.4,0.2
		c-0.1,0-0.2,0-0.2-0.1c-0.2-0.1-0.3-0.4-0.1-0.6L14.7,29.6z M14.7,29.6"/>
	<path class="st1" d="M25.7,13.7c-0.1,0.1-0.2,0.2-0.4,0.2c-0.1,0-0.2,0-0.2-0.1c-0.2-0.1-0.3-0.4-0.1-0.6l1.9-3
		C27,10,27.2,9.9,27.5,10c0.2,0.1,0.3,0.4,0.1,0.6L25.7,13.7z M25.7,13.7"/>
</g>
<g id="light_rain" class="st0">
	<path class="st1" d="M33.3,33.8c-0.3-0.1-0.6,0-0.7,0.2l-3.6,7.1c-0.1,0.3,0,0.6,0.2,0.7c0.1,0,0.2,0.1,0.2,0.1
		c0.2,0,0.4-0.1,0.5-0.3l3.6-7.1C33.7,34.3,33.6,33.9,33.3,33.8"/>
	<path class="st1" d="M18.7,29.8h18.1c0.1,0,0.2,0,0.4,0v0c3,0,5.4-2.4,5.4-5.4c0-3-2.4-5.4-5.4-5.4c-0.4,0-0.9,0.1-1.3,0.2
		c-0.1,0-0.3,0-0.4-0.1c-0.1-0.1-0.2-0.2-0.2-0.4c-0.6-3.8-3.8-6.6-7.7-6.6c-4.3,0-7.8,3.5-7.8,7.8c0,0.2,0,0.4,0,0.6
		c0,0.2,0,0.3-0.2,0.4c-0.1,0.1-0.3,0.2-0.4,0.1c-0.2,0-0.3,0-0.5,0c-2.4,0-4.3,1.9-4.3,4.3C14.4,27.9,16.4,29.8,18.7,29.8
		 M18.7,20.1c0,0,0-0.1,0-0.1c0-4.9,4-8.9,8.9-8.9c4.2,0,7.8,2.9,8.7,6.9c0.3-0.1,0.7-0.1,1-0.1c3.5,0,6.4,2.9,6.4,6.4
		s-2.9,6.4-6.4,6.4H18.7c-3,0-5.4-2.4-5.4-5.4C13.4,22.5,15.8,20.1,18.7,20.1"/>
	<path class="st1" d="M12.3,14.4c0.3,0,0.7,0,1,0.1c0.9-4.1,4.4-6.9,8.7-6.9c1.8,0,3.6,0.6,5.1,1.6c0.2,0.2,0.3,0.5,0.1,0.7
		c-0.2,0.2-0.5,0.3-0.7,0.1c-1.3-0.9-2.9-1.4-4.5-1.4c-3.9,0-7.1,2.8-7.7,6.6c0,0.1-0.1,0.3-0.2,0.4c-0.1,0.1-0.3,0.1-0.4,0.1
		c-0.4-0.1-0.9-0.2-1.3-0.2c-3,0-5.4,2.4-5.4,5.4c0,2.8,2.1,5.1,4.8,5.3c0.3,0,0.5,0.3,0.5,0.6c0,0.3-0.3,0.5-0.5,0.5c0,0,0,0-0.1,0
		c-3.3-0.3-5.8-3.1-5.8-6.4C5.8,17.3,8.7,14.4,12.3,14.4"/>
</g>
<g id="rain" class="st0">
	<path class="st1" d="M18.7,30.2h18.2c0.1,0,0.2,0,0.4,0v0c3,0,5.4-2.4,5.4-5.4c0-3-2.4-5.4-5.4-5.4c-0.4,0-0.9,0.1-1.3,0.2
		c-0.1,0-0.3,0-0.4-0.1c-0.1-0.1-0.2-0.2-0.2-0.4c-0.6-3.8-3.9-6.6-7.7-6.6c-4.3,0-7.8,3.5-7.8,7.8c0,0.2,0,0.4,0,0.6
		c0,0.2,0,0.3-0.2,0.4c-0.1,0.1-0.3,0.2-0.4,0.1c-0.2,0-0.3,0-0.5,0c-2.4,0-4.3,1.9-4.3,4.3S16.3,30.2,18.7,30.2 M18.7,20.5
		c0,0,0-0.1,0-0.1c0-4.9,4-8.9,8.9-8.9c4.2,0,7.8,2.9,8.7,7c0.3-0.1,0.7-0.1,1-0.1c3.6,0,6.4,2.9,6.4,6.4c0,3.5-2.9,6.4-6.4,6.4
		H18.7c-3,0-5.4-2.4-5.4-5.4C13.3,22.9,15.7,20.5,18.7,20.5"/>
	<path class="st1" d="M12.2,14.8c0.3,0,0.7,0,1,0.1c0.9-4.1,4.5-7,8.7-7c1.8,0,3.6,0.6,5.1,1.6c0.2,0.2,0.3,0.5,0.1,0.7
		c-0.2,0.2-0.5,0.3-0.7,0.1C25.1,9.5,23.5,9,21.9,9c-3.9,0-7.1,2.8-7.7,6.6c0,0.1-0.1,0.3-0.2,0.4c-0.1,0.1-0.3,0.1-0.4,0.1
		c-0.4-0.1-0.9-0.2-1.3-0.2c-3,0-5.4,2.4-5.4,5.4c0,2.8,2.1,5.1,4.8,5.3c0.3,0,0.5,0.3,0.5,0.6c0,0.3-0.3,0.5-0.5,0.5c0,0,0,0-0.1,0
		c-3.3-0.3-5.8-3.1-5.8-6.4C5.8,17.7,8.7,14.8,12.2,14.8"/>
	<path class="st1" d="M21.3,33.7c-0.3-0.1-0.6,0-0.7,0.2l-3.5,6.9c-0.1,0.3,0,0.6,0.2,0.7c0.1,0,0.2,0.1,0.2,0.1
		c0.2,0,0.4-0.1,0.5-0.3l3.5-6.9C21.7,34.1,21.6,33.8,21.3,33.7"/>
	<path class="st1" d="M27.1,33.7c-0.3-0.1-0.6,0-0.7,0.2l-3.5,6.9c-0.1,0.3,0,0.6,0.2,0.7c0.1,0,0.2,0.1,0.2,0.1
		c0.2,0,0.4-0.1,0.5-0.3l3.5-6.9C27.4,34.1,27.3,33.8,27.1,33.7"/>
	<path class="st1" d="M32.8,33.7c-0.3-0.1-0.6,0-0.7,0.2l-3.5,6.9c-0.1,0.3,0,0.6,0.2,0.7c0.1,0,0.2,0.1,0.2,0.1
		c0.2,0,0.4-0.1,0.5-0.3l3.5-6.9C33.2,34.1,33.1,33.8,32.8,33.7"/>
</g>
<g id="Layer_7" class="st0">
	<path class="st1" d="M18.9,28h17.7c0.1,0,0.2,0,0.4,0v0c2.9,0,5.3-2.4,5.3-5.3c0-2.9-2.4-5.3-5.3-5.3c-0.4,0-0.8,0.1-1.3,0.2
		c-0.1,0-0.3,0-0.4-0.1c-0.1-0.1-0.2-0.2-0.2-0.3c-0.6-3.7-3.8-6.5-7.5-6.5c-4.2,0-7.6,3.4-7.6,7.6c0,0.2,0,0.4,0,0.6
		c0,0.2,0,0.3-0.2,0.4c-0.1,0.1-0.3,0.2-0.4,0.1c-0.2,0-0.3,0-0.5,0c-2.3,0-4.2,1.9-4.2,4.2C14.6,26.1,16.5,28,18.9,28 M18.8,18.5
		c0,0,0-0.1,0-0.1c0-4.8,3.9-8.7,8.7-8.7c4.1,0,7.6,2.8,8.5,6.8c0.3-0.1,0.7-0.1,1-0.1c3.5,0,6.3,2.8,6.3,6.3c0,3.5-2.8,6.3-6.3,6.3
		H18.9c-2.9,0-5.2-2.4-5.2-5.2C13.6,20.9,16,18.5,18.8,18.5"/>
	<path class="st1" d="M12.5,12.9c0.3,0,0.7,0,1,0.1c0.9-4,4.3-6.8,8.5-6.8c1.8,0,3.5,0.5,5,1.6c0.2,0.2,0.3,0.5,0.1,0.7
		c-0.2,0.2-0.5,0.3-0.7,0.1c-1.3-0.9-2.8-1.4-4.4-1.4c-3.8,0-7,2.7-7.5,6.5c0,0.1-0.1,0.3-0.2,0.4c-0.1,0.1-0.3,0.1-0.4,0.1
		C13.4,14,13,14,12.5,14c-2.9,0-5.3,2.4-5.3,5.2c0,2.7,2,4.9,4.7,5.2c0.3,0,0.5,0.3,0.5,0.6c0,0.3-0.3,0.5-0.5,0.5c0,0,0,0-0.1,0
		c-3.2-0.3-5.6-3-5.6-6.2C6.3,15.8,9.1,12.9,12.5,12.9"/>
	<path class="st1" d="M18.5,33.1c-0.3,0-0.5,0.2-0.5,0.5v0.8h-0.8c-0.3,0-0.5,0.2-0.5,0.5c0,0.3,0.2,0.5,0.5,0.5H18v0.8
		c0,0.3,0.2,0.5,0.5,0.5c0.1,0,0.3-0.1,0.4-0.2c0.1-0.1,0.2-0.2,0.2-0.4l0-0.8h0.8c0.1,0,0.3-0.1,0.4-0.2c0.1-0.1,0.2-0.2,0.2-0.4
		c0-0.3-0.2-0.5-0.5-0.5H19v-0.8C19,33.4,18.8,33.1,18.5,33.1"/>
	<path class="st1" d="M28.1,33.1c-0.3,0-0.5,0.2-0.5,0.5v0.8h-0.8c-0.3,0-0.5,0.2-0.5,0.5c0,0.3,0.2,0.5,0.5,0.5h0.8v0.8
		c0,0.3,0.2,0.5,0.5,0.5c0.1,0,0.3-0.1,0.4-0.2c0.1-0.1,0.2-0.2,0.2-0.4v-0.8h0.8c0.1,0,0.3-0.1,0.4-0.2c0.1-0.1,0.2-0.2,0.2-0.4
		c0-0.3-0.2-0.5-0.5-0.5h-0.8v-0.8C28.6,33.4,28.4,33.1,28.1,33.1"/>
	<path class="st1" d="M37.7,33.1c-0.3,0-0.5,0.2-0.5,0.5v0.8h-0.8c-0.3,0-0.5,0.2-0.5,0.5c0,0.3,0.2,0.5,0.5,0.5h0.8v0.8
		c0,0.3,0.2,0.5,0.5,0.5c0.1,0,0.3-0.1,0.4-0.2c0.1-0.1,0.2-0.2,0.2-0.4v-0.8H39c0.1,0,0.3-0.1,0.4-0.2c0.1-0.1,0.2-0.2,0.2-0.4
		c0-0.3-0.2-0.5-0.5-0.5h-0.8v-0.8C38.2,33.4,38,33.1,37.7,33.1"/>
	<path class="st1" d="M13.7,39.5c-0.3,0-0.5,0.2-0.5,0.5v0.8h-0.8c-0.3,0-0.5,0.2-0.5,0.5c0,0.3,0.2,0.5,0.5,0.5h0.8v0.8
		c0,0.3,0.2,0.5,0.5,0.5c0.1,0,0.3-0.1,0.4-0.2c0.1-0.1,0.2-0.2,0.2-0.4v-0.8H15c0.1,0,0.3-0.1,0.4-0.2c0.1-0.1,0.2-0.2,0.2-0.4
		c0-0.3-0.2-0.5-0.5-0.5l-0.8,0V40C14.2,39.7,14,39.5,13.7,39.5"/>
	<path class="st1" d="M23.3,39.5c-0.3,0-0.5,0.2-0.5,0.5v0.8h-0.8c-0.3,0-0.5,0.2-0.5,0.5c0,0.3,0.2,0.5,0.5,0.5h0.8l0,0.8
		c0,0.3,0.2,0.5,0.5,0.5c0.1,0,0.3-0.1,0.4-0.2c0.1-0.1,0.2-0.2,0.2-0.4v-0.8h0.8c0.1,0,0.3-0.1,0.4-0.2c0.1-0.1,0.2-0.2,0.2-0.4
		c0-0.3-0.2-0.5-0.5-0.5l-0.8,0V40C23.8,39.7,23.6,39.5,23.3,39.5"/>
	<path class="st1" d="M32.9,39.5c-0.3,0-0.5,0.2-0.5,0.5v0.8h-0.8c-0.3,0-0.5,0.2-0.5,0.5c0,0.3,0.2,0.5,0.5,0.5h0.8v0.8
		c0,0.3,0.2,0.5,0.5,0.5c0.1,0,0.3-0.1,0.4-0.2c0.1-0.1,0.2-0.2,0.2-0.4v-0.8h0.8c0.1,0,0.3-0.1,0.4-0.2c0.1-0.1,0.2-0.2,0.2-0.4
		c0-0.3-0.2-0.5-0.5-0.5l-0.8,0V40C33.4,39.7,33.2,39.5,32.9,39.5"/>
</g>
<g id="Layer_8" class="st0">
	<path class="st1" d="M14.7,33.8h18.1c0.1,0,0.2,0,0.4,0v0c3,0,5.4-2.4,5.4-5.4c0-3-2.4-5.4-5.4-5.4c-0.4,0-0.9,0.1-1.3,0.2
		c-0.1,0-0.3,0-0.4-0.1c-0.1-0.1-0.2-0.2-0.2-0.4c-0.6-3.8-3.8-6.6-7.7-6.6c-4.3,0-7.8,3.5-7.8,7.8c0,0.2,0,0.4,0,0.6
		c0,0.2,0,0.3-0.2,0.4c-0.1,0.1-0.3,0.2-0.4,0.1c-0.2,0-0.3,0-0.5,0c-2.4,0-4.3,1.9-4.3,4.3C10.4,31.9,12.4,33.8,14.7,33.8
		 M14.7,24.1c0,0,0-0.1,0-0.1c0-4.9,4-8.9,8.9-8.9c4.2,0,7.8,2.9,8.7,6.9c0.3-0.1,0.7-0.1,1-0.1c3.5,0,6.4,2.9,6.4,6.4
		s-2.9,6.4-6.4,6.4H14.7c-3,0-5.4-2.4-5.4-5.4C9.4,26.5,11.8,24.1,14.7,24.1"/>
</g>
<g id="Layer_9" class="st0">
	<path class="st1" d="M18.7,24.2h18.2c0.1,0,0.2,0,0.4,0v0c3,0,5.4-2.4,5.4-5.4c0-3-2.4-5.4-5.4-5.4c-0.4,0-0.9,0.1-1.3,0.2
		c-0.1,0-0.3,0-0.4-0.1c-0.1-0.1-0.2-0.2-0.2-0.4c-0.6-3.8-3.9-6.6-7.7-6.6c-4.3,0-7.8,3.5-7.8,7.8c0,0.2,0,0.4,0,0.6
		c0,0.2,0,0.3-0.2,0.4c-0.1,0.1-0.3,0.2-0.4,0.1c-0.2,0-0.3,0-0.5,0c-2.4,0-4.3,1.9-4.3,4.3S16.3,24.2,18.7,24.2 M18.7,14.5
		c0,0,0-0.1,0-0.1c0-4.9,4-8.9,8.9-8.9c4.2,0,7.8,2.9,8.7,7c0.3-0.1,0.7-0.1,1-0.1c3.6,0,6.4,2.9,6.4,6.4c0,3.5-2.9,6.4-6.4,6.4
		H18.7c-3,0-5.4-2.4-5.4-5.4C13.3,16.9,15.7,14.5,18.7,14.5"/>
	<path class="st1" d="M12.2,8.8c0.3,0,0.7,0,1,0.1c0.9-4.1,4.5-7,8.7-7c1.8,0,3.6,0.6,5.1,1.6c0.2,0.2,0.3,0.5,0.1,0.7
		c-0.2,0.2-0.5,0.3-0.7,0.1C25.1,3.5,23.5,3,21.9,3c-3.9,0-7.1,2.8-7.7,6.6c0,0.1-0.1,0.3-0.2,0.4c-0.1,0.1-0.3,0.1-0.4,0.1
		c-0.4-0.1-0.9-0.2-1.3-0.2c-3,0-5.4,2.4-5.4,5.4c0,2.8,2.1,5.1,4.8,5.3c0.3,0,0.5,0.3,0.5,0.6c0,0.3-0.3,0.5-0.5,0.5c0,0,0,0-0.1,0
		c-3.3-0.3-5.8-3.1-5.8-6.4C5.8,11.7,8.7,8.8,12.2,8.8"/>
	<path class="st1" d="M19.3,27.7c-0.3-0.1-0.6,0-0.7,0.2l-3.5,6.9c-0.1,0.3,0,0.6,0.2,0.7c0.1,0,0.2,0.1,0.2,0.1
		c0.2,0,0.4-0.1,0.5-0.3l3.5-6.9C19.7,28.1,19.6,27.8,19.3,27.7"/>
	<path class="st1" d="M38.8,27.7c-0.3-0.1-0.6,0-0.7,0.2l-3.5,6.9c-0.1,0.3,0,0.6,0.2,0.7c0.1,0,0.2,0.1,0.2,0.1
		c0.2,0,0.4-0.1,0.5-0.3l3.5-6.9C39.2,28.1,39.1,27.8,38.8,27.7"/>
	<path class="st1" d="M24.5,27.4c-0.2,0-0.4,0.1-0.6,0.2c-0.2,0.1-0.3,0.3-0.3,0.5v0l-2.4,9.7v0c-0.1,0.3,0.1,0.6,0.3,0.8
		c0.2,0.1,0.4,0.2,0.6,0.2c0.1,0,0.2,0,0.2,0h0l4.1-1l-2.2,8.8c0,0,0,0,0,0c0,0.2,0,0.5,0.1,0.7c0.1,0.2,0.3,0.3,0.5,0.4h0.1
		c0.1,0,0.1,0,0.2,0c0.3,0,0.7-0.2,0.9-0.5v0l6.4-13.6c0.1-0.3,0.1-0.6-0.1-0.9c0,0,0-0.1,0-0.1l-0.1,0.1l0.1-0.1
		c-0.2-0.2-0.4-0.3-0.7-0.3c-0.1,0-0.2,0-0.2,0l-3.9,1l1.7-4.7c0,0,0,0,0,0c0-0.1,0.1-0.2,0.1-0.4c0-0.2-0.1-0.5-0.3-0.6
		c-0.2-0.2-0.4-0.3-0.7-0.3H24.5z M24.5,28.2h3.9c0.1,0,0.1,0,0.1,0c0,0,0,0,0,0.1c0,0,0,0,0,0v0l0,0l-2,5.4l-0.3,0.7l0.8-0.2
		l4.7-1.1c0,0,0.1,0,0,0c0,0,0.1,0,0.1,0c0,0,0,0,0,0c0,0,0,0,0,0.1l-6.4,13.6c0,0,0,0,0,0c0,0,0,0.1-0.1,0.1c0,0,0,0-0.1,0
		c0,0,0,0,0,0c0,0,0,0,0,0c0,0,0,0,0,0l2.3-9.5l0.2-0.7L27,36.9l-4.8,1.2h0c0,0,0,0,0,0c-0.1,0-0.1,0-0.1,0c0,0,0,0,0,0v0l2.4-9.7v0
		C24.4,28.3,24.4,28.3,24.5,28.2C24.5,28.3,24.5,28.2,24.5,28.2L24.5,28.2z M-2.3-5.9"/>
</g>
</svg>
