<?xml version="1.0" encoding="utf-8"?>
<!-- Generator: Adobe Illustrator 24.1.1, SVG Export Plug-In . SVG Version: 6.00 Build 0)  -->
<svg version="1.1" xmlns="http://www.w3.org/2000/svg" xmlns:xlink="http://www.w3.org/1999/xlink" x="0px" y="0px"
	 viewBox="0 0 50 50" style="enable-background:new 0 0 50 50;" xml:space="preserve">
<style type="text/css">
	.st0{display:none;}
	.st1{display:inline;fill:#FFFFFF;}
	.st2{fill:#FFFFFF;}
</style>
<g id="Layer_1" class="st0">
	<path class="st1" d="M24.75,32.76c-4.38,0-7.95-3.57-7.95-7.95c0-4.38,3.57-7.95,7.95-7.95c4.38,0,7.95,3.57,7.95,7.95
		C32.7,29.2,29.14,32.76,24.75,32.76 M24.75,15.74c-5,0-9.07,4.07-9.07,9.07c0,5,4.07,9.07,9.07,9.07c5,0,9.07-4.07,9.07-9.07
		C33.82,19.81,29.75,15.74,24.75,15.74"/>
	<path class="st1" d="M24.75,13.08c0.31,0,0.56-0.25,0.56-0.56V8.04c0-0.31-0.25-0.56-0.56-0.56c-0.31,0-0.56,0.25-0.56,0.56v4.48
		C24.19,12.83,24.44,13.08,24.75,13.08"/>
	<path class="st1" d="M24.75,36.41c-0.31,0-0.56,0.25-0.56,0.56v4.49c0,0.31,0.25,0.56,0.56,0.56c0.31,0,0.56-0.25,0.56-0.56v-4.49
		C25.31,36.66,25.06,36.41,24.75,36.41"/>
	<path class="st1" d="M30.89,14.83c0.09,0.06,0.2,0.09,0.29,0.09c0.19,0,0.38-0.09,0.48-0.27l2.36-3.81
		c0.16-0.27,0.08-0.61-0.18-0.77c-0.27-0.16-0.61-0.08-0.77,0.18l-2.36,3.82C30.55,14.32,30.63,14.67,30.89,14.83"/>
	<path class="st1" d="M18.61,34.67c-0.26-0.16-0.61-0.08-0.77,0.18l-2.36,3.81c-0.16,0.27-0.08,0.61,0.18,0.77
		c0.09,0.06,0.19,0.08,0.29,0.08c0.19,0,0.37-0.09,0.48-0.26l2.36-3.82C18.96,35.18,18.87,34.83,18.61,34.67"/>
	<path class="st1" d="M35.53,19.55c0.09,0,0.18-0.02,0.26-0.07l3.96-2.12c0.27-0.14,0.38-0.49,0.23-0.76
		c-0.15-0.27-0.49-0.38-0.76-0.23l-3.96,2.12c-0.27,0.15-0.38,0.49-0.23,0.76C35.14,19.45,35.33,19.55,35.53,19.55"/>
	<path class="st1" d="M13.69,30.05l-3.96,2.12c-0.27,0.15-0.38,0.48-0.23,0.76c0.1,0.19,0.29,0.3,0.5,0.3
		c0.09,0,0.18-0.02,0.26-0.07l3.96-2.12c0.28-0.15,0.38-0.49,0.24-0.76C14.31,30,13.97,29.9,13.69,30.05"/>
	<path class="st1" d="M41.47,24.16l-4.49,0.01c-0.31,0-0.56,0.25-0.56,0.56c0,0.31,0.25,0.56,0.56,0.56h0l4.48-0.02
		c0.31,0,0.56-0.25,0.56-0.56C42.03,24.41,41.78,24.16,41.47,24.16"/>
	<path class="st1" d="M13.07,24.8c0-0.31-0.25-0.56-0.56-0.56l-4.49,0.01c-0.31,0-0.56,0.25-0.56,0.56c0,0.31,0.25,0.56,0.56,0.56h0
		l4.49-0.02C12.82,25.36,13.07,25.11,13.07,24.8"/>
	<path class="st1" d="M39.7,32.28l-3.94-2.16c-0.27-0.15-0.61-0.05-0.76,0.22c-0.15,0.27-0.05,0.62,0.23,0.77l3.94,2.15
		c0.08,0.05,0.18,0.07,0.27,0.07c0.2,0,0.39-0.11,0.49-0.29C40.07,32.77,39.97,32.42,39.7,32.28"/>
	<path class="st1" d="M14.28,18.38l-3.94-2.16c-0.27-0.15-0.61-0.05-0.76,0.23c-0.15,0.27-0.05,0.61,0.22,0.76l3.94,2.15
		c0.09,0.05,0.18,0.07,0.27,0.07c0.2,0,0.39-0.11,0.5-0.29C14.65,18.87,14.55,18.53,14.28,18.38"/>
	<path class="st1" d="M31.72,34.82c-0.16-0.26-0.51-0.34-0.77-0.18c-0.26,0.16-0.34,0.51-0.18,0.77l2.38,3.8
		c0.11,0.17,0.29,0.27,0.48,0.27c0.1,0,0.2-0.03,0.3-0.09c0.27-0.16,0.34-0.51,0.18-0.77L31.72,34.82z M31.72,34.82"/>
	<path class="st1" d="M17.79,14.66c0.11,0.17,0.29,0.27,0.48,0.27c0.1,0,0.2-0.03,0.3-0.09c0.26-0.16,0.34-0.51,0.18-0.77
		l-2.38-3.81c-0.16-0.26-0.51-0.34-0.77-0.18c-0.26,0.16-0.34,0.51-0.17,0.77L17.79,14.66z M17.79,14.66"/>
	<path class="st1" d="M24.75,32.76c-4.38,0-7.95-3.57-7.95-7.95c0-4.38,3.57-7.95,7.95-7.95c4.38,0,7.95,3.57,7.95,7.95
		C32.7,29.2,29.14,32.76,24.75,32.76 M24.75,15.74c-5,0-9.07,4.07-9.07,9.07c0,5,4.07,9.07,9.07,9.07c5,0,9.07-4.07,9.07-9.07
		C33.82,19.81,29.75,15.74,24.75,15.74"/>
	<path class="st1" d="M24.75,13.08c0.31,0,0.56-0.25,0.56-0.56V8.04c0-0.31-0.25-0.56-0.56-0.56c-0.31,0-0.56,0.25-0.56,0.56v4.48
		C24.19,12.83,24.44,13.08,24.75,13.08"/>
	<path class="st1" d="M24.75,36.41c-0.31,0-0.56,0.25-0.56,0.56v4.49c0,0.31,0.25,0.56,0.56,0.56c0.31,0,0.56-0.25,0.56-0.56v-4.49
		C25.31,36.66,25.06,36.41,24.75,36.41"/>
	<path class="st1" d="M30.89,14.83c0.09,0.06,0.2,0.09,0.29,0.09c0.19,0,0.38-0.09,0.48-0.27l2.36-3.81
		c0.16-0.27,0.08-0.61-0.18-0.77c-0.27-0.16-0.61-0.08-0.77,0.18l-2.36,3.82C30.55,14.32,30.63,14.67,30.89,14.83"/>
	<path class="st1" d="M18.61,34.67c-0.26-0.16-0.61-0.08-0.77,0.18l-2.36,3.81c-0.16,0.27-0.08,0.61,0.18,0.77
		c0.09,0.06,0.19,0.08,0.29,0.08c0.19,0,0.37-0.09,0.48-0.26l2.36-3.82C18.96,35.18,18.87,34.83,18.61,34.67"/>
	<path class="st1" d="M35.53,19.55c0.09,0,0.18-0.02,0.26-0.07l3.96-2.12c0.27-0.14,0.38-0.49,0.23-0.76
		c-0.15-0.27-0.49-0.38-0.76-0.23l-3.96,2.12c-0.27,0.15-0.38,0.49-0.23,0.76C35.14,19.45,35.33,19.55,35.53,19.55"/>
	<path class="st1" d="M13.69,30.05l-3.96,2.12c-0.27,0.15-0.38,0.48-0.23,0.76c0.1,0.19,0.29,0.3,0.5,0.3
		c0.09,0,0.18-0.02,0.26-0.07l3.96-2.12c0.28-0.15,0.38-0.49,0.24-0.76C14.31,30,13.97,29.9,13.69,30.05"/>
	<path class="st1" d="M41.47,24.16l-4.49,0.01c-0.31,0-0.56,0.25-0.56,0.56c0,0.31,0.25,0.56,0.56,0.56h0l4.48-0.02
		c0.31,0,0.56-0.25,0.56-0.56C42.03,24.41,41.78,24.16,41.47,24.16"/>
	<path class="st1" d="M13.07,24.8c0-0.31-0.25-0.56-0.56-0.56l-4.49,0.01c-0.31,0-0.56,0.25-0.56,0.56c0,0.31,0.25,0.56,0.56,0.56h0
		l4.49-0.02C12.82,25.36,13.07,25.11,13.07,24.8"/>
	<path class="st1" d="M39.7,32.28l-3.94-2.16c-0.27-0.15-0.61-0.05-0.76,0.22c-0.15,0.27-0.05,0.62,0.23,0.77l3.94,2.15
		c0.08,0.05,0.18,0.07,0.27,0.07c0.2,0,0.39-0.11,0.49-0.29C40.07,32.77,39.97,32.42,39.7,32.28"/>
	<path class="st1" d="M14.28,18.38l-3.94-2.16c-0.27-0.15-0.61-0.05-0.76,0.23c-0.15,0.27-0.05,0.61,0.22,0.76l3.94,2.15
		c0.09,0.05,0.18,0.07,0.27,0.07c0.2,0,0.39-0.11,0.5-0.29C14.65,18.87,14.55,18.53,14.28,18.38"/>
	<path class="st1" d="M31.72,34.82c-0.16-0.26-0.51-0.34-0.77-0.18c-0.26,0.16-0.34,0.51-0.18,0.77l2.38,3.8
		c0.11,0.17,0.29,0.27,0.48,0.27c0.1,0,0.2-0.03,0.3-0.09c0.27-0.16,0.34-0.51,0.18-0.77L31.72,34.82z M31.72,34.82"/>
	<path class="st1" d="M17.79,14.66c0.11,0.17,0.29,0.27,0.48,0.27c0.1,0,0.2-0.03,0.3-0.09c0.26-0.16,0.34-0.51,0.18-0.77
		l-2.38-3.81c-0.16-0.26-0.51-0.34-0.77-0.18c-0.26,0.16-0.34,0.51-0.17,0.77L17.79,14.66z M17.79,14.66"/>
</g>
<g id="Layer_2">
	<path class="st2" d="M33.59,36.38c-0.26-0.13-0.58-0.03-0.71,0.24l-3.55,7.1c-0.13,0.26-0.02,0.58,0.24,0.71
		c0.07,0.04,0.16,0.06,0.23,0.06c0.19,0,0.38-0.11,0.47-0.29l3.55-7.11C33.95,36.83,33.85,36.51,33.59,36.38"/>
	<path class="st2" d="M18.98,32.37h18.13c0.12,0,0.25,0,0.36,0.01v-0.01c2.96,0,5.37-2.41,5.37-5.37c0-2.96-2.41-5.37-5.37-5.37
		c-0.42,0-0.86,0.05-1.3,0.16c-0.14,0.04-0.29,0.01-0.42-0.07c-0.13-0.09-0.21-0.21-0.23-0.36c-0.6-3.82-3.85-6.6-7.72-6.6
		c-4.31,0-7.82,3.51-7.82,7.82c0,0.21,0.01,0.42,0.03,0.63c0.01,0.16-0.05,0.31-0.16,0.42c-0.11,0.11-0.27,0.16-0.42,0.15
		c-0.16-0.02-0.32-0.03-0.48-0.03c-2.38,0-4.31,1.93-4.31,4.31C14.67,30.44,16.61,32.37,18.98,32.37 M18.96,22.69
		c0-0.04,0-0.07,0-0.11c0-4.89,3.98-8.87,8.87-8.87c4.21,0,7.76,2.89,8.65,6.95c0.34-0.06,0.68-0.08,1-0.08
		c3.54,0,6.43,2.88,6.43,6.43s-2.88,6.43-6.43,6.43H18.98c-2.96,0-5.36-2.41-5.36-5.36C13.62,25.11,16.01,22.71,18.96,22.69"/>
	<path class="st2" d="M12.52,17.02c0.33,0,0.67,0.03,1,0.08c0.89-4.05,4.44-6.94,8.65-6.94c1.83,0,3.59,0.55,5.09,1.6
		c0.24,0.17,0.29,0.5,0.13,0.74c-0.17,0.24-0.5,0.3-0.74,0.13c-1.31-0.92-2.86-1.41-4.48-1.41c-3.87,0-7.11,2.78-7.71,6.6
		c-0.02,0.15-0.1,0.28-0.23,0.36c-0.12,0.08-0.27,0.11-0.42,0.07c-0.44-0.11-0.88-0.16-1.3-0.16c-2.96,0-5.37,2.41-5.37,5.37
		c0,2.76,2.07,5.06,4.81,5.34c0.29,0.03,0.5,0.29,0.47,0.58c-0.03,0.27-0.26,0.47-0.52,0.47c-0.02,0-0.04,0-0.06,0
		C8.57,29.5,6.1,26.75,6.1,23.44C6.1,19.9,8.98,17.02,12.52,17.02"/>
</g>
</svg>
