<?xml version="1.0" encoding="utf-8"?>
<!-- Generator: Adobe Illustrator 24.1.1, SVG Export Plug-In . SVG Version: 6.00 Build 0)  -->
<svg version="1.1" xmlns="http://www.w3.org/2000/svg" xmlns:xlink="http://www.w3.org/1999/xlink" x="0px" y="0px"
	 viewBox="0 0 45.4 45.4" style="enable-background:new 0 0 45.4 45.4;" xml:space="preserve">
<style type="text/css">
	.st0{display:none;}
	.st1{display:inline;fill:#FFFFFF;}
	.st2{display:inline;fill:#404040;}
	.st3{fill:#404040;}
</style>
<g id="Layer_1" class="st0">
	<g id="sun">
		<path class="st1" d="M24.8,32.8c-4.4,0-7.9-3.6-7.9-8s3.6-7.9,7.9-7.9c4.4,0,7.9,3.6,7.9,7.9C32.7,29.2,29.1,32.8,24.8,32.8
			 M24.8,15.7c-5,0-9.1,4.1-9.1,9.1s4.1,9.1,9.1,9.1s9.1-4.1,9.1-9.1C33.8,19.8,29.8,15.7,24.8,15.7"/>
		<path class="st1" d="M24.8,13.1c0.3,0,0.6-0.2,0.6-0.6V8c0-0.3-0.3-0.6-0.6-0.6c-0.3,0-0.6,0.3-0.6,0.6v4.5
			C24.2,12.8,24.4,13.1,24.8,13.1"/>
		<path class="st1" d="M24.8,36.4c-0.3,0-0.6,0.2-0.6,0.6v4.5c0,0.3,0.3,0.6,0.6,0.6c0.3,0,0.6-0.3,0.6-0.6V37
			C25.3,36.7,25.1,36.4,24.8,36.4"/>
		<path class="st1" d="M30.9,14.8c0.1,0.1,0.2,0.1,0.3,0.1c0.2,0,0.4-0.1,0.5-0.3l2.4-3.8c0.2-0.3,0.1-0.6-0.2-0.8s-0.6-0.1-0.8,0.2
			L30.7,14C30.5,14.3,30.6,14.7,30.9,14.8"/>
		<path class="st1" d="M18.6,34.7c-0.3-0.2-0.6-0.1-0.8,0.2l-2.4,3.8c-0.2,0.3-0.1,0.6,0.2,0.8c0.1,0.1,0.2,0.1,0.3,0.1
			c0.2,0,0.4-0.1,0.5-0.3l2.4-3.8C19,35.2,18.9,34.8,18.6,34.7"/>
		<path class="st1" d="M35.5,19.6c0.1,0,0.2,0,0.3-0.1l4-2.1c0.3-0.1,0.4-0.5,0.2-0.8c-0.1-0.3-0.5-0.4-0.8-0.2l-4,2.1
			C35,18.6,34.9,19,35,19.3C35.1,19.4,35.3,19.6,35.5,19.6"/>
		<path class="st1" d="M13.7,30l-4,2.1c-0.3,0.1-0.4,0.5-0.2,0.8c0.1,0.2,0.3,0.3,0.5,0.3c0.1,0,0.2,0,0.3-0.1l4-2.1
			c0.3-0.1,0.4-0.5,0.2-0.8C14.3,30,14,29.9,13.7,30"/>
		<path class="st1" d="M41.5,24.2H37c-0.3,0-0.6,0.3-0.6,0.6c0,0.3,0.3,0.6,0.6,0.6l0,0h4.5c0.3,0,0.6-0.3,0.6-0.6
			C42,24.4,41.8,24.2,41.5,24.2"/>
		<path class="st1" d="M13.1,24.8c0-0.3-0.3-0.6-0.6-0.6H8c-0.3,0-0.6,0.3-0.6,0.6c0,0.3,0.3,0.6,0.6,0.6l0,0h4.5
			C12.8,25.4,13.1,25.1,13.1,24.8"/>
		<path class="st1" d="M39.7,32.3l-3.9-2.2c-0.3-0.1-0.6,0-0.8,0.2c-0.1,0.3,0,0.6,0.2,0.8l3.9,2.1c0.1,0.1,0.2,0.1,0.3,0.1
			c0.2,0,0.4-0.1,0.5-0.3C40.1,32.8,40,32.4,39.7,32.3"/>
		<path class="st1" d="M14.3,18.4l-3.9-2.2c-0.3-0.1-0.6,0-0.8,0.2c-0.1,0.3-0.1,0.6,0.2,0.8l3.9,2.2c0.1,0,0.2,0.1,0.3,0.1
			c0.2,0,0.4-0.1,0.5-0.3C14.7,18.9,14.6,18.5,14.3,18.4"/>
		<path class="st1" d="M31.7,34.8c-0.2-0.3-0.5-0.3-0.8-0.2c-0.3,0.2-0.3,0.5-0.2,0.8l2.4,3.8c0.1,0.2,0.3,0.3,0.5,0.3
			c0.1,0,0.2,0,0.3-0.1c0.3-0.2,0.3-0.5,0.2-0.8L31.7,34.8z"/>
		<path class="st1" d="M17.8,14.7c0.1,0.2,0.3,0.3,0.5,0.3c0.1,0,0.2,0,0.3-0.1c0.3-0.2,0.3-0.5,0.2-0.8l-2.4-3.8
			c-0.2-0.3-0.5-0.3-0.8-0.2c-0.3,0.2-0.3,0.5-0.2,0.8L17.8,14.7z"/>
		<path class="st1" d="M24.8,32.8c-4.4,0-7.9-3.6-7.9-8s3.6-7.9,7.9-7.9c4.4,0,7.9,3.6,7.9,7.9C32.7,29.2,29.1,32.8,24.8,32.8
			 M24.8,15.7c-5,0-9.1,4.1-9.1,9.1s4.1,9.1,9.1,9.1s9.1-4.1,9.1-9.1C33.8,19.8,29.8,15.7,24.8,15.7"/>
		<path class="st1" d="M24.8,13.1c0.3,0,0.6-0.2,0.6-0.6V8c0-0.3-0.3-0.6-0.6-0.6c-0.3,0-0.6,0.3-0.6,0.6v4.5
			C24.2,12.8,24.4,13.1,24.8,13.1"/>
		<path class="st1" d="M24.8,36.4c-0.3,0-0.6,0.2-0.6,0.6v4.5c0,0.3,0.3,0.6,0.6,0.6c0.3,0,0.6-0.3,0.6-0.6V37
			C25.3,36.7,25.1,36.4,24.8,36.4"/>
		<path class="st1" d="M30.9,14.8c0.1,0.1,0.2,0.1,0.3,0.1c0.2,0,0.4-0.1,0.5-0.3l2.4-3.8c0.2-0.3,0.1-0.6-0.2-0.8s-0.6-0.1-0.8,0.2
			L30.7,14C30.5,14.3,30.6,14.7,30.9,14.8"/>
		<path class="st1" d="M18.6,34.7c-0.3-0.2-0.6-0.1-0.8,0.2l-2.4,3.8c-0.2,0.3-0.1,0.6,0.2,0.8c0.1,0.1,0.2,0.1,0.3,0.1
			c0.2,0,0.4-0.1,0.5-0.3l2.4-3.8C19,35.2,18.9,34.8,18.6,34.7"/>
		<path class="st1" d="M35.5,19.6c0.1,0,0.2,0,0.3-0.1l4-2.1c0.3-0.1,0.4-0.5,0.2-0.8c-0.1-0.3-0.5-0.4-0.8-0.2l-4,2.1
			C35,18.6,34.9,19,35,19.3C35.1,19.4,35.3,19.6,35.5,19.6"/>
		<path class="st1" d="M13.7,30l-4,2.1c-0.3,0.1-0.4,0.5-0.2,0.8c0.1,0.2,0.3,0.3,0.5,0.3c0.1,0,0.2,0,0.3-0.1l4-2.1
			c0.3-0.1,0.4-0.5,0.2-0.8C14.3,30,14,29.9,13.7,30"/>
		<path class="st1" d="M41.5,24.2H37c-0.3,0-0.6,0.3-0.6,0.6c0,0.3,0.3,0.6,0.6,0.6l0,0h4.5c0.3,0,0.6-0.3,0.6-0.6
			C42,24.4,41.8,24.2,41.5,24.2"/>
		<path class="st1" d="M13.1,24.8c0-0.3-0.3-0.6-0.6-0.6H8c-0.3,0-0.6,0.3-0.6,0.6c0,0.3,0.3,0.6,0.6,0.6l0,0h4.5
			C12.8,25.4,13.1,25.1,13.1,24.8"/>
		<path class="st1" d="M39.7,32.3l-3.9-2.2c-0.3-0.1-0.6,0-0.8,0.2c-0.1,0.3,0,0.6,0.2,0.8l3.9,2.1c0.1,0.1,0.2,0.1,0.3,0.1
			c0.2,0,0.4-0.1,0.5-0.3C40.1,32.8,40,32.4,39.7,32.3"/>
		<path class="st1" d="M14.3,18.4l-3.9-2.2c-0.3-0.1-0.6,0-0.8,0.2c-0.1,0.3-0.1,0.6,0.2,0.8l3.9,2.2c0.1,0,0.2,0.1,0.3,0.1
			c0.2,0,0.4-0.1,0.5-0.3C14.7,18.9,14.6,18.5,14.3,18.4"/>
		<path class="st1" d="M31.7,34.8c-0.2-0.3-0.5-0.3-0.8-0.2c-0.3,0.2-0.3,0.5-0.2,0.8l2.4,3.8c0.1,0.2,0.3,0.3,0.5,0.3
			c0.1,0,0.2,0,0.3-0.1c0.3-0.2,0.3-0.5,0.2-0.8L31.7,34.8z"/>
		<path class="st1" d="M17.8,14.7c0.1,0.2,0.3,0.3,0.5,0.3c0.1,0,0.2,0,0.3-0.1c0.3-0.2,0.3-0.5,0.2-0.8l-2.4-3.8
			c-0.2-0.3-0.5-0.3-0.8-0.2c-0.3,0.2-0.3,0.5-0.2,0.8L17.8,14.7z"/>
	</g>
	<g id="sun_cloud">
		<path class="st1" d="M21.7,38.6h16.6c0.1,0,0.2,0,0.3,0l0,0c2.7,0,4.9-2.2,4.9-4.9s-2.2-4.9-4.9-4.9c-0.4,0-0.8,0-1.2,0.1
			c-0.1,0-0.3,0-0.4-0.1c-0.1-0.1-0.2-0.2-0.2-0.3c-0.5-3.5-3.5-6-7-6c-3.9,0-7.1,3.2-7.1,7.1c0,0.2,0,0.4,0,0.6
			c0,0.1,0,0.3-0.1,0.4s-0.2,0.1-0.4,0.1c-0.1,0-0.3,0-0.4,0c-2.2,0-3.9,1.8-3.9,3.9C17.8,36.8,19.6,38.6,21.7,38.6 M21.7,29.8v-0.1
			c0-4.5,3.6-8.1,8.1-8.1c3.8,0,7.1,2.6,7.9,6.3c0.3-0.1,0.6-0.1,0.9-0.1c3.2,0,5.9,2.6,5.9,5.9s-2.6,5.9-5.9,5.9l0,0
			c-0.1,0-1.9,0-4.4,0H21.7c-2.7,0-4.9-2.2-4.9-4.9C16.8,32,19,29.8,21.7,29.8"/>
		<path class="st1" d="M12.1,24.9c0-4.3,3.5-7.8,7.8-7.8c2.6,0,4.9,1.1,6.3,3.3c0.1,0.2,0.1,0.5-0.1,0.7c-0.2,0.1-0.5,0.1-0.7-0.1
			c-1.3-1.9-3.2-2.9-5.5-2.9c-3.8,0-6.8,3.1-6.8,6.8c0,2.3,1.2,4.5,3.1,5.7c0.2,0.1,0.3,0.4,0.1,0.7c-0.1,0.1-0.2,0.2-0.4,0.2
			c-0.1,0-0.2,0-0.3-0.1C13.5,30,12.1,27.6,12.1,24.9"/>
		<path class="st1" d="M19.8,14.7c-0.3,0-0.5-0.2-0.5-0.5v-3.9c0-0.3,0.2-0.5,0.5-0.5s0.5,0.2,0.5,0.5v3.9
			C20.3,14.5,20.1,14.7,19.8,14.7"/>
		<path class="st1" d="M14.5,16.2c-0.1,0-0.2,0.1-0.3,0.1c-0.2,0-0.3-0.1-0.4-0.2l-2-3.3c-0.1-0.2-0.1-0.5,0.2-0.7
			c0.2-0.1,0.5-0.1,0.7,0.2l2,3.3C14.8,15.8,14.8,16.1,14.5,16.2"/>
		<path class="st1" d="M10.6,20.3c-0.1,0-0.2,0-0.2-0.1L7,18.4c-0.2-0.1-0.3-0.4-0.2-0.7c0.1-0.2,0.4-0.3,0.7-0.2l3.4,1.8
			c0.2,0.1,0.3,0.4,0.2,0.7C10.9,20.2,10.7,20.3,10.6,20.3"/>
		<path class="st1" d="M5.5,24.2L5.5,24.2h3.9c0.3,0,0.5,0.2,0.5,0.5s-0.2,0.5-0.5,0.5H5.5C5.2,25.2,5,25,5,24.7
			C5,24.5,5.2,24.2,5.5,24.2"/>
		<path class="st1" d="M7,31.2l3.4-1.8c0.2-0.1,0.5,0,0.7,0.2c0.1,0.2,0,0.5-0.2,0.7l-3.4,1.8c-0.1,0-0.2,0.1-0.2,0.1
			c-0.2,0-0.3-0.1-0.4-0.3C6.7,31.6,6.8,31.3,7,31.2"/>
		<path class="st1" d="M32.7,18.3l-3.4,1.8c-0.1,0-0.2,0.1-0.2,0.1c-0.2,0-0.3-0.1-0.4-0.3c-0.1-0.2,0-0.5,0.2-0.7l3.4-1.8
			c0.2-0.1,0.5,0,0.7,0.2C33,17.9,32.9,18.2,32.7,18.3"/>
		<path class="st1" d="M13.8,33.4c0.1-0.2,0.4-0.3,0.7-0.2c0.2,0.1,0.3,0.4,0.2,0.7l-2,3.3c-0.1,0.1-0.2,0.2-0.4,0.2
			c-0.1,0-0.2,0-0.3-0.1c-0.2-0.1-0.3-0.4-0.2-0.7L13.8,33.4z"/>
		<path class="st1" d="M25.8,16.1c-0.1,0.1-0.2,0.2-0.4,0.2c-0.1,0-0.2,0-0.3-0.1c-0.2-0.1-0.3-0.4-0.2-0.7l2-3.3
			c0.1-0.2,0.4-0.3,0.7-0.2c0.2,0.1,0.3,0.4,0.2,0.7L25.8,16.1z"/>
	</g>
	<g id="sun_light_rain">
		<path class="st1" d="M22,33.2h14.9c0.1,0,0.2,0,0.3,0l0,0c2.4,0,4.4-2,4.4-4.4s-2-4.4-4.4-4.4c-0.3,0-0.7,0-1.1,0.1
			c-0.1,0-0.2,0-0.3-0.1s-0.2-0.2-0.2-0.3c-0.5-3.1-3.1-5.4-6.3-5.4c-3.5,0-6.4,2.9-6.4,6.4c0,0.2,0,0.3,0,0.5c0,0.1,0,0.3-0.1,0.3
			C22.7,26,22.6,26,22.5,26s-0.3,0-0.4,0c-1.9,0-3.5,1.6-3.5,3.5C18.5,31.6,20.1,33.2,22,33.2 M22,25.3L22,25.3
			c0-4.1,3.3-7.4,7.3-7.4c3.4,0,6.4,2.4,7.1,5.7c0.3,0,0.6-0.1,0.8-0.1c2.9,0,5.3,2.4,5.3,5.3s-2.4,5.3-5.3,5.3H22
			c-2.4,0-4.4-2-4.4-4.4S19.6,25.3,22,25.3"/>
		<path class="st1" d="M13.4,20.9c0-3.9,3.1-7,7-7c2.4,0,4.4,1,5.7,3c0.1,0.2,0.1,0.5-0.1,0.6s-0.5,0.1-0.6-0.1
			c-1.1-1.7-2.9-2.6-5-2.6c-3.4,0-6.1,2.7-6.1,6.1c0,2.1,1,4,2.8,5.1c0.2,0.1,0.3,0.4,0.1,0.6c-0.1,0.1-0.2,0.2-0.4,0.2
			c-0.1,0-0.2,0-0.2-0.1C14.6,25.5,13.4,23.3,13.4,20.9"/>
		<path class="st1" d="M20.3,11.8c-0.2,0-0.4-0.2-0.4-0.4V7.9c0-0.2,0.2-0.4,0.4-0.4c0.2,0,0.4,0.2,0.4,0.4v3.5
			C20.8,11.6,20.6,11.8,20.3,11.8"/>
		<path class="st1" d="M15.6,13.1c-0.1,0-0.1,0.1-0.2,0.1c-0.1,0-0.3-0.1-0.4-0.2l-1.8-2.9c-0.1-0.2-0.1-0.5,0.1-0.6
			c0.2-0.1,0.5-0.1,0.6,0.1l1.8,2.9C15.9,12.8,15.8,13,15.6,13.1"/>
		<path class="st1" d="M12,16.8c-0.1,0-0.1,0-0.2-0.1l-3-1.6c-0.2-0.1-0.3-0.4-0.2-0.6c0.1-0.2,0.4-0.3,0.6-0.2l3,1.6
			c0.2,0.1,0.3,0.4,0.2,0.6C12.3,16.7,12.2,16.8,12,16.8"/>
		<path class="st1" d="M7.4,20.3L7.4,20.3h3.5c0.2,0,0.4,0.2,0.4,0.4c0,0.2-0.2,0.4-0.4,0.4l0,0H7.4C7.2,21.2,7,21,7,20.8
			C7,20.5,7.2,20.3,7.4,20.3"/>
		<path class="st1" d="M8.8,26.6l3-1.7c0.2-0.1,0.5,0,0.6,0.2s0,0.5-0.2,0.6l-3,1.7c-0.1,0-0.1,0.1-0.2,0.1c-0.2,0-0.3-0.1-0.4-0.2
			C8.5,27,8.6,26.7,8.8,26.6"/>
		<path class="st1" d="M31.8,15l-3,1.7c-0.1,0-0.1,0.1-0.2,0.1c-0.2,0-0.3-0.1-0.4-0.2c-0.1-0.2,0-0.5,0.2-0.6l3-1.7
			c0.2-0.1,0.5,0,0.6,0.2C32.1,14.6,32.1,14.9,31.8,15"/>
		<path class="st1" d="M15,28.6c0.1-0.2,0.4-0.3,0.6-0.1c0.2,0.1,0.3,0.4,0.1,0.6L13.9,32c-0.1,0.1-0.2,0.2-0.4,0.2
			c-0.1,0-0.2,0-0.2-0.1c-0.2-0.1-0.3-0.4-0.1-0.6L15,28.6z"/>
		<path class="st1" d="M25.7,13c-0.1,0.1-0.2,0.2-0.4,0.2c-0.1,0-0.2,0-0.2-0.1c-0.2-0.1-0.3-0.4-0.1-0.6l1.8-2.9
			c0.1-0.2,0.4-0.3,0.6-0.1c0.2,0.1,0.3,0.4,0.1,0.6L25.7,13z"/>
		<path class="st1" d="M33.2,38c-0.2-0.1-0.5,0-0.6,0.2L31,41.4c-0.1,0.2,0,0.5,0.2,0.6c0.1,0,0.1,0,0.2,0c0.2,0,0.3-0.1,0.4-0.2
			l1.6-3.2C33.5,38.4,33.4,38.1,33.2,38"/>
		<path class="st1" d="M25.2,38c-0.2-0.1-0.5,0-0.6,0.2L23,41.4c-0.1,0.2,0,0.5,0.2,0.6c0.1,0,0.1,0,0.2,0c0.2,0,0.3-0.1,0.4-0.2
			l1.6-3.2C25.5,38.4,25.4,38.1,25.2,38"/>
	</g>
	<g id="sun_heavy_rain">
		<path class="st1" d="M24.4,37.5c-0.2-0.1-0.5,0-0.6,0.2l-1.6,3.2c-0.1,0.2,0,0.5,0.2,0.6c0.1,0,0.1,0,0.2,0c0.2,0,0.3-0.1,0.4-0.2
			l1.6-3.2C24.7,37.9,24.6,37.6,24.4,37.5"/>
		<path class="st1" d="M30,37.5c-0.2-0.1-0.5,0-0.6,0.2l-1.6,3.2c-0.1,0.2,0,0.5,0.2,0.6c0.1,0,0.1,0,0.2,0c0.2,0,0.3-0.1,0.4-0.2
			l1.6-3.2C30.4,37.9,30.3,37.6,30,37.5"/>
		<path class="st1" d="M35.7,37.5c-0.2-0.1-0.5,0-0.6,0.2l-1.6,3.2c-0.1,0.2,0,0.5,0.2,0.6c0.1,0,0.1,0,0.2,0c0.2,0,0.3-0.1,0.4-0.2
			l1.6-3.2C36,37.9,35.9,37.6,35.7,37.5"/>
		<path class="st1" d="M22,34.4h15.3c0.1,0,0.2,0,0.3,0l0,0c2.5,0,4.5-2,4.5-4.5s-2-4.5-4.5-4.5c-0.4,0-0.7,0-1.1,0.1
			c-0.1,0-0.3,0-0.4-0.1c-0.1-0.1-0.2-0.2-0.2-0.3c-0.5-3.2-3.2-5.6-6.5-5.6c-3.6,0-6.6,3-6.6,6.6c0,0.2,0,0.4,0,0.5s0,0.3-0.1,0.4
			s-0.2,0.1-0.4,0.1c-0.1,0-0.3,0-0.4,0c-2,0-3.6,1.6-3.6,3.6C18.3,32.8,20,34.4,22,34.4 M21.9,26.3L21.9,26.3
			c0-4.2,3.4-7.6,7.5-7.6c3.5,0,6.5,2.4,7.3,5.9c0.3,0,0.6-0.1,0.8-0.1c3,0,5.4,2.4,5.4,5.4s-2.4,5.4-5.4,5.4H22
			c-2.5,0-4.5-2-4.5-4.5C17.4,28.3,19.5,26.3,21.9,26.3"/>
		<path class="st1" d="M13.1,21.8c0-4,3.2-7.2,7.2-7.2c2.4,0,4.5,1,5.8,3.1c0.1,0.2,0.1,0.5-0.1,0.6s-0.5,0.1-0.6-0.1
			c-1.2-1.8-3-2.7-5.1-2.7c-3.5,0-6.3,2.8-6.3,6.3c0,2.1,1.1,4.1,2.9,5.3c0.2,0.1,0.3,0.4,0.1,0.6c-0.1,0.1-0.2,0.2-0.4,0.2
			c-0.1,0-0.2,0-0.2-0.1C14.4,26.5,13.1,24.2,13.1,21.8"/>
		<path class="st1" d="M20.2,12.4c-0.2,0-0.4-0.2-0.4-0.4V8.4C19.8,8.2,20,8,20.2,8s0.4,0.2,0.4,0.4V12
			C20.6,12.2,20.4,12.4,20.2,12.4"/>
		<path class="st1" d="M15.3,13.8c-0.1,0-0.2,0.1-0.2,0.1c-0.2,0-0.3-0.1-0.4-0.2l-1.9-3c-0.1-0.2-0.1-0.5,0.1-0.6
			c0.2-0.1,0.5-0.1,0.6,0.1l1.9,3C15.6,13.4,15.5,13.7,15.3,13.8"/>
		<path class="st1" d="M11.7,17.5c-0.1,0-0.1,0-0.2-0.1l-3.1-1.7c-0.2-0.1-0.3-0.4-0.2-0.6C8.3,15,8.5,14.9,8.7,15l3.1,1.7
			c0.2,0.1,0.3,0.4,0.2,0.6C12,17.5,11.8,17.5,11.7,17.5"/>
		<path class="st1" d="M7,21.2L7,21.2h3.6c0.2,0,0.4,0.2,0.4,0.4c0,0.2-0.2,0.4-0.4,0.4H7c-0.2,0-0.4-0.2-0.4-0.4
			C6.5,21.4,6.7,21.2,7,21.2"/>
		<path class="st1" d="M8.4,27.6l3.1-1.7c0.2-0.1,0.5,0,0.6,0.2s0,0.5-0.2,0.6l-3.1,1.7c-0.1,0-0.1,0.1-0.2,0.1
			c-0.2,0-0.3-0.1-0.4-0.2C8.1,28,8.2,27.7,8.4,27.6"/>
		<path class="st1" d="M32,15.7l-3.1,1.7c-0.1,0-0.1,0.1-0.2,0.1c-0.2,0-0.3-0.1-0.4-0.2c-0.1-0.2,0-0.5,0.2-0.6l3.1-1.7
			c0.2-0.1,0.5,0,0.6,0.2C32.3,15.3,32.3,15.6,32,15.7"/>
		<path class="st1" d="M14.7,29.6c0.1-0.2,0.4-0.3,0.6-0.1c0.2,0.1,0.3,0.4,0.1,0.6l-1.9,3c-0.1,0.1-0.2,0.2-0.4,0.2
			c-0.1,0-0.2,0-0.2-0.1c-0.2-0.1-0.3-0.4-0.1-0.6L14.7,29.6z"/>
		<path class="st1" d="M25.7,13.7c-0.1,0.1-0.2,0.2-0.4,0.2c-0.1,0-0.2,0-0.2-0.1c-0.2-0.1-0.3-0.4-0.1-0.6l1.9-3
			C27,10,27.2,9.9,27.5,10c0.2,0.1,0.3,0.4,0.1,0.6L25.7,13.7z"/>
	</g>
	<g id="light_rain">
		<path class="st1" d="M33.3,33.8c-0.3-0.1-0.6,0-0.7,0.2L29,41.1c-0.1,0.3,0,0.6,0.2,0.7c0.1,0,0.2,0.1,0.2,0.1
			c0.2,0,0.4-0.1,0.5-0.3l3.6-7.1C33.7,34.3,33.6,33.9,33.3,33.8"/>
		<path class="st1" d="M18.7,29.8h18.1c0.1,0,0.2,0,0.4,0l0,0c3,0,5.4-2.4,5.4-5.4S40.2,19,37.2,19c-0.4,0-0.9,0.1-1.3,0.2
			c-0.1,0-0.3,0-0.4-0.1c-0.1-0.1-0.2-0.2-0.2-0.4c-0.6-3.8-3.8-6.6-7.7-6.6c-4.3,0-7.8,3.5-7.8,7.8c0,0.2,0,0.4,0,0.6
			s0,0.3-0.2,0.4c-0.1,0.1-0.3,0.2-0.4,0.1c-0.2,0-0.3,0-0.5,0c-2.4,0-4.3,1.9-4.3,4.3C14.4,27.9,16.4,29.8,18.7,29.8 M18.7,20.1V20
			c0-4.9,4-8.9,8.9-8.9c4.2,0,7.8,2.9,8.7,6.9c0.3-0.1,0.7-0.1,1-0.1c3.5,0,6.4,2.9,6.4,6.4s-2.9,6.4-6.4,6.4H18.7
			c-3,0-5.4-2.4-5.4-5.4C13.4,22.5,15.8,20.1,18.7,20.1"/>
		<path class="st1" d="M12.3,14.4c0.3,0,0.7,0,1,0.1c0.9-4.1,4.4-6.9,8.7-6.9c1.8,0,3.6,0.6,5.1,1.6c0.2,0.2,0.3,0.5,0.1,0.7
			c-0.2,0.2-0.5,0.3-0.7,0.1c-1.3-0.9-2.9-1.4-4.5-1.4c-3.9,0-7.1,2.8-7.7,6.6c0,0.1-0.1,0.3-0.2,0.4c-0.1,0.1-0.3,0.1-0.4,0.1
			c-0.4-0.1-0.9-0.2-1.3-0.2c-3,0-5.4,2.4-5.4,5.4c0,2.8,2.1,5.1,4.8,5.3c0.3,0,0.5,0.3,0.5,0.6c0,0.3-0.3,0.5-0.5,0.5
			c0,0,0,0-0.1,0c-3.3-0.3-5.8-3.1-5.8-6.4C5.8,17.3,8.7,14.4,12.3,14.4"/>
	</g>
	<g id="rain">
		<path class="st1" d="M18.7,30.2h18.2c0.1,0,0.2,0,0.4,0l0,0c3,0,5.4-2.4,5.4-5.4s-2.4-5.4-5.4-5.4c-0.4,0-0.9,0.1-1.3,0.2
			c-0.1,0-0.3,0-0.4-0.1c-0.1-0.1-0.2-0.2-0.2-0.4c-0.6-3.8-3.9-6.6-7.7-6.6c-4.3,0-7.8,3.5-7.8,7.8c0,0.2,0,0.4,0,0.6
			s0,0.3-0.2,0.4c-0.1,0.1-0.3,0.2-0.4,0.1c-0.2,0-0.3,0-0.5,0c-2.4,0-4.3,1.9-4.3,4.3S16.3,30.2,18.7,30.2 M18.7,20.5v-0.1
			c0-4.9,4-8.9,8.9-8.9c4.2,0,7.8,2.9,8.7,7c0.3-0.1,0.7-0.1,1-0.1c3.6,0,6.4,2.9,6.4,6.4s-2.9,6.4-6.4,6.4H18.7
			c-3,0-5.4-2.4-5.4-5.4C13.3,22.9,15.7,20.5,18.7,20.5"/>
		<path class="st1" d="M12.2,14.8c0.3,0,0.7,0,1,0.1c0.9-4.1,4.5-7,8.7-7c1.8,0,3.6,0.6,5.1,1.6c0.2,0.2,0.3,0.5,0.1,0.7
			c-0.2,0.2-0.5,0.3-0.7,0.1C25.1,9.5,23.5,9,21.9,9c-3.9,0-7.1,2.8-7.7,6.6c0,0.1-0.1,0.3-0.2,0.4c-0.1,0.1-0.3,0.1-0.4,0.1
			c-0.4-0.1-0.9-0.2-1.3-0.2c-3,0-5.4,2.4-5.4,5.4c0,2.8,2.1,5.1,4.8,5.3c0.3,0,0.5,0.3,0.5,0.6c0,0.3-0.3,0.5-0.5,0.5
			c0,0,0,0-0.1,0c-3.3-0.3-5.8-3.1-5.8-6.4C5.8,17.7,8.7,14.8,12.2,14.8"/>
		<path class="st1" d="M21.3,33.7c-0.3-0.1-0.6,0-0.7,0.2l-3.5,6.9c-0.1,0.3,0,0.6,0.2,0.7c0.1,0,0.2,0.1,0.2,0.1
			c0.2,0,0.4-0.1,0.5-0.3l3.5-6.9C21.7,34.1,21.6,33.8,21.3,33.7"/>
		<path class="st1" d="M27.1,33.7c-0.3-0.1-0.6,0-0.7,0.2l-3.5,6.9c-0.1,0.3,0,0.6,0.2,0.7c0.1,0,0.2,0.1,0.2,0.1
			c0.2,0,0.4-0.1,0.5-0.3l3.5-6.9C27.4,34.1,27.3,33.8,27.1,33.7"/>
		<path class="st1" d="M32.8,33.7c-0.3-0.1-0.6,0-0.7,0.2l-3.5,6.9c-0.1,0.3,0,0.6,0.2,0.7c0.1,0,0.2,0.1,0.2,0.1
			c0.2,0,0.4-0.1,0.5-0.3l3.5-6.9C33.2,34.1,33.1,33.8,32.8,33.7"/>
	</g>
	<g id="Layer_7">
		<path class="st1" d="M18.9,28h17.7c0.1,0,0.2,0,0.4,0l0,0c2.9,0,5.3-2.4,5.3-5.3s-2.4-5.3-5.3-5.3c-0.4,0-0.8,0.1-1.3,0.2
			c-0.1,0-0.3,0-0.4-0.1c-0.1-0.1-0.2-0.2-0.2-0.3c-0.6-3.7-3.8-6.5-7.5-6.5c-4.2,0-7.6,3.4-7.6,7.6c0,0.2,0,0.4,0,0.6
			s0,0.3-0.2,0.4c-0.1,0.1-0.3,0.2-0.4,0.1c-0.2,0-0.3,0-0.5,0c-2.3,0-4.2,1.9-4.2,4.2C14.6,26.1,16.5,28,18.9,28 M18.8,18.5v-0.1
			c0-4.8,3.9-8.7,8.7-8.7c4.1,0,7.6,2.8,8.5,6.8c0.3-0.1,0.7-0.1,1-0.1c3.5,0,6.3,2.8,6.3,6.3S40.5,29,37,29H18.9
			c-2.9,0-5.2-2.4-5.2-5.2C13.6,20.9,16,18.5,18.8,18.5"/>
		<path class="st1" d="M12.5,12.9c0.3,0,0.7,0,1,0.1c0.9-4,4.3-6.8,8.5-6.8c1.8,0,3.5,0.5,5,1.6c0.2,0.2,0.3,0.5,0.1,0.7
			c-0.2,0.2-0.5,0.3-0.7,0.1c-1.3-0.9-2.8-1.4-4.4-1.4c-3.8,0-7,2.7-7.5,6.5c0,0.1-0.1,0.3-0.2,0.4c-0.1,0.1-0.3,0.1-0.4,0.1
			C13.4,14,13,14,12.5,14c-2.9,0-5.3,2.4-5.3,5.2c0,2.7,2,4.9,4.7,5.2c0.3,0,0.5,0.3,0.5,0.6c0,0.3-0.3,0.5-0.5,0.5c0,0,0,0-0.1,0
			c-3.2-0.3-5.6-3-5.6-6.2C6.3,15.8,9.1,12.9,12.5,12.9"/>
		<path class="st1" d="M18.5,33.1c-0.3,0-0.5,0.2-0.5,0.5v0.8h-0.8c-0.3,0-0.5,0.2-0.5,0.5s0.2,0.5,0.5,0.5H18v0.8
			c0,0.3,0.2,0.5,0.5,0.5c0.1,0,0.3-0.1,0.4-0.2c0.1-0.1,0.2-0.2,0.2-0.4v-0.8h0.8c0.1,0,0.3-0.1,0.4-0.2c0.1-0.1,0.2-0.2,0.2-0.4
			c0-0.3-0.2-0.5-0.5-0.5h-1v-0.8C19,33.4,18.8,33.1,18.5,33.1"/>
		<path class="st1" d="M28.1,33.1c-0.3,0-0.5,0.2-0.5,0.5v0.8h-0.8c-0.3,0-0.5,0.2-0.5,0.5s0.2,0.5,0.5,0.5h0.8v0.8
			c0,0.3,0.2,0.5,0.5,0.5c0.1,0,0.3-0.1,0.4-0.2c0.1-0.1,0.2-0.2,0.2-0.4v-0.8h0.8c0.1,0,0.3-0.1,0.4-0.2c0.1-0.1,0.2-0.2,0.2-0.4
			c0-0.3-0.2-0.5-0.5-0.5h-0.8v-0.8C28.6,33.4,28.4,33.1,28.1,33.1"/>
		<path class="st1" d="M37.7,33.1c-0.3,0-0.5,0.2-0.5,0.5v0.8h-0.8c-0.3,0-0.5,0.2-0.5,0.5s0.2,0.5,0.5,0.5h0.8v0.8
			c0,0.3,0.2,0.5,0.5,0.5c0.1,0,0.3-0.1,0.4-0.2c0.1-0.1,0.2-0.2,0.2-0.4v-0.8H39c0.1,0,0.3-0.1,0.4-0.2c0.1-0.1,0.2-0.2,0.2-0.4
			c0-0.3-0.2-0.5-0.5-0.5h-0.8v-0.8C38.2,33.4,38,33.1,37.7,33.1"/>
		<path class="st1" d="M13.7,39.5c-0.3,0-0.5,0.2-0.5,0.5v0.8h-0.8c-0.3,0-0.5,0.2-0.5,0.5s0.2,0.5,0.5,0.5h0.8v0.8
			c0,0.3,0.2,0.5,0.5,0.5c0.1,0,0.3-0.1,0.4-0.2c0.1-0.1,0.2-0.2,0.2-0.4v-0.8H15c0.1,0,0.3-0.1,0.4-0.2c0.1-0.1,0.2-0.2,0.2-0.4
			c0-0.3-0.2-0.5-0.5-0.5h-0.8V40C14.2,39.7,14,39.5,13.7,39.5"/>
		<path class="st1" d="M23.3,39.5c-0.3,0-0.5,0.2-0.5,0.5v0.8H22c-0.3,0-0.5,0.2-0.5,0.5s0.2,0.5,0.5,0.5h0.8v0.8
			c0,0.3,0.2,0.5,0.5,0.5c0.1,0,0.3-0.1,0.4-0.2c0.1-0.1,0.2-0.2,0.2-0.4v-0.8h0.8c0.1,0,0.3-0.1,0.4-0.2c0.1-0.1,0.2-0.2,0.2-0.4
			c0-0.3-0.2-0.5-0.5-0.5H24V40C23.8,39.7,23.6,39.5,23.3,39.5"/>
		<path class="st1" d="M32.9,39.5c-0.3,0-0.5,0.2-0.5,0.5v0.8h-0.8c-0.3,0-0.5,0.2-0.5,0.5s0.2,0.5,0.5,0.5h0.8v0.8
			c0,0.3,0.2,0.5,0.5,0.5c0.1,0,0.3-0.1,0.4-0.2c0.1-0.1,0.2-0.2,0.2-0.4v-0.8h0.8c0.1,0,0.3-0.1,0.4-0.2c0.1-0.1,0.2-0.2,0.2-0.4
			c0-0.3-0.2-0.5-0.5-0.5h-0.8V40C33.4,39.7,33.2,39.5,32.9,39.5"/>
	</g>
	<path class="st2" d="M22.7,30.7c-4.4,0-7.9-3.6-7.9-8c0-4.4,3.6-7.9,7.9-7.9c4.4,0,7.9,3.6,7.9,7.9C30.7,27.2,27.1,30.7,22.7,30.7
		 M22.7,13.7c-5,0-9.1,4.1-9.1,9.1c0,5,4.1,9.1,9.1,9.1c5,0,9.1-4.1,9.1-9.1C31.8,17.8,27.7,13.7,22.7,13.7"/>
	<path class="st2" d="M22.7,11c0.3,0,0.6-0.2,0.6-0.6V6c0-0.3-0.3-0.6-0.6-0.6c-0.3,0-0.6,0.3-0.6,0.6v4.5
		C22.1,10.8,22.4,11,22.7,11"/>
	<path class="st2" d="M22.7,34.4c-0.3,0-0.6,0.2-0.6,0.6v4.5c0,0.3,0.3,0.6,0.6,0.6c0.3,0,0.6-0.3,0.6-0.6v-4.5
		C23.3,34.6,23,34.4,22.7,34.4"/>
	<path class="st2" d="M28.8,12.8c0.1,0.1,0.2,0.1,0.3,0.1c0.2,0,0.4-0.1,0.5-0.3L32,8.8c0.2-0.3,0.1-0.6-0.2-0.8
		c-0.3-0.2-0.6-0.1-0.8,0.2L28.7,12C28.5,12.3,28.6,12.6,28.8,12.8"/>
	<path class="st2" d="M16.6,32.6c-0.3-0.2-0.6-0.1-0.8,0.2l-2.4,3.8c-0.2,0.3-0.1,0.6,0.2,0.8c0.1,0.1,0.2,0.1,0.3,0.1
		c0.2,0,0.4-0.1,0.5-0.3l2.4-3.8C16.9,33.1,16.8,32.8,16.6,32.6"/>
	<path class="st2" d="M33.5,17.5c0.1,0,0.2,0,0.3-0.1l4-2.1c0.3-0.1,0.4-0.5,0.2-0.8c-0.1-0.3-0.5-0.4-0.8-0.2l-4,2.1
		c-0.3,0.1-0.4,0.5-0.2,0.8C33.1,17.4,33.3,17.5,33.5,17.5"/>
	<path class="st2" d="M11.6,28l-4,2.1c-0.3,0.1-0.4,0.5-0.2,0.8c0.1,0.2,0.3,0.3,0.5,0.3c0.1,0,0.2,0,0.3-0.1l4-2.1
		c0.3-0.1,0.4-0.5,0.2-0.8C12.3,28,11.9,27.9,11.6,28"/>
	<path class="st2" d="M39.4,22.1l-4.5,0c-0.3,0-0.6,0.3-0.6,0.6c0,0.3,0.3,0.6,0.6,0.6h0l4.5,0c0.3,0,0.6-0.3,0.6-0.6
		C40,22.4,39.7,22.1,39.4,22.1"/>
	<path class="st2" d="M11,22.8c0-0.3-0.3-0.6-0.6-0.6l-4.5,0c-0.3,0-0.6,0.3-0.6,0.6c0,0.3,0.3,0.6,0.6,0.6h0l4.5,0
		C10.8,23.3,11,23.1,11,22.8"/>
	<path class="st2" d="M37.7,30.2l-3.9-2.2c-0.3-0.1-0.6,0-0.8,0.2c-0.1,0.3,0,0.6,0.2,0.8l3.9,2.1c0.1,0.1,0.2,0.1,0.3,0.1
		c0.2,0,0.4-0.1,0.5-0.3C38,30.7,37.9,30.4,37.7,30.2"/>
	<path class="st2" d="M12.2,16.3l-3.9-2.2c-0.3-0.1-0.6,0-0.8,0.2c-0.1,0.3-0.1,0.6,0.2,0.8l3.9,2.2c0.1,0,0.2,0.1,0.3,0.1
		c0.2,0,0.4-0.1,0.5-0.3C12.6,16.8,12.5,16.5,12.2,16.3"/>
	<path class="st2" d="M29.7,32.8c-0.2-0.3-0.5-0.3-0.8-0.2c-0.3,0.2-0.3,0.5-0.2,0.8l2.4,3.8c0.1,0.2,0.3,0.3,0.5,0.3
		c0.1,0,0.2,0,0.3-0.1c0.3-0.2,0.3-0.5,0.2-0.8L29.7,32.8z M29.7,32.8"/>
	<path class="st2" d="M15.7,12.6c0.1,0.2,0.3,0.3,0.5,0.3c0.1,0,0.2,0,0.3-0.1c0.3-0.2,0.3-0.5,0.2-0.8l-2.4-3.8
		C14.1,8,13.8,7.9,13.5,8c-0.3,0.2-0.3,0.5-0.2,0.8L15.7,12.6z M15.7,12.6"/>
	<path class="st2" d="M22.7,30.7c-4.4,0-7.9-3.6-7.9-8c0-4.4,3.6-7.9,7.9-7.9c4.4,0,7.9,3.6,7.9,7.9C30.7,27.2,27.1,30.7,22.7,30.7
		 M22.7,13.7c-5,0-9.1,4.1-9.1,9.1c0,5,4.1,9.1,9.1,9.1c5,0,9.1-4.1,9.1-9.1C31.8,17.8,27.7,13.7,22.7,13.7"/>
	<path class="st2" d="M22.7,11c0.3,0,0.6-0.2,0.6-0.6V6c0-0.3-0.3-0.6-0.6-0.6c-0.3,0-0.6,0.3-0.6,0.6v4.5
		C22.1,10.8,22.4,11,22.7,11"/>
	<path class="st2" d="M22.7,34.4c-0.3,0-0.6,0.2-0.6,0.6v4.5c0,0.3,0.3,0.6,0.6,0.6c0.3,0,0.6-0.3,0.6-0.6v-4.5
		C23.3,34.6,23,34.4,22.7,34.4"/>
	<path class="st2" d="M28.8,12.8c0.1,0.1,0.2,0.1,0.3,0.1c0.2,0,0.4-0.1,0.5-0.3L32,8.8c0.2-0.3,0.1-0.6-0.2-0.8
		c-0.3-0.2-0.6-0.1-0.8,0.2L28.7,12C28.5,12.3,28.6,12.6,28.8,12.8"/>
	<path class="st2" d="M16.6,32.6c-0.3-0.2-0.6-0.1-0.8,0.2l-2.4,3.8c-0.2,0.3-0.1,0.6,0.2,0.8c0.1,0.1,0.2,0.1,0.3,0.1
		c0.2,0,0.4-0.1,0.5-0.3l2.4-3.8C16.9,33.1,16.8,32.8,16.6,32.6"/>
	<path class="st2" d="M33.5,17.5c0.1,0,0.2,0,0.3-0.1l4-2.1c0.3-0.1,0.4-0.5,0.2-0.8c-0.1-0.3-0.5-0.4-0.8-0.2l-4,2.1
		c-0.3,0.1-0.4,0.5-0.2,0.8C33.1,17.4,33.3,17.5,33.5,17.5"/>
	<path class="st2" d="M11.6,28l-4,2.1c-0.3,0.1-0.4,0.5-0.2,0.8c0.1,0.2,0.3,0.3,0.5,0.3c0.1,0,0.2,0,0.3-0.1l4-2.1
		c0.3-0.1,0.4-0.5,0.2-0.8C12.3,28,11.9,27.9,11.6,28"/>
	<path class="st2" d="M39.4,22.1l-4.5,0c-0.3,0-0.6,0.3-0.6,0.6c0,0.3,0.3,0.6,0.6,0.6h0l4.5,0c0.3,0,0.6-0.3,0.6-0.6
		C40,22.4,39.7,22.1,39.4,22.1"/>
	<path class="st2" d="M11,22.8c0-0.3-0.3-0.6-0.6-0.6l-4.5,0c-0.3,0-0.6,0.3-0.6,0.6c0,0.3,0.3,0.6,0.6,0.6h0l4.5,0
		C10.8,23.3,11,23.1,11,22.8"/>
	<path class="st2" d="M37.7,30.2l-3.9-2.2c-0.3-0.1-0.6,0-0.8,0.2c-0.1,0.3,0,0.6,0.2,0.8l3.9,2.1c0.1,0.1,0.2,0.1,0.3,0.1
		c0.2,0,0.4-0.1,0.5-0.3C38,30.7,37.9,30.4,37.7,30.2"/>
	<path class="st2" d="M12.2,16.3l-3.9-2.2c-0.3-0.1-0.6,0-0.8,0.2c-0.1,0.3-0.1,0.6,0.2,0.8l3.9,2.2c0.1,0,0.2,0.1,0.3,0.1
		c0.2,0,0.4-0.1,0.5-0.3C12.6,16.8,12.5,16.5,12.2,16.3"/>
	<path class="st2" d="M29.7,32.8c-0.2-0.3-0.5-0.3-0.8-0.2c-0.3,0.2-0.3,0.5-0.2,0.8l2.4,3.8c0.1,0.2,0.3,0.3,0.5,0.3
		c0.1,0,0.2,0,0.3-0.1c0.3-0.2,0.3-0.5,0.2-0.8L29.7,32.8z M29.7,32.8"/>
	<path class="st2" d="M15.7,12.6c0.1,0.2,0.3,0.3,0.5,0.3c0.1,0,0.2,0,0.3-0.1c0.3-0.2,0.3-0.5,0.2-0.8l-2.4-3.8
		C14.1,8,13.8,7.9,13.5,8c-0.3,0.2-0.3,0.5-0.2,0.8L15.7,12.6z M15.7,12.6"/>
</g>
<g id="Layer_2" class="st0">
	<path class="st2" d="M16.7,32.4h18.1c0.1,0,0.2,0,0.4,0v0c3,0,5.4-2.4,5.4-5.4c0-3-2.4-5.4-5.4-5.4c-0.4,0-0.9,0.1-1.3,0.2
		c-0.1,0-0.3,0-0.4-0.1c-0.1-0.1-0.2-0.2-0.2-0.4c-0.6-3.8-3.8-6.6-7.7-6.6c-4.3,0-7.8,3.5-7.8,7.8c0,0.2,0,0.4,0,0.6
		c0,0.2,0,0.3-0.2,0.4c-0.1,0.1-0.3,0.2-0.4,0.1c-0.2,0-0.3,0-0.5,0c-2.4,0-4.3,1.9-4.3,4.3C12.4,30.5,14.3,32.4,16.7,32.4
		 M16.7,22.7c0,0,0-0.1,0-0.1c0-4.9,4-8.9,8.9-8.9c4.2,0,7.8,2.9,8.7,6.9c0.3-0.1,0.7-0.1,1-0.1c3.5,0,6.4,2.9,6.4,6.4
		s-2.9,6.4-6.4,6.4H16.7c-3,0-5.4-2.4-5.4-5.4C11.3,25.2,13.7,22.8,16.7,22.7"/>
	<path class="st2" d="M10.2,17.1c0.3,0,0.7,0,1,0.1c0.9-4.1,4.4-6.9,8.7-6.9c1.8,0,3.6,0.6,5.1,1.6c0.2,0.2,0.3,0.5,0.1,0.7
		c-0.2,0.2-0.5,0.3-0.7,0.1c-1.3-0.9-2.9-1.4-4.5-1.4c-3.9,0-7.1,2.8-7.7,6.6c0,0.1-0.1,0.3-0.2,0.4c-0.1,0.1-0.3,0.1-0.4,0.1
		c-0.4-0.1-0.9-0.2-1.3-0.2c-3,0-5.4,2.4-5.4,5.4c0,2.8,2.1,5.1,4.8,5.3c0.3,0,0.5,0.3,0.5,0.6c0,0.3-0.3,0.5-0.5,0.5c0,0,0,0-0.1,0
		c-3.3-0.3-5.8-3.1-5.8-6.4C3.8,20,6.7,17.1,10.2,17.1"/>
</g>
<g id="Layer_2_copy" class="st0">
	<path class="st2" d="M13.4,31.5h19.2c0.1,0,0.3,0,0.4,0v0c3.1,0,5.7-2.6,5.7-5.7c0-3.1-2.6-5.7-5.7-5.7c-0.4,0-0.9,0.1-1.4,0.2
		c-0.1,0-0.3,0-0.4-0.1C31.1,20.1,31,20,31,19.8c-0.6-4.1-4.1-7-8.2-7c-4.6,0-8.3,3.7-8.3,8.3c0,0.2,0,0.4,0,0.7
		c0,0.2,0,0.3-0.2,0.4c-0.1,0.1-0.3,0.2-0.4,0.2c-0.2,0-0.3,0-0.5,0c-2.5,0-4.6,2-4.6,4.6C8.9,29.4,10.9,31.5,13.4,31.5 M13.4,21.2
		c0,0,0-0.1,0-0.1c0-5.2,4.2-9.4,9.4-9.4c4.5,0,8.2,3.1,9.2,7.4C32.3,19,32.7,19,33,19c3.8,0,6.8,3.1,6.8,6.8s-3.1,6.8-6.8,6.8H13.4
		c-3.1,0-5.7-2.5-5.7-5.7C7.8,23.8,10.3,21.3,13.4,21.2"/>
</g>
<g id="Layer_4" class="st0">
	<path class="st2" d="M14.3,31.8c-0.3-0.1-0.6,0-0.7,0.2l-3.5,7c-0.1,0.3,0,0.6,0.2,0.7c0.1,0,0.2,0.1,0.2,0.1
		c0.2,0,0.4-0.1,0.5-0.3l3.5-7C14.7,32.2,14.6,31.9,14.3,31.8"/>
	<path class="st2" d="M20.2,31.8c-0.3-0.1-0.6,0-0.7,0.2L16,39c-0.1,0.3,0,0.6,0.2,0.7c0.1,0,0.2,0.1,0.2,0.1c0.2,0,0.4-0.1,0.5-0.3
		l3.5-7C20.5,32.2,20.4,31.9,20.2,31.8"/>
	<path class="st2" d="M25.9,31.8c-0.3-0.1-0.6,0-0.7,0.2l-3.5,7c-0.1,0.3,0,0.6,0.2,0.7c0.1,0,0.2,0.1,0.2,0.1
		c0.2,0,0.4-0.1,0.5-0.3l3.5-7C26.3,32.2,26.2,31.9,25.9,31.8"/>
	<path class="st2" d="M31.7,31.8c-0.3-0.1-0.6,0-0.7,0.2l-3.5,7c-0.1,0.3,0,0.6,0.2,0.7c0.1,0,0.2,0.1,0.2,0.1
		c0.2,0,0.4-0.1,0.5-0.3l3.5-7C32.1,32.2,32,31.9,31.7,31.8"/>
	<path class="st2" d="M37.5,31.8c-0.3-0.1-0.6,0-0.7,0.2l-3.5,7c-0.1,0.3,0,0.6,0.2,0.7c0.1,0,0.2,0.1,0.2,0.1
		c0.2,0,0.4-0.1,0.5-0.3l3.5-7C37.9,32.2,37.8,31.9,37.5,31.8"/>
	<path class="st2" d="M16.5,27.9h17.7c0.1,0,0.2,0,0.4,0v0c2.9,0,5.3-2.4,5.3-5.3c0-2.9-2.4-5.3-5.3-5.3c-0.4,0-0.8,0.1-1.3,0.2
		c-0.1,0-0.3,0-0.4-0.1c-0.1-0.1-0.2-0.2-0.2-0.3c-0.6-3.7-3.8-6.5-7.5-6.5c-4.2,0-7.6,3.4-7.6,7.6c0,0.2,0,0.4,0,0.6
		c0,0.2,0,0.3-0.2,0.4c-0.1,0.1-0.3,0.2-0.4,0.1c-0.2,0-0.3,0-0.5,0c-2.3,0-4.2,1.9-4.2,4.2C12.3,26,14.2,27.9,16.5,27.9 M16.5,18.4
		c0,0,0-0.1,0-0.1c0-4.8,3.9-8.7,8.7-8.7c4.1,0,7.6,2.8,8.5,6.8c0.3-0.1,0.7-0.1,1-0.1c3.5,0,6.3,2.8,6.3,6.3c0,3.5-2.8,6.3-6.3,6.3
		H16.5c-2.9,0-5.3-2.4-5.3-5.2C11.3,20.8,13.6,18.4,16.5,18.4"/>
	<path class="st2" d="M10.2,12.8c0.3,0,0.6,0,1,0.1c0.9-4,4.4-6.8,8.5-6.8c1.8,0,3.5,0.5,5,1.6c0.2,0.2,0.3,0.5,0.1,0.7
		c-0.2,0.2-0.5,0.3-0.7,0.1c-1.3-0.9-2.8-1.4-4.4-1.4c-3.8,0-7,2.7-7.5,6.5c0,0.1-0.1,0.3-0.2,0.3c-0.1,0.1-0.3,0.1-0.4,0.1
		c-0.4-0.1-0.9-0.2-1.3-0.2c-2.9,0-5.3,2.4-5.3,5.3c0,2.7,2,4.9,4.7,5.2c0.3,0,0.5,0.3,0.5,0.6c0,0.3-0.3,0.5-0.5,0.5c0,0,0,0-0.1,0
		c-3.2-0.3-5.6-3-5.6-6.3C3.9,15.7,6.7,12.8,10.2,12.8"/>
</g>
<g id="Layer_5" class="st0">
	<path class="st2" d="M31,34c-0.3-0.1-0.6,0-0.7,0.2l-3.6,7.1c-0.1,0.3,0,0.6,0.2,0.7c0.1,0,0.2,0.1,0.2,0.1c0.2,0,0.4-0.1,0.5-0.3
		l3.6-7.1C31.4,34.4,31.3,34.1,31,34"/>
	<path class="st2" d="M16.4,30h18.1c0.1,0,0.2,0,0.4,0v0c3,0,5.4-2.4,5.4-5.4c0-3-2.4-5.4-5.4-5.4c-0.4,0-0.9,0.1-1.3,0.2
		c-0.1,0-0.3,0-0.4-0.1C33,19.2,33,19.1,32.9,19c-0.6-3.8-3.8-6.6-7.7-6.6c-4.3,0-7.8,3.5-7.8,7.8c0,0.2,0,0.4,0,0.6
		c0,0.2,0,0.3-0.2,0.4c-0.1,0.1-0.3,0.2-0.4,0.1c-0.2,0-0.3,0-0.5,0c-2.4,0-4.3,1.9-4.3,4.3C12.1,28,14,30,16.4,30 M16.4,20.3
		c0,0,0-0.1,0-0.1c0-4.9,4-8.9,8.9-8.9c4.2,0,7.8,2.9,8.7,6.9c0.3-0.1,0.7-0.1,1-0.1c3.5,0,6.4,2.9,6.4,6.4S38.4,31,34.9,31H16.4
		c-3,0-5.4-2.4-5.4-5.4C11,22.7,13.4,20.3,16.4,20.3"/>
	<path class="st2" d="M9.9,14.6c0.3,0,0.7,0,1,0.1c0.9-4.1,4.4-6.9,8.7-6.9c1.8,0,3.6,0.6,5.1,1.6c0.2,0.2,0.3,0.5,0.1,0.7
		c-0.2,0.2-0.5,0.3-0.7,0.1c-1.3-0.9-2.9-1.4-4.5-1.4c-3.9,0-7.1,2.8-7.7,6.6c0,0.1-0.1,0.3-0.2,0.4c-0.1,0.1-0.3,0.1-0.4,0.1
		c-0.4-0.1-0.9-0.2-1.3-0.2c-3,0-5.4,2.4-5.4,5.4c0,2.8,2.1,5.1,4.8,5.3c0.3,0,0.5,0.3,0.5,0.6c0,0.3-0.3,0.5-0.5,0.5c0,0,0,0-0.1,0
		C6,27.1,3.5,24.3,3.5,21C3.5,17.5,6.4,14.6,9.9,14.6"/>
</g>
<g id="Layer_6" class="st0">
	<path class="st2" d="M19.2,8.1c-0.3,0-0.7,0.1-1,0.3c-0.3,0.2-0.5,0.4-0.6,0.7v0l-4,15.1v0c-0.1,0.5,0.1,1,0.5,1.3
		c0.3,0.2,0.7,0.4,1,0.4c0.1,0,0.2,0,0.4-0.1h0l6.8-1.6L18.9,38c0,0,0,0,0,0c-0.1,0.3,0,0.7,0.2,1c0.2,0.3,0.5,0.5,0.9,0.6h0.1
		c0.1,0,0.2,0.1,0.4,0.1c0.6,0,1.2-0.3,1.4-0.8v0l10.6-21.1c0.2-0.4,0.1-1-0.2-1.4c0,0,0-0.1,0-0.1L32,16.5l0.2-0.2
		c-0.3-0.3-0.7-0.5-1.1-0.5c-0.2,0-0.3,0-0.4,0.1l-6.5,1.5l2.9-7.3c0,0,0,0,0-0.1c0.1-0.2,0.2-0.3,0.2-0.5c0-0.4-0.2-0.7-0.5-1
		c-0.3-0.3-0.7-0.4-1.1-0.4H19.2z M19.2,9.4h6.4c0.1,0,0.1,0,0.2,0.1c0.1,0,0,0,0,0.1c0,0,0,0,0,0v0.1l0,0l-3.3,8.5L22,19.2l1.3-0.3
		l7.8-1.8c0.1,0,0.1,0,0.1,0c0.1,0,0.1,0,0.2,0.1c0,0,0,0,0,0c0,0,0.1,0,0,0.1L20.7,38.4c0,0,0,0,0,0c0,0.1,0,0.1-0.2,0.1
		c0,0-0.1,0-0.1,0c0,0-0.1,0-0.1,0c0,0,0,0,0-0.1c0,0,0,0,0-0.1l3.9-14.8l0.3-1l-1.1,0.3l-7.9,1.9h0c0.1,0,0,0-0.1,0
		c-0.1,0-0.1,0-0.2-0.1c-0.1,0,0,0,0-0.1v0l3.9-15v0c0,0,0,0,0.1-0.1C19.1,9.4,19.1,9.4,19.2,9.4L19.2,9.4z M19.2,9.4"/>
</g>
<g id="Layer_7_1_" class="st0">
	<path class="st2" d="M14.9,32.8c-0.3-0.1-0.6,0-0.7,0.2l-3.5,7c-0.1,0.3,0,0.6,0.2,0.7c0.1,0,0.2,0.1,0.2,0.1
		c0.2,0,0.4-0.1,0.5-0.3l3.5-7C15.3,33.2,15.2,32.9,14.9,32.8"/>
	<path class="st2" d="M20.7,32.8c-0.3-0.1-0.6,0-0.7,0.2l-3.5,7c-0.1,0.3,0,0.6,0.2,0.7c0.1,0,0.2,0.1,0.2,0.1
		c0.2,0,0.4-0.1,0.5-0.3l3.5-7C21.1,33.2,21,32.9,20.7,32.8"/>
	<path class="st2" d="M26.5,32.8c-0.3-0.1-0.6,0-0.7,0.2l-3.5,7c-0.1,0.3,0,0.6,0.2,0.7c0.1,0,0.2,0.1,0.2,0.1
		c0.2,0,0.4-0.1,0.5-0.3l3.5-7C26.9,33.2,26.8,32.9,26.5,32.8"/>
	<path class="st2" d="M32.3,32.8c-0.3-0.1-0.6,0-0.7,0.2l-3.5,7c-0.1,0.3,0,0.6,0.2,0.7c0.1,0,0.2,0.1,0.2,0.1
		c0.2,0,0.4-0.1,0.5-0.3l3.5-7C32.7,33.2,32.6,32.9,32.3,32.8"/>
	<path class="st2" d="M38.1,32.8c-0.3-0.1-0.6,0-0.7,0.2L34,40c-0.1,0.3,0,0.6,0.2,0.7c0.1,0,0.2,0.1,0.2,0.1c0.2,0,0.4-0.1,0.5-0.3
		l3.5-7C38.5,33.2,38.4,32.9,38.1,32.8"/>
	<path class="st2" d="M17.1,28.9h17.7c0.1,0,0.2,0,0.4,0v0c2.9,0,5.3-2.4,5.3-5.3c0-2.9-2.4-5.3-5.3-5.3c-0.4,0-0.8,0.1-1.3,0.2
		c-0.1,0-0.3,0-0.4-0.1c-0.1-0.1-0.2-0.2-0.2-0.3c-0.6-3.7-3.8-6.5-7.5-6.5c-4.2,0-7.6,3.4-7.6,7.6c0,0.2,0,0.4,0,0.6
		c0,0.2,0,0.3-0.2,0.4c-0.1,0.1-0.3,0.2-0.4,0.1c-0.2,0-0.3,0-0.5,0c-2.3,0-4.2,1.9-4.2,4.2C12.9,27,14.8,28.9,17.1,28.9 M17.1,19.4
		c0,0,0-0.1,0-0.1c0-4.8,3.9-8.7,8.7-8.7c4.1,0,7.6,2.8,8.5,6.8c0.3-0.1,0.7-0.1,1-0.1c3.5,0,6.3,2.8,6.3,6.3c0,3.5-2.8,6.3-6.3,6.3
		H17.1c-2.9,0-5.3-2.4-5.3-5.2C11.9,21.8,14.2,19.4,17.1,19.4"/>
	<path class="st2" d="M10.8,13.8c0.3,0,0.6,0,1,0.1c0.9-4,4.4-6.8,8.5-6.8c1.8,0,3.5,0.5,5,1.6c0.2,0.2,0.3,0.5,0.1,0.7
		c-0.2,0.2-0.5,0.3-0.7,0.1c-1.3-0.9-2.8-1.4-4.4-1.4c-3.8,0-7,2.7-7.5,6.5c0,0.1-0.1,0.3-0.2,0.3c-0.1,0.1-0.3,0.1-0.4,0.1
		c-0.4-0.1-0.9-0.2-1.3-0.2c-2.9,0-5.3,2.4-5.3,5.3c0,2.7,2,4.9,4.7,5.2c0.3,0,0.5,0.3,0.5,0.6c0,0.3-0.3,0.5-0.5,0.5c0,0,0,0-0.1,0
		c-3.2-0.3-5.6-3-5.6-6.3C4.5,16.7,7.3,13.8,10.8,13.8"/>
</g>
<g id="Layer_8" class="st0">
	<path class="st2" d="M17.1,26.1h17.7c0.1,0,0.2,0,0.4,0v0c2.9,0,5.3-2.4,5.3-5.3c0-2.9-2.4-5.3-5.3-5.3c-0.4,0-0.8,0.1-1.3,0.2
		c-0.1,0-0.3,0-0.4-0.1c-0.1-0.1-0.2-0.2-0.2-0.3c-0.6-3.7-3.8-6.5-7.5-6.5c-4.2,0-7.6,3.4-7.6,7.6c0,0.2,0,0.4,0,0.6
		c0,0.2,0,0.3-0.2,0.4c-0.1,0.1-0.3,0.2-0.4,0.1c-0.2,0-0.3,0-0.5,0c-2.3,0-4.2,1.9-4.2,4.2C12.9,24.2,14.8,26.1,17.1,26.1
		 M17.1,16.6c0,0,0-0.1,0-0.1c0-4.8,3.9-8.7,8.7-8.7c4.1,0,7.6,2.8,8.5,6.8c0.3-0.1,0.7-0.1,1-0.1c3.5,0,6.3,2.8,6.3,6.3
		c0,3.5-2.8,6.3-6.3,6.3H17.1c-2.9,0-5.2-2.4-5.2-5.2C11.9,19,14.2,16.6,17.1,16.6"/>
	<path class="st2" d="M10.8,11c0.3,0,0.7,0,1,0.1c0.9-4,4.3-6.8,8.5-6.8c1.8,0,3.5,0.5,5,1.6c0.2,0.2,0.3,0.5,0.1,0.7
		c-0.2,0.2-0.5,0.3-0.7,0.1c-1.3-0.9-2.8-1.4-4.4-1.4c-3.8,0-7,2.7-7.5,6.5c0,0.1-0.1,0.3-0.2,0.4c-0.1,0.1-0.3,0.1-0.4,0.1
		c-0.4-0.1-0.9-0.2-1.3-0.2c-2.9,0-5.3,2.4-5.3,5.3c0,2.7,2,4.9,4.7,5.2c0.3,0,0.5,0.3,0.5,0.6c0,0.3-0.3,0.5-0.5,0.5c0,0,0,0-0.1,0
		c-3.2-0.3-5.6-3-5.6-6.2C4.5,13.9,7.3,11,10.8,11"/>
	<path class="st2" d="M16.7,31.2c-0.3,0-0.5,0.2-0.5,0.5v0.8h-0.8c-0.3,0-0.5,0.2-0.5,0.5c0,0.3,0.2,0.5,0.5,0.5h0.8v0.8
		c0,0.3,0.2,0.5,0.5,0.5c0.1,0,0.3-0.1,0.4-0.2c0.1-0.1,0.2-0.2,0.2-0.4l0-0.8h0.8c0.1,0,0.3-0.1,0.4-0.2c0.1-0.1,0.2-0.2,0.2-0.4
		c0-0.3-0.2-0.5-0.5-0.5h-0.8v-0.8C17.3,31.5,17,31.2,16.7,31.2"/>
	<path class="st2" d="M26.3,31.2c-0.3,0-0.5,0.2-0.5,0.5v0.8H25c-0.3,0-0.5,0.2-0.5,0.5c0,0.3,0.2,0.5,0.5,0.5h0.8v0.8
		c0,0.3,0.2,0.5,0.5,0.5c0.1,0,0.3-0.1,0.4-0.2c0.1-0.1,0.2-0.2,0.2-0.4v-0.8h0.8c0.1,0,0.3-0.1,0.4-0.2c0.1-0.1,0.2-0.2,0.2-0.4
		c0-0.3-0.2-0.5-0.5-0.5h-0.8v-0.8C26.9,31.5,26.6,31.2,26.3,31.2"/>
	<path class="st2" d="M35.9,31.2c-0.3,0-0.5,0.2-0.5,0.5v0.8h-0.8c-0.3,0-0.5,0.2-0.5,0.5c0,0.3,0.2,0.5,0.5,0.5h0.8v0.8
		c0,0.3,0.2,0.5,0.5,0.5c0.1,0,0.3-0.1,0.4-0.2c0.1-0.1,0.2-0.2,0.2-0.4v-0.8h0.8c0.1,0,0.3-0.1,0.4-0.2c0.1-0.1,0.2-0.2,0.2-0.4
		c0-0.3-0.2-0.5-0.5-0.5h-0.8v-0.8C36.5,31.5,36.2,31.2,35.9,31.2"/>
	<path class="st2" d="M11.9,37.6c-0.3,0-0.5,0.2-0.5,0.5V39h-0.8c-0.3,0-0.5,0.2-0.5,0.5c0,0.3,0.2,0.5,0.5,0.5h0.8v0.8
		c0,0.3,0.2,0.5,0.5,0.5c0.1,0,0.3-0.1,0.4-0.2c0.1-0.1,0.2-0.2,0.2-0.4V40h0.8c0.1,0,0.3-0.1,0.4-0.2c0.1-0.1,0.2-0.2,0.2-0.4
		c0-0.3-0.2-0.5-0.5-0.5l-0.8,0v-0.8C12.5,37.9,12.2,37.6,11.9,37.6"/>
	<path class="st2" d="M21.5,37.6c-0.3,0-0.5,0.2-0.5,0.5V39h-0.8c-0.3,0-0.5,0.2-0.5,0.5c0,0.3,0.2,0.5,0.5,0.5H21l0,0.8
		c0,0.3,0.2,0.5,0.5,0.5c0.1,0,0.3-0.1,0.4-0.2c0.1-0.1,0.2-0.2,0.2-0.4V40h0.8c0.1,0,0.3-0.1,0.4-0.2c0.1-0.1,0.2-0.2,0.2-0.4
		c0-0.3-0.2-0.5-0.5-0.5l-0.8,0v-0.8C22.1,37.9,21.8,37.6,21.5,37.6"/>
	<path class="st2" d="M31.1,37.6c-0.3,0-0.5,0.2-0.5,0.5V39h-0.8c-0.3,0-0.5,0.2-0.5,0.5c0,0.3,0.2,0.5,0.5,0.5h0.8v0.8
		c0,0.3,0.2,0.5,0.5,0.5c0.1,0,0.3-0.1,0.4-0.2c0.1-0.1,0.2-0.2,0.2-0.4V40h0.8c0.1,0,0.3-0.1,0.4-0.2c0.1-0.1,0.2-0.2,0.2-0.4
		c0-0.3-0.2-0.5-0.5-0.5l-0.8,0v-0.8C31.7,37.9,31.4,37.6,31.1,37.6"/>
</g>
<g id="Layer_9">
	<path class="st3" d="M20,35.7h16.6c0.1,0,0.2,0,0.3,0v0c2.7,0,4.9-2.2,4.9-4.9c0-2.7-2.2-4.9-4.9-4.9c-0.4,0-0.8,0-1.2,0.1
		c-0.1,0-0.3,0-0.4-0.1c-0.1-0.1-0.2-0.2-0.2-0.3c-0.5-3.5-3.5-6-7-6c-3.9,0-7.1,3.2-7.1,7.1c0,0.2,0,0.4,0,0.6c0,0.1,0,0.3-0.1,0.4
		c-0.1,0.1-0.2,0.1-0.4,0.1c-0.1,0-0.3,0-0.4,0c-2.2,0-3.9,1.8-3.9,3.9C16,34,17.8,35.7,20,35.7 M20,26.9c0,0,0-0.1,0-0.1
		c0-4.5,3.6-8.1,8.1-8.1c3.8,0,7.1,2.6,7.9,6.3c0.3-0.1,0.6-0.1,0.9-0.1c3.2,0,5.9,2.6,5.9,5.9s-2.6,5.9-5.9,5.9h0
		c-0.1,0-1.9,0-4.4,0H20c-2.7,0-4.9-2.2-4.9-4.9C15.1,29.1,17.3,26.9,20,26.9"/>
	<path class="st3" d="M10.4,22c0-4.3,3.5-7.8,7.8-7.8c2.6,0,4.9,1.1,6.3,3.3c0.1,0.2,0.1,0.5-0.1,0.7c-0.2,0.1-0.5,0.1-0.7-0.1
		c-1.3-1.9-3.2-2.9-5.5-2.9c-3.8,0-6.8,3.1-6.8,6.8c0,2.3,1.2,4.5,3.1,5.7c0.2,0.1,0.3,0.4,0.1,0.7c-0.1,0.1-0.2,0.2-0.4,0.2
		c-0.1,0-0.2,0-0.3-0.1C11.7,27.1,10.4,24.7,10.4,22"/>
	<path class="st3" d="M18.1,11.8c-0.3,0-0.5-0.2-0.5-0.5V7.5c0-0.3,0.2-0.5,0.5-0.5c0.3,0,0.5,0.2,0.5,0.5v3.9
		C18.6,11.6,18.3,11.8,18.1,11.8"/>
	<path class="st3" d="M12.8,13.3c-0.1,0-0.2,0.1-0.3,0.1c-0.2,0-0.3-0.1-0.4-0.2l-2-3.3C10,9.7,10,9.4,10.3,9.2
		c0.2-0.1,0.5-0.1,0.7,0.2l2,3.3C13.1,12.9,13,13.2,12.8,13.3"/>
	<path class="st3" d="M8.8,17.4c-0.1,0-0.2,0-0.2-0.1l-3.4-1.8C5,15.4,4.9,15.1,5,14.9c0.1-0.2,0.4-0.3,0.7-0.2L9,16.5
		c0.2,0.1,0.3,0.4,0.2,0.7C9.2,17.3,9,17.4,8.8,17.4"/>
	<path class="st3" d="M3.7,21.3L3.7,21.3l3.9,0c0.3,0,0.5,0.2,0.5,0.5c0,0.3-0.2,0.5-0.5,0.5l-3.9,0c-0.3,0-0.5-0.2-0.5-0.5
		C3.2,21.6,3.5,21.3,3.7,21.3"/>
	<path class="st3" d="M5.2,28.3l3.4-1.8c0.2-0.1,0.5,0,0.7,0.2c0.1,0.2,0,0.5-0.2,0.7l-3.4,1.8c-0.1,0-0.2,0.1-0.2,0.1
		c-0.2,0-0.3-0.1-0.4-0.3C4.9,28.7,5,28.4,5.2,28.3"/>
	<path class="st3" d="M30.9,15.4l-3.4,1.8c-0.1,0-0.2,0.1-0.2,0.1c-0.2,0-0.3-0.1-0.4-0.3c-0.1-0.2,0-0.5,0.2-0.7l3.4-1.8
		c0.2-0.1,0.5,0,0.7,0.2C31.2,15,31.1,15.3,30.9,15.4"/>
	<path class="st3" d="M12.1,30.5c0.1-0.2,0.4-0.3,0.7-0.2c0.2,0.1,0.3,0.4,0.2,0.7l-2,3.3c-0.1,0.1-0.2,0.2-0.4,0.2
		c-0.1,0-0.2,0-0.3-0.1c-0.2-0.1-0.3-0.4-0.2-0.7L12.1,30.5z M12.1,30.5"/>
	<path class="st3" d="M24.1,13.2c-0.1,0.1-0.2,0.2-0.4,0.2c-0.1,0-0.2,0-0.3-0.1c-0.2-0.1-0.3-0.4-0.2-0.7l2-3.3
		c0.1-0.2,0.4-0.3,0.7-0.2c0.2,0.1,0.3,0.4,0.2,0.7L24.1,13.2z M24.1,13.2"/>
</g>
<g id="Layer_10">
</g>
</svg>
