<?xml version="1.0" encoding="utf-8"?>
<!-- Generator: Adobe Illustrator 24.0.2, SVG Export Plug-In . SVG Version: 6.00 Build 0)  -->
<svg version="1.1" id="image" xmlns="http://www.w3.org/2000/svg" xmlns:xlink="http://www.w3.org/1999/xlink" x="0px" y="0px"
	 viewBox="0 0 850.39 850.39" style="enable-background:new 0 0 850.39 850.39;" xml:space="preserve">
<style type="text/css">
	.st0{fill:#C7C6C6;}
</style>
<path class="st0" d="M233.94,262.82c-9.31-3.96-20-4.53-29.85-3.64c-10.3,0.93-23.04,3.21-33.14,5.41c-1.81,0.39-3.1,4.24,0,4.92
	c9.05,2,18.67-0.35,27.81-1.29c5.34-0.55,10.68-0.92,16-0.83c-9.72,2.07-19.13,5.46-28.41,9.04c-12.85,4.96-25.32,10.81-37.61,17.02
	c-12.57,6.36-24.92,13.17-37.29,19.91c-6.03,3.28-12.02,6.66-18.13,9.81c-1.82,0.94-3.88,1.89-5.94,2.49
	c-3.58,1.05-3.47-2.27-3.39-3.07c0.14-1.29,0.5-2.65,0.76-3.76c1.57-6.62,4.38-12.99,7.06-19.22c2.96-6.9,6.12-13.72,8.97-20.66
	c2.05-4.98,4.42-9.28,4.72-14.7c0.16-2.83-2.21-3.79-4.46-3.79c-17.93,0-34.67,5.91-51.3,12.36c-15.82,6.14-30.91,14.35-42.14,28.16
	c-1.76,2.17,1.23,2.19,2.55,1.03c5.43-4.79,13.21-9.38,19.24-12.92c7.8-4.58,16.21-8.25,24.67-11.43
	c13.18-4.95,27.28-9.06,41.42-10.67c0.93-0.11,3.02-0.58,2.3,1.54c-1.31,3.82-2.98,7.67-4.52,11.19
	c-3.17,7.25-6.61,14.38-9.77,21.64c-3.02,6.92-12.67,25.18-2.69,30.66c5.31,2.92,12.65-0.82,17.39-3.17
	c13.2-6.55,26.02-13.94,39.04-20.83c26.03-13.78,51.8-24.86,80.19-32.93c-2.25,2.15-4.48,4.34-6.56,6.68
	c-5.26,5.9-9.38,12.4-13.64,19.01c-1.82,2.82,1.61,4.57,3.46,2.34c4.68-5.64,29.42-30.81,34.66-35.61
	C237.36,265.65,235.6,263.52,233.94,262.82z"/>
<path class="st0" d="M495.9,206.67c-8.96,3.69-17.75,7.83-26.82,11.27c-8.68,3.29-17.64,5.19-26.72,7.03
	c-1.42,0.29-1.52,2.55,0,2.76c14.61,2,29.19-3.87,42.93-9.98c-26.75,23.31-55.39,45-88.1,59.19
	c-35.07,15.22-75.15,19.15-112.28,9.18c-1.63-0.44-2.35,1.86-0.71,2.39c19.55,6.24,38.89,9.82,59.5,8.54
	c18.8-1.17,37.09-5.93,54.57-12.81c32.1-12.64,60.59-33.44,86.84-55.77c-0.94,2.64-1.78,5.21-2.57,7.54
	c-2.02,5.98-3.51,12.14-4.83,18.31c-1.21,5.66-2.29,10.99-1.17,16.66c0.55,2.79,5.2,3.23,6.44,0.78c2.43-4.8,3.14-9.74,4.2-15.03
	c1.13-5.68,2.58-11.27,4.15-16.84c1.55-5.53,3.48-10.95,5.71-16.24c2.03-4.8,5.16-9.39,6.7-14.34c0.88-2.81-2.17-4.33-4.45-3.58
	C498.9,205.86,496.63,206.37,495.9,206.67z"/>
<path class="st0" d="M842.6,332.12c-5.18-7.13-11.91-12.27-19.51-16.61c-3.99-2.28-8.18-4.19-12.34-6.12
	c-4.75-2.2-9.83-5.23-15.04-6.07c-2.8-0.46-4.98,2.29-2.91,4.62c2.81,3.16,6.95,4.99,10.61,7.01c4.1,2.26,8.29,4.37,12.41,6.58
	c1.74,0.93,3.46,1.91,5.13,2.96c-2.63-0.32-5.25-0.54-7.78-0.84c-8.16-0.95-16.37-1.38-24.57-1.59
	c-15.75-0.39-31.53,0.48-47.23,1.76c-14.03,1.14-28,2.81-42,4.29c-9.77,1.03-19.56,2.12-29.4,1.68c-3.19-0.14-10.68-1.04-10.85-4.88
	c-0.18-3.94,8.17-8.03,11.11-9.62c14.11-7.63,30.69-13.66,46.19-17.46c1.71-0.42,5.61-1.41,7.75-2.25c1.84-0.72,1.67-1.83,0.75-1.83
	c-4.61,0-10.1,0.82-14.44,1.65c-8.06,1.53-15.97,3.63-23.79,6.1c-7.7,2.43-15.38,5.28-22.52,9.09c-5.03,2.69-10.19,6.16-12.49,11.57
	c-2.18,5.11,1.33,10.22,5.44,12.96c5.79,3.86,14.09,3.93,20.75,3.91c11.26-0.04,22.51-1.42,33.7-2.57
	c14.93-1.53,29.87-2.91,44.86-3.69c12.62-0.66,25.25-0.8,37.87-0.24c6.31,0.28,12.61,0.83,18.88,1.55c2.44,0.28,4.92,0.76,7.4,1.22
	c-5.23,1.83-10.39,3.85-15.46,6.21c-4.45,2.07-8.74,4.44-12.86,7.1c-3.03,1.96-8.31,4.79-7.81,9.05c0.18,1.54,1.01,2.67,2.55,3.1
	c3.98,1.11,7.33-1.89,10.48-3.9c3.72-2.38,7.64-4.49,11.6-6.46c9.76-4.87,20.25-8.63,30.69-11.78
	C842.34,337.83,844.47,334.7,842.6,332.12z"/>
<path class="st0" d="M287.84,410.52c-1.77-1.19-8.05-2.22-14.62-2.12c-8.21,0.13-17.05,1.63-20.21,2.32
	c-12.44,2.74-25.71,5.84-37.34,11.18c-3.02,1.38-1.33,5.64,1.64,5.59c11.56-0.21,23.41-4.78,34.61-7.33
	c3.86-0.88,7.76-1.69,11.69-2.32c-6.95,2.93-13.64,6.54-20.22,10.3c-11.61,6.63-22.61,14.34-33.02,22.72
	c-21.52,17.32-39.36,38.18-54.82,60.97c-6.52,9.61-12.57,19.8-20.12,28.67c-3.07,3.6-8.82,9.83-13.36,7.3
	c-2.53-1.41-2.22-8.45-1.95-11.88c0.56-7.26,2.46-14.44,4.26-21.47c2.85-11.14,6.56-22.31,7.69-33.81c0.3-3.09,0.39-6.92-1.54-9.54
	c-2.88-3.93-8.7-4.05-13.02-3.17c-13.44,2.75-24.87,16.03-33.25,25.92c-5.28,6.23-20.6,32.37-21.54,39.38
	c-0.33,2.45,2.12,2.18,3.23,0.61c5.27-8.78,9.25-15.39,14.48-22.73c6.03-8.47,12.72-16.47,20.24-23.66
	c5.45-5.2,12.01-11.11,19.6-12.75c1.01-0.22,4.79-0.14,4.16,5.34c-0.72,6.31-2.69,12.62-4.42,18.7c-2.15,7.54-4.28,15.1-6.06,22.73
	c-2.31,9.88-6.68,26.48,3.66,33.37c10.19,6.79,21.54-4.65,27.39-11.75c12.58-15.26,22.4-32.59,34.83-47.99
	c13.51-16.75,29.72-31.56,47.08-44.23c8.76-6.39,18.09-12.04,27.65-17.15c5.13-2.74,10.37-5.21,15.58-7.74
	c-3.2,4.3-6.25,8.71-9.05,13.31c-2.92,4.79-5.36,9.86-7.62,14.99c-2.55,5.76-3.67,11.25-4.61,17.41c-0.71,4.62,4.16,5.76,5.88,1.53
	c4.06-9.97,9.84-19.78,15.24-29.13c5.63-9.76,12.51-18.73,19.63-27.43C291.33,414.54,289.7,411.77,287.84,410.52z"/>
<path class="st0" d="M664.58,511.95c-1.86-3.76-5.28-7.09-7.67-10.57c-3.13-4.57-5.92-9.37-8.55-14.24
	c-4.89-9.03-9.68-19.51-13.18-29.19c-2.13-5.88-7.29-2.91-7.7,1.86c-0.91,10.73-4.06,21.06-7.81,31.11
	c-3.79,10.18-8.56,20.83-12.74,30.78c-1.37,3.25,2.65,3.73,4.75,1.57c7.51-7.71,12.09-18.78,16.2-28.56
	c0.96-2.29,1.85-4.62,2.69-6.97c0.09,1.91,0.14,3.83,0.1,5.77c-0.15,8.9-1.41,17.73-3.34,26.41c-3.83,17.22-10.84,33.72-20.64,48.38
	c-9.22,13.79-21.67,24.79-36.84,31.59c-12.63,5.66-29.13,7.42-39.67-2.82c-1.05-1.02-2.55-0.56-1.7,0.79
	c8.47,13.59,23.99,15.24,38.41,11.33c17.37-4.71,32.47-16.71,43.42-30.67c12.17-15.51,20.38-34.27,25.29-53.27
	c2.57-9.95,4.57-21.15,4.91-32.24c2.4,4.46,5.02,8.79,7.82,13.01c2.77,4.17,5.74,8.94,9.9,11.81
	C662.11,520.5,666.46,515.74,664.58,511.95z"/>
<path class="st0" d="M612.71,92.22c-10.44-19.25-31.64-32.86-52.78-37.27c-2.7-0.56-4.91,3.1-2.05,4.5
	c13.24,6.5,26.72,13.43,36.95,23.88c-13.89-7.96-32.38-9.82-47.2-10.41c-22.91-0.91-45.42,2.75-67.81,7.15
	c-13.02,2.56-26.04,5.14-39.19,6.94c-6.05,0.83-12.14,1.38-18.24,1.66c-2.82,0.13-12.3,1.5-13.38-2.1
	c-1.53-5.11,9.15-11.92,11.99-14.06c7.37-5.56,15.62-10.45,21.24-17.94c4.25-5.66,3.87-12.6-0.86-17.83
	c-5.06-5.6-13-7.99-20.13-9.61c-9.25-2.1-19.01-2.76-28.47-2.55c-7.54,0.17-15.52,0.67-22.65,3.32c-2.98,1.11-3.47,3.72-0.39,2.91
	c8.04-2.1,17.75-2.26,26-2.17c9.95,0.11,18.66,1.6,28.17,4.67c6.38,2.06,18.07,8.68,13.59,16.66c-4.38,7.81-14.61,12.72-21.63,17.79
	c-5.63,4.06-11.48,8.4-13.98,15.12c-3.17,8.51,5.18,12.4,12.13,13.2c11.99,1.38,24.86-0.91,36.7-2.69
	c13.02-1.95,25.93-4.57,38.87-6.99c19.21-3.59,38.48-5.76,58.05-5.01c16.34,0.63,31.96,3.68,45.61,12.05
	c-5.86,1.81-11.56,4.15-17.16,6.93c-5.09,2.52-9.99,5.42-14.83,8.39c-4.67,2.86-10.74,5.59-13.91,10.17
	c-2.15,3.11,1.58,5.91,4.48,5.38c4.73-0.86,8.88-4.38,12.89-6.88c4.34-2.71,8.74-5.32,13.21-7.81c9.56-5.31,19.85-9.63,30.78-10.95
	C612,98.27,614.52,95.54,612.71,92.22z"/>
<path class="st0" d="M324.47,165.66c-4.2-10.49-6.97-20.96-7.88-32.26c-0.88-11,0.82-22.16,2.27-32.99
	c0.49-3.64-5.36-4.49-6.96-1.74c-2.96,5.09-4.68,9.46-5.48,15.39c-0.87,6.44-1.04,12.87-0.64,19.35c0.33,5.3,1.12,10.67,2.33,15.95
	c-4.16-5.8-10.04-11.06-14.6-16.03c-7.08-7.71-14.39-15.21-22.12-22.27c-14.1-12.89-30.95-25.86-50.24-29.21
	c-17.5-3.03-36.21,4.73-42.49,22.1c-3.42,9.46-2.24,20.21-0.08,29.8c3.07,13.61,9.68,25.88,17,37.61c1.77,2.84,5.25,1.98,3.48-1.12
	c-10.04-17.61-19.63-43.79-12.58-64.3c5.54-16.09,24.52-19.08,38.85-14.79c16.81,5.04,31.14,17.85,43.5,29.77
	c6.84,6.59,13.29,13.57,19.6,20.66c3.51,3.94,6.82,8.47,10.58,12.41c-2.78-0.9-5.58-1.77-8.4-2.62c-10.77-3.23-21.64-7.4-32.6-9.82
	c-1.64-0.36-3.43,1.64-1.87,2.96c7.92,6.7,18.87,10.29,28.56,13.64c10.95,3.79,22,7.43,32.3,12.82
	C320.27,172.69,326.22,170.02,324.47,165.66z"/>
<path class="st0" d="M499.85,495.52c-20.83-9.86-46.18-12.51-68.88-8.98c-2.2,0.34-2.22,3.98,0,4.13
	c13.98,0.92,34.23,1.61,50.44,6.24c-30.62,4.57-61.37,9.05-91.34,16.89c-16.24,4.25-32.17,9.7-47.5,16.57
	c-8.03,3.6-15.78,7.83-23.28,12.43c-3.62,2.22-7.09,4.64-10.53,7.13c-0.93,0.67-1.84,1.37-2.74,2.08c-0.42,0.33-1.38,0.23-1.13-1.04
	c1.81-9.5,3.84-15.92,6.22-23.5c1.03-3.29,2.2-6.8,2.19-10.28c-0.01-4.5-3.34-5.2-7.13-5.3c-26.48-0.71-51.26,16.47-72.11,30.84
	c-1.58,1.09-0.65,2.87,0.95,1.92c19.76-11.76,41.65-24.27,64.95-26.54c2.39-0.23,6.98-1.13,7.11,1.12
	c0.22,3.85-1.85,7.78-2.98,11.43c-2.8,9.04-5.28,16.9-5.27,26.44c0,1.82,0.25,4.38,2.94,4.36c2.59-0.02,3.85-0.76,6.05-2.19
	c3.77-2.44,7.59-4.84,11.47-7.12c7.65-4.49,15.38-8.7,23.45-12.4c16.08-7.36,32.84-12.84,49.96-17.18
	c27.26-6.91,55.1-10.69,82.86-14.88c-3.28,2.42-6.48,4.94-9.61,7.5c-9.37,7.63-19.71,16.27-26.53,26.36c-0.78,1.16-0.94,3.18,0,4.32
	c0.84,1.02,1.52,1.51,2.77,1.97c1.44,0.52,3.45-0.05,4.51-1.1c8.26-8.19,15.83-16.74,24.74-24.3c8.82-7.48,18.28-14.18,28.42-19.74
	C502.61,501.18,502.88,496.95,499.85,495.52z"/>
<path class="st0" d="M732.15,124.98c-21.37-3.12-44.37,6.37-63.36,15.09c-18.29,8.4-36.56,19.24-49.76,34.72
	c-1.88,2.2,0.55,4.38,2.52,2.4c4.16-4.18,7.81-7.17,12.72-10.42c6.82-4.51,13.86-8.67,21.09-12.49
	c15.73-8.31,34.27-15.61,51.65-19.62c10.11-2.33,27.45-5.6,35.15,3.96c10.75,13.36-4.24,28.65-14.42,36.4
	c-15.27,11.62-33.67,19.09-51.23,26.5c-19.96,8.43-40.89,13.77-61.63,19.77c7.54-5.86,14.77-12.1,21.62-18.35
	c3.17-2.89-1.11-7.28-4.5-5.38c-19.08,10.68-34.22,27.16-54.3,36.32c-4.15,1.89-2.61,7.49,1.21,8.56
	c18.75,5.27,38.16,8.12,57.46,10.5c5.97,0.74,7.51-9.03,1.45-9.9c-12.5-1.79-24.96-3.47-37.35-5.7
	c25.86-8.63,52.65-14.44,77.8-25.17c15.76-6.72,31.58-13.83,46.03-23.09c13.75-8.81,30.12-21.67,30.54-39.54
	C755.14,136.15,744.71,126.82,732.15,124.98z"/>
<path class="st0" d="M836.22,758.2c-5.94,6.06-13.29,10.66-20.62,14.84c-7.72,4.4-18.75,8.02-26.3,12.65
	c-3.1,1.9-0.86,5.79,2.38,5.2c9.01-1.63,20.26-6.7,28.27-10.98c0.34-0.19,0.68-0.38,1.02-0.57c-9.62,15.63-24.84,27.58-40.88,36.2
	c-23.02,12.37-49.53,17.74-75.55,16.53c-9.22-0.43-18.25-2.65-25.88-7.03c6.49-4.42,12.38-9.69,17.35-15.88
	c5.93-7.39,10.39-17.15,8.47-26.82c-1.8-9.08-8.98-14.83-17.99-15.96c-15.53-1.96-32.57,5.95-35.56,22.36
	c-2.45,13.44,4.03,26.92,13.51,36.34c-8.98,4.52-18.75,7.64-28.16,9.71c-13.26,2.92-27.08,3.59-40.27-0.08
	c-6.1-1.7-12.32-4.72-16.33-9.77c-5.01-6.31-6.8-14.87-5.14-22.29c0.64-2.87-1.15-3.17-2.15-0.58
	c-6.31,16.37,2.07,30.46,17.68,36.58c14.94,5.86,31.24,5.48,46.79,2.77c11.56-2.01,23.04-5.73,33.44-11.31
	c17.57,12.88,41.95,12.62,62.65,9.98c24.97-3.18,48.98-12.21,69.46-26.89c9.09-6.51,17.25-14.41,23.79-23.46
	c-0.7,5.3-1.5,15.62-1.4,20.97c0.07,3.73,0.14,10.11,4.36,11.78c2.65,1.04,7.67,0.14,7.19-3.81c-0.33-2.72-1.17-5.2-1.33-7.96
	c-0.3-5.1,0.43-15.2,0.91-20.28c0.51-5.49,1.39-10.94,2.66-16.31c0.76-3.19,2.29-8.1,3.74-10.97
	C845.61,756.69,839.83,754.51,836.22,758.2z M661.32,805.19c-2.5-6.29-3.12-13.2-0.65-19.58c2.6-6.73,9.13-10.69,15.76-11.97
	c7.69-1.48,16.98,0.42,19.67,8.78c2.64,8.19-2.32,16.68-7.04,22.97c-4.55,6.07-10.3,11.07-16.72,15.2
	C667.65,816.62,663.84,811.53,661.32,805.19z"/>
<path class="st0" d="M249.21,714.9c-6.07-8.74-16.52-15.06-26.1-19.3c-9.89-4.37-20.66-7.71-31.41-8.88
	c-2.1-0.23-2.97,2.81-1.1,3.75c13.44,6.76,29.98,9.39,42,18.65c-7.21-1.88-14.91-2.55-22.07-3.13c-6.44-0.51-12.96-0.79-19.42-0.94
	c-15.42-0.36-30.99,0.56-46.17,3.38c-11.32,2.1-24.22,5.62-33.45,13.2c-14.67-2.25-30.93-0.88-43.02,7.82
	c-13.81,9.93-18.26,28.66-13.07,44.46c5.83,17.76,23.98,28.32,42.15,27.35c1.58-0.09,1.59-2.24,0-2.3
	c-25.24-1-43.33-24.77-36.03-49.22c5.59-18.75,25.73-23.74,43.13-22.62c0.45,0.03,0.9,0.08,1.35,0.12
	c-8.84,11.6-5.95,28.89,1.89,40.49c8.53,12.62,24.8,16.83,39.48,12.62c13.68-3.93,19.49-16.66,13.35-29.41
	c-6.86-14.24-23.07-22.58-37.91-26.82c2.97-1.62,6.11-2.93,9.15-3.98c14.83-5.11,30.91-6.48,46.49-6.89
	c15.43-0.4,31.51,0.13,46.67,2.93c1.75,0.32,3.55,0.67,5.33,1.1c-15.4,6.69-22.74,11.02-36.5,20.96c-4.52,3.27,2.03,8.8,6.2,5.73
	c16.19-11.91,27.35-17.69,46.75-23.75C249.03,719.56,250.71,717.05,249.21,714.9z M152.04,749.77c3.95,5.36,6.35,12.34,2.4,18.32
	c-3.35,5.07-10.25,6.9-15.95,7.08c-16.7,0.51-29.02-14.41-29.79-30.31c-0.33-6.82,2.77-12.08,7.36-16.12
	C129.96,731.71,143.77,738.55,152.04,749.77z"/>
<path class="st0" d="M600.52,363.36c-10.03,3.55-20.32,4.52-30.7,3.21c-9.19-1.16-20.91-4.71-30-1.75c-3.2,1.04-3.02,3.22,0.07,4.3
	c4.34,1.53,9.39,1.79,13.92,2.63c5.56,1.04,11.15,2.03,16.75,2.8c3.42,0.47,6.85,0.83,10.28,1c-16.79,7.73-35.03,12.27-53.55,12.69
	c-11.7,0.26-26.49-0.42-37.55-4.26c-11.45-3.97-20.93-11.16-30.23-18.69c-2.72-2.2-4.94-0.56-2.5,2.97
	c14.7,21.22,42.97,29.29,67.54,29.71c19.39,0.33,39-4.02,56.99-11.63c-6.38,7.96-12.62,16.01-17.33,24.99
	c-3.32,6.34,6.28,11.11,9.86,5.33c9.92-16.04,22.2-30.29,32.45-46.09C608.96,366.8,604.64,361.9,600.52,363.36z"/>
<path class="st0" d="M830.27,589.18c-4.03,9.39-7.71,19-11.71,28.45c0.16-1.34,0.32-2.68,0.54-3.99c0.61-3.69,1.03-7.41,1.37-11.13
	c0.85-9.29,1.08-18.65,0.85-27.98c-0.37-15.45-1.04-37.05-16.33-45.49c-19.81-10.93-44.34,0.46-65.41-1.31
	c-4.53-0.38-10.7-1.93-13.47-5.82c-2.18-3.07-0.08-6.98,2.39-9.79c5.54-6.3,14.29-8.94,20.74-14.32c4.98-4.15,9.41-10.07,6.13-16.25
	c-3.57-6.73-10.58-10.32-17.66-12.15c-8.71-2.26-18.11-2.38-27.04-1.89c-7.39,0.4-16.44,2.13-22.75,5.45
	c-2.31,1.21-0.81,2.94,2.3,2.61c9.26-0.97,18.32-2.35,27.69-2.26c7.94,0.07,17.97,0.62,24.37,6.13c1.83,1.58,5.88,5.38,4,9.38
	c-1.5,3.21-5.42,4.74-8.3,6.56c-7.09,4.46-14.98,8.27-19.89,15.33c-6.56,9.43-1.43,19.14,8.14,23.58c9.91,4.6,20.72,2.29,31.27,1.14
	c10.96-1.2,22.38-3.65,33.4-1.86c8.59,1.4,13.73,6.89,16.19,14.94c3.91,12.74,3.69,27.03,3.15,40.21
	c-0.25,6.12-0.76,12.23-1.52,18.3c-0.58,4.57-1.01,9.55-2.06,14.22c-2.1-4.41-4.31-8.77-6.74-13.04
	c-3.26-5.72-7.09-10.59-12.19-14.88c-3.41-2.88-10.67-6.17-13.4-3.74c-1.45,1.29-0.96,3.22,0.59,4.24c3.18,2.09,6.32,3.72,8.81,6.83
	c3.78,4.71,6.72,9.5,9.5,14.83c5.04,9.68,8.54,20.37,13,30.32c1.67,3.73,7.38,5.35,9.78,1.18c4.9-8.48,8.84-17.54,12.78-26.5
	c4.15-9.43,8.37-18.95,11.73-28.69C842.69,585.48,832.68,583.56,830.27,589.18z"/>
<path class="st0" d="M512.54,748.95c-0.82-4.27-0.92-8.72-1.13-13.05c-0.35-7.29,0.17-16.89-2.12-23.91
	c-1.11-3.41-5.54-2.58-8.13-0.36c-2.55,2.19-7.85,5.8-13.37,8.52c-6.94,3.42-14.17,5.82-16.17,6.5c-3.58,1.21-7.74,2.15-10.57,4.4
	c-2.29,1.82-0.55,4.44,1.66,4.64c7.8,0.7,17.18-3.04,24.31-5.82c2.6-1.01,5.14-2.13,7.62-3.36c-7.77,15.6-19.35,28.66-34.12,38.13
	c-8.79,5.63-23.27,11.97-33.56,13.67c-11.12,1.84-16.67,0.21-28-3.33c-1.56-0.49-2.57,1.24-1.26,2.47
	c8.21,7.68,21.87,8.22,32.44,7.23c11.63-1.09,22.76-5.14,32.86-10.9c15.42-8.78,30.23-22.88,38.57-39.15c-0.01,1.7,0,3.39,0.06,5.02
	c0.24,6.5-0.19,17.96,6.13,21.89c2.74,1.7,7.17-0.33,7.05-3.73C514.7,754.88,513.11,751.89,512.54,748.95z"/>
<path class="st0" d="M408.03,649.34c-0.9-0.88-2.49-1.3-3.7-0.9c-3.87,1.27-4.54,3.37-5.47,7.13c-1.15,4.64-2.17,9.32-3.17,13.99
	c-0.81,3.78-1.64,7.56-2.53,11.33c-5.59-11.81-14.66-22.52-24.29-30.57c-12.21-10.21-27.1-16.9-42.6-20.26
	c-15.35-3.33-31.6-4.1-46.81-0.3c-18.28,4.56-36.06,15.38-39.58,21.25c-0.97,1.61,0.21,1.8,1.71,1.32c0.48-0.15,2.17-1.35,2.99-1.84
	c6.96-4.16,34.77-21.86,74.59-13.66c13.76,2.84,30.05,11.13,40.88,20.12c5.61,4.66,10.41,10.09,14.5,16.12
	c2.63,3.88,4.67,7.96,6.51,12.13c-2.86-1.82-5.73-3.61-8.69-5.26c-7.14-3.99-15.62-7.65-23.53-4.47c-2.56,1.03-1.11,2.88,1,3.53
	c15.36,4.73,28.66,16.06,42.5,24c2.82,1.62,5.35,0.19,6.37-2.88c2.84-8.57,4.94-17.34,6.94-26.13c1.07-4.68,2.08-9.37,3.18-14.04
	C409.79,655.86,411.38,652.61,408.03,649.34z"/>
</svg>
