<?xml version="1.0" encoding="utf-8"?>
<!-- Generator: Adobe Illustrator 24.1.1, SVG Export Plug-In . SVG Version: 6.00 Build 0)  -->
<svg version="1.1" id="Layer_1" xmlns="http://www.w3.org/2000/svg" xmlns:xlink="http://www.w3.org/1999/xlink" x="0px" y="0px"
	 viewBox="0 0 400 400" style="enable-background:new 0 0 400 400;" xml:space="preserve">
<style type="text/css">
	.st0{fill:#606060;stroke:#606060;stroke-width:4;stroke-miterlimit:10;}
</style>
<g>
	<path class="st0" d="M101.4,268.7C52,268.3,13.5,255,13.5,197.3c0-36.9,27.1-71.4,65.9-71.4h3.5c0.8-55.3,37.3-98,91-108.2
		C226.5,7.6,277,33,297.8,83.6c51,1.2,88.6,39.2,88.6,90.6c0,47.5-27.8,89.8-77.6,94.5c-3.5,0.4-5.5,0-5.9-4.7l-0.8-8.2
		c-0.4-3.9,0.8-5.5,4.7-5.5c40-3.9,61.2-38,61.2-76.1c0-41.2-30.2-71.4-71.4-72.1c-7.1,0-12.9-4.3-15.7-10.6
		c-17.3-42.7-59.2-63.9-103.5-55.3c-45.9,8.6-75.7,44.7-76.1,91.4c0,10.2-8.6,18-18.4,17.3c-29.8-2.4-50.6,24.7-50.6,52.5
		c0,45.9,30.2,52.5,69,52.9c3.9,0,5.5,1.2,5.5,5.1v8.2C106.9,267.5,105.3,268.7,101.4,268.7z M212.4,162.4c-4.3-4.3-11-4.3-15.3,0
		c-19.2,18.8-38,38-57.2,57.2c-2.7,2.7-2.7,4.7,0,7.5l4.7,4.3c2.7,2.7,4.3,2.7,7.1,0l43.9-43.5v129.8c0,3.9,1.2,5.1,5.1,5.1h8.2
		c3.9,0,5.1-1.2,5.1-5.1l0.4-129.8l43.5,43.5c2.7,2.7,4.7,2.7,7.4,0l4.7-4.3c2.7-2.7,2.7-4.7,0-7.5
		C250.8,200.5,231.6,181.3,212.4,162.4z"/>
</g>
</svg>
