<?xml version="1.0" encoding="utf-8"?>
<!-- Generator: Adobe Illustrator 23.1.0, SVG Export Plug-In . SVG Version: 6.00 Build 0)  -->
<svg version="1.1" id="Layer_1" xmlns="http://www.w3.org/2000/svg" xmlns:xlink="http://www.w3.org/1999/xlink" x="0px" y="0px"
	 viewBox="0 0 381.4 64.1" style="enable-background:new 0 0 381.4 64.1;" xml:space="preserve">
<style type="text/css">
	.st0{fill:#202020;}
	.st1{fill:none;}
	.st2{enable-background:new    ;}
</style>
<g>
	<path class="st0" d="M16.2,49.1C8.7,49,2.9,47.1,2.9,38.3c0-5.6,4.1-10.8,10-10.8h0.5c0.1-8.4,5.7-14.8,13.7-16.4
		c8-1.5,15.5,2.3,18.7,10c7.7,0.2,13.4,6,13.4,13.7c0,7.2-4.2,13.5-11.7,14.2c-0.5,0.1-0.8,0-0.9-0.7l-0.1-1.2
		c-0.1-0.6,0.1-0.8,0.7-0.8c6.1-0.6,9.3-5.8,9.3-11.5c0-6.3-4.5-10.8-10.8-10.9c-1.1,0-1.9-0.6-2.3-1.6c-2.6-6.5-9-9.7-15.7-8.4
		c-7,1.3-11.4,6.8-11.5,13.8c0,1.5-1.3,2.7-2.8,2.6c-4.5-0.4-7.7,3.7-7.7,8c0,7,4.5,8,10.4,8c0.6,0,0.8,0.2,0.8,0.8v1.2
		C17.1,48.9,16.8,49.1,16.2,49.1z M32.9,33.1c-0.6-0.6-1.6-0.6-2.3,0c-2.9,2.8-5.8,5.8-8.7,8.7c-0.4,0.4-0.4,0.7,0,1.1l0.7,0.6
		c0.4,0.4,0.6,0.4,1.1,0l6.7-6.6v19.6c0,0.6,0.2,0.8,0.8,0.8h1.2c0.6,0,0.8-0.2,0.8-0.8l0.1-19.6l6.6,6.6c0.4,0.4,0.7,0.4,1.1,0
		l0.7-0.6c0.4-0.4,0.4-0.7,0-1.1C38.8,38.8,35.8,35.9,32.9,33.1z"/>
</g>
<rect x="81.9" y="14.1" class="st1" width="302" height="47.5"/>
<g>
	<g class="st2">
		<path d="M82.5,46.3c-0.4,0-0.8-0.1-1-0.3C81.2,45.7,81,45.4,81,45V21.8c0-0.4,0.1-0.7,0.4-0.9c0.2-0.2,0.5-0.4,0.9-0.4h8
			c1.3,0,2.5,0.3,3.6,0.8c1.1,0.6,1.9,1.3,2.5,2.3s0.9,2.1,0.9,3.4c0,1.2-0.3,2.2-1,3.2c-0.6,0.9-1.5,1.6-2.5,2.1
			c1.5,0.4,2.7,1.1,3.6,2.2c0.9,1.1,1.4,2.5,1.4,4.1c0,1.5-0.3,2.8-1,4c-0.7,1.1-1.6,2-2.8,2.7c-1.2,0.6-2.6,1-4.1,1H82.5z
			 M83.6,31.3h6.7c1.3,0,2.4-0.4,3.3-1.1s1.3-1.8,1.3-3.1c0-1.3-0.4-2.3-1.3-3c-0.9-0.7-1.9-1-3.3-1h-6.7V31.3z M83.6,43.8h7.3
			c1.1,0,2-0.2,2.8-0.6c0.8-0.4,1.5-1,1.9-1.8c0.5-0.8,0.7-1.7,0.7-2.7c0-1-0.2-1.9-0.7-2.6c-0.5-0.7-1.1-1.3-1.9-1.7
			c-0.8-0.4-1.7-0.6-2.8-0.6h-7.3V43.8z"/>
		<path d="M105.2,46.3c-0.4,0-0.7-0.1-0.9-0.4c-0.2-0.2-0.4-0.5-0.4-0.9V21.8c0-0.4,0.1-0.7,0.4-0.9c0.2-0.2,0.5-0.4,0.9-0.4h15.5
			c0.4,0,0.7,0.1,0.9,0.3c0.3,0.2,0.4,0.5,0.4,0.9c0,0.3-0.1,0.6-0.4,0.9c-0.3,0.2-0.6,0.4-0.9,0.4h-14.2v9.1h10.3
			c0.4,0,0.7,0.1,0.9,0.4c0.2,0.2,0.4,0.5,0.4,0.9c0,0.4-0.1,0.6-0.4,0.9c-0.2,0.2-0.6,0.4-0.9,0.4h-10.3v9.2h14.2
			c0.4,0,0.7,0.1,0.9,0.4c0.3,0.2,0.4,0.5,0.4,0.9c0,0.4-0.1,0.7-0.4,0.9c-0.3,0.2-0.6,0.3-0.9,0.3H105.2z"/>
		<path d="M128.1,46.3c-0.4,0-0.7-0.1-0.9-0.4c-0.2-0.2-0.4-0.5-0.4-0.9V21.8c0-0.4,0.1-0.7,0.4-0.9c0.2-0.2,0.5-0.4,0.9-0.4
			c0.4,0,0.7,0.2,1,0.5l15.8,20.7V21.8c0-0.4,0.1-0.7,0.4-0.9c0.2-0.2,0.5-0.4,0.9-0.4c0.4,0,0.7,0.1,0.9,0.4
			c0.3,0.2,0.4,0.6,0.4,0.9V45c0,0.4-0.1,0.7-0.4,0.9c-0.3,0.2-0.6,0.4-0.9,0.4c-0.2,0-0.4,0-0.5-0.1c-0.2-0.1-0.3-0.2-0.4-0.3
			l-15.8-20.7V45c0,0.4-0.1,0.7-0.4,0.9C128.7,46.2,128.4,46.3,128.1,46.3z"/>
		<path d="M155.3,46.3c-0.4,0-0.7-0.1-0.9-0.4c-0.2-0.2-0.4-0.5-0.4-0.9V21.8c0-0.4,0.1-0.7,0.4-0.9c0.2-0.2,0.5-0.4,0.9-0.4h15.5
			c0.4,0,0.7,0.1,0.9,0.3c0.3,0.2,0.4,0.5,0.4,0.9c0,0.3-0.1,0.6-0.4,0.9c-0.3,0.2-0.6,0.4-0.9,0.4h-14.2v9.1h10.3
			c0.4,0,0.7,0.1,0.9,0.4c0.2,0.2,0.4,0.5,0.4,0.9c0,0.4-0.1,0.6-0.4,0.9c-0.2,0.2-0.6,0.4-0.9,0.4h-10.3v9.2h14.2
			c0.4,0,0.7,0.1,0.9,0.4c0.3,0.2,0.4,0.5,0.4,0.9c0,0.4-0.1,0.7-0.4,0.9c-0.3,0.2-0.6,0.3-0.9,0.3H155.3z"/>
		<path d="M178.1,46.3c-0.4,0-0.7-0.1-0.9-0.4c-0.2-0.2-0.4-0.5-0.4-0.9V21.8c0-0.4,0.1-0.7,0.4-0.9c0.2-0.2,0.5-0.4,0.9-0.4h5.9
			c1.9,0,3.6,0.3,5.2,0.9c1.6,0.6,2.9,1.5,4.1,2.7c1.1,1.2,2,2.5,2.7,4.1c0.6,1.6,0.9,3.3,0.9,5.2c0,1.9-0.3,3.6-0.9,5.2
			c-0.6,1.6-1.5,2.9-2.7,4.1c-1.1,1.2-2.5,2-4.1,2.7c-1.6,0.6-3.3,0.9-5.2,0.9H178.1z M179.4,44h4.7c2,0,3.8-0.5,5.4-1.4
			c1.6-0.9,2.8-2.2,3.6-3.8c0.9-1.6,1.3-3.4,1.3-5.5s-0.4-3.9-1.3-5.5c-0.9-1.6-2.1-2.8-3.6-3.7c-1.6-0.9-3.3-1.4-5.4-1.4h-4.7V44z"
			/>
		<path d="M203.6,46.3c-0.4,0-0.7-0.1-0.9-0.4c-0.2-0.2-0.4-0.5-0.4-0.9V21.8c0-0.4,0.1-0.7,0.4-0.9c0.2-0.2,0.5-0.4,0.9-0.4
			s0.7,0.1,0.9,0.4c0.2,0.2,0.4,0.6,0.4,0.9V45c0,0.4-0.1,0.7-0.4,0.9C204.2,46.2,203.9,46.3,203.6,46.3z"/>
		<path d="M223,46.6c-1.8,0-3.4-0.3-5-1c-1.6-0.7-2.9-1.6-4.1-2.9c-1.2-1.2-2.1-2.6-2.8-4.2c-0.7-1.6-1-3.3-1-5.1
			c0-1.8,0.3-3.5,1-5.1c0.6-1.6,1.6-3,2.7-4.2s2.5-2.2,4.1-2.9s3.2-1,5-1c1.6,0,3,0.2,4.3,0.7s2.6,1.2,3.8,2.2
			c0.2,0.2,0.3,0.3,0.3,0.5c0,0.2,0,0.4-0.1,0.6c-0.1,0.2-0.2,0.3-0.4,0.4c0,0.2-0.2,0.3-0.3,0.4s-0.4,0.1-0.6,0.1
			c-0.2,0-0.5-0.1-0.7-0.3c-0.9-0.7-1.8-1.3-2.8-1.7c-1-0.4-2.2-0.5-3.5-0.5c-1.4,0-2.8,0.3-4,0.9c-1.2,0.6-2.3,1.4-3.3,2.3
			c-0.9,1-1.7,2.1-2.2,3.4c-0.5,1.3-0.8,2.7-0.8,4.1c0,1.5,0.3,2.9,0.8,4.2s1.3,2.4,2.2,3.4c0.9,1,2,1.8,3.3,2.3
			c1.2,0.6,2.6,0.8,4,0.8c1.2,0,2.4-0.2,3.4-0.6c1.1-0.4,2.1-1,3.1-1.7c0.3-0.2,0.5-0.3,0.8-0.3s0.6,0.2,0.8,0.4s0.3,0.5,0.3,0.9
			c0,0.2,0,0.3-0.1,0.5c-0.1,0.1-0.1,0.3-0.3,0.4c-1.1,1-2.4,1.8-3.8,2.2S224.5,46.6,223,46.6z"/>
		<path d="M235.3,22.8c-0.4,0-0.6-0.1-0.9-0.3c-0.2-0.2-0.3-0.5-0.3-0.8c0-0.4,0.1-0.6,0.3-0.9c0.2-0.2,0.5-0.3,0.9-0.3h18.2
			c0.4,0,0.6,0.1,0.9,0.3c0.2,0.2,0.3,0.5,0.3,0.9c0,0.3-0.1,0.6-0.3,0.8c-0.2,0.2-0.5,0.3-0.9,0.3H235.3z M244.4,46.3
			c-0.4,0-0.7-0.1-0.9-0.4c-0.3-0.3-0.4-0.6-0.4-0.9V20.5h2.6V45c0,0.4-0.1,0.7-0.4,0.9C245.1,46.1,244.7,46.3,244.4,46.3z"/>
		<path d="M279.7,46.6c-1.8,0-3.4-0.3-5-1c-1.6-0.7-2.9-1.6-4.1-2.9c-1.2-1.2-2.1-2.6-2.8-4.2c-0.7-1.6-1-3.3-1-5.1
			c0-1.8,0.3-3.5,1-5.1c0.6-1.6,1.6-3,2.7-4.2s2.5-2.2,4.1-2.9s3.2-1,5-1c1.6,0,3,0.2,4.3,0.7c1.3,0.5,2.6,1.2,3.8,2.2
			c0.2,0.2,0.3,0.3,0.3,0.5s0,0.4-0.1,0.6c-0.1,0.2-0.2,0.3-0.4,0.4c0,0.2-0.2,0.3-0.3,0.4s-0.4,0.1-0.6,0.1c-0.2,0-0.5-0.1-0.7-0.3
			c-0.9-0.7-1.8-1.3-2.8-1.7c-1-0.4-2.2-0.5-3.5-0.5c-1.4,0-2.8,0.3-4,0.9c-1.2,0.6-2.3,1.4-3.3,2.3c-0.9,1-1.7,2.1-2.2,3.4
			c-0.5,1.3-0.8,2.7-0.8,4.1c0,1.5,0.3,2.9,0.8,4.2s1.3,2.4,2.2,3.4c0.9,1,2,1.8,3.3,2.3c1.2,0.6,2.6,0.8,4,0.8
			c1.2,0,2.4-0.2,3.4-0.6c1.1-0.4,2.1-1,3.1-1.7c0.3-0.2,0.5-0.3,0.8-0.3s0.6,0.2,0.8,0.4c0.2,0.2,0.3,0.5,0.3,0.9
			c0,0.2,0,0.3-0.1,0.5c-0.1,0.1-0.1,0.3-0.3,0.4c-1.1,1-2.4,1.8-3.8,2.2C282.7,46.4,281.2,46.6,279.7,46.6z"/>
		<path d="M305.5,46.6c-1.9,0-3.7-0.3-5.3-1c-1.6-0.7-3-1.6-4.2-2.8c-1.2-1.2-2.1-2.6-2.7-4.2c-0.6-1.6-1-3.4-1-5.3
			c0-1.9,0.3-3.6,1-5.2c0.6-1.6,1.6-3,2.7-4.2c1.2-1.2,2.6-2.1,4.2-2.8c1.6-0.7,3.4-1,5.3-1c1.9,0,3.6,0.3,5.2,1
			c1.6,0.7,3,1.6,4.2,2.8c1.2,1.2,2.1,2.6,2.8,4.2c0.6,1.6,1,3.4,1,5.2c0,1.9-0.3,3.7-1,5.3c-0.6,1.6-1.6,3-2.8,4.2
			c-1.2,1.2-2.6,2.1-4.2,2.8C309.2,46.3,307.4,46.6,305.5,46.6z M305.5,44.2c1.5,0,2.9-0.3,4.2-0.8c1.3-0.5,2.4-1.3,3.4-2.3
			s1.7-2.1,2.2-3.4c0.5-1.3,0.8-2.7,0.8-4.3c0-1.5-0.3-2.9-0.8-4.2c-0.5-1.3-1.3-2.5-2.2-3.4s-2.1-1.7-3.4-2.3s-2.7-0.8-4.2-0.8
			c-1.5,0-3,0.3-4.3,0.8c-1.3,0.5-2.4,1.3-3.4,2.3s-1.7,2.1-2.2,3.4c-0.5,1.3-0.8,2.7-0.8,4.2c0,1.5,0.3,3,0.8,4.3
			c0.5,1.3,1.3,2.5,2.2,3.4s2.1,1.7,3.4,2.3C302.6,43.9,304,44.2,305.5,44.2z"/>
		<path d="M325.3,46.3c-0.4,0-0.7-0.1-0.9-0.4c-0.3-0.2-0.4-0.5-0.4-0.9V21.8c0-0.4,0.1-0.7,0.4-0.9s0.6-0.4,0.9-0.4
			c0.4,0,0.7,0.1,0.9,0.4s0.4,0.6,0.4,0.9v22h12.9c0.4,0,0.7,0.1,0.9,0.3c0.3,0.2,0.4,0.5,0.4,0.9s-0.1,0.6-0.4,0.9
			c-0.3,0.2-0.6,0.3-0.9,0.3H325.3z"/>
		<path d="M346.2,46.3c-0.4,0-0.7-0.1-0.9-0.4c-0.2-0.2-0.4-0.5-0.4-0.9V21.8c0-0.4,0.1-0.7,0.4-0.9c0.2-0.2,0.5-0.4,0.9-0.4h15.5
			c0.4,0,0.7,0.1,0.9,0.3c0.3,0.2,0.4,0.5,0.4,0.9c0,0.3-0.1,0.6-0.4,0.9c-0.3,0.2-0.6,0.4-0.9,0.4h-14.2v9.1h10.3
			c0.4,0,0.7,0.1,0.9,0.4c0.2,0.2,0.4,0.5,0.4,0.9c0,0.4-0.1,0.6-0.4,0.9s-0.5,0.4-0.9,0.4h-10.3v9.2h14.2c0.4,0,0.7,0.1,0.9,0.4
			c0.3,0.2,0.4,0.5,0.4,0.9c0,0.4-0.1,0.7-0.4,0.9c-0.3,0.2-0.6,0.3-0.9,0.3H346.2z"/>
	</g>
</g>
</svg>
