<?xml version="1.0" encoding="utf-8"?>
<!-- Generator: Adobe Illustrator 23.1.0, SVG Export Plug-In . SVG Version: 6.00 Build 0)  -->
<svg version="1.1" id="Layer_1" xmlns="http://www.w3.org/2000/svg" xmlns:xlink="http://www.w3.org/1999/xlink" x="0px" y="0px"
	 viewBox="0 0 381.4 64.1" style="enable-background:new 0 0 381.4 64.1;" xml:space="preserve">
<style type="text/css">
	.st0{fill:#FFFFFF;}
	.st1{fill:none;}
	.st2{enable-background:new    ;}
</style>
<g>
	<path class="st0" d="M15.2,49.1C7.7,49,1.9,47.1,1.9,38.3c0-5.6,4.1-10.8,10-10.8h0.5c0.1-8.4,5.7-14.8,13.7-16.4
		c8-1.5,15.5,2.3,18.7,10c7.7,0.2,13.4,6,13.4,13.7C58.2,42,54,48.3,46.5,49c-0.5,0.1-0.8,0-0.9-0.7l-0.1-1.2
		c-0.1-0.6,0.1-0.8,0.7-0.8c6.1-0.6,9.3-5.8,9.3-11.5c0-6.3-4.5-10.8-10.8-10.9c-1.1,0-1.9-0.6-2.3-1.6c-2.6-6.5-9-9.7-15.7-8.4
		c-7,1.3-11.4,6.8-11.5,13.8c0,1.5-1.3,2.7-2.8,2.6c-4.5-0.4-7.7,3.7-7.7,8c0,7,4.5,8,10.4,8c0.6,0,0.8,0.2,0.8,0.8v1.2
		C16.1,48.9,15.8,49.1,15.2,49.1z M31.9,33.1c-0.6-0.6-1.6-0.6-2.3,0c-2.9,2.8-5.8,5.8-8.7,8.7c-0.4,0.4-0.4,0.7,0,1.1l0.7,0.6
		c0.4,0.4,0.6,0.4,1.1,0l6.7-6.6v19.6c0,0.6,0.2,0.8,0.8,0.8h1.2c0.6,0,0.8-0.2,0.8-0.8l0.1-19.6l6.6,6.6c0.4,0.4,0.7,0.4,1.1,0
		l0.7-0.6c0.4-0.4,0.4-0.7,0-1.1C37.8,38.8,34.8,35.9,31.9,33.1z"/>
</g>
<rect x="81.9" y="14.1" class="st1" width="302" height="47.5"/>
<g class="st2">
	<path class="st0" d="M82.7,46.3c-0.5,0-0.9-0.2-1.2-0.5S81,45,81,44.6V22.2c0-0.5,0.2-0.9,0.5-1.2c0.3-0.3,0.7-0.5,1.2-0.5h7.9
		c1.5,0,2.8,0.3,3.9,0.9s2,1.4,2.7,2.4c0.6,1,1,2.2,1,3.6c0,1.1-0.3,2.1-0.9,2.9c-0.6,0.9-1.4,1.6-2.4,2.1c1.5,0.4,2.6,1,3.5,2.1
		c0.9,1,1.3,2.4,1.3,4.1c0,1.5-0.4,2.9-1.1,4c-0.7,1.2-1.7,2.1-3,2.8s-2.7,1-4.4,1L82.7,46.3L82.7,46.3z M84.5,31.1h6.2
		c1.3,0,2.3-0.3,3.1-0.9c0.8-0.6,1.2-1.6,1.2-2.8s-0.4-2.2-1.2-2.8s-1.8-0.9-3.1-0.9h-6.2V31.1z M84.5,43.1h6.9c1,0,1.9-0.2,2.7-0.5
		c0.8-0.4,1.4-0.9,1.8-1.6c0.4-0.7,0.7-1.5,0.7-2.5c0-0.9-0.2-1.7-0.7-2.3c-0.4-0.6-1-1.1-1.8-1.4c-0.8-0.3-1.7-0.5-2.7-0.5h-6.9
		V43.1z"/>
	<path class="st0" d="M106.6,46.3c-0.5,0-0.9-0.2-1.2-0.5s-0.5-0.7-0.5-1.2V22.2c0-0.5,0.2-0.9,0.5-1.2c0.3-0.3,0.7-0.5,1.2-0.5
		h14.9c0.5,0,0.9,0.1,1.2,0.4s0.5,0.7,0.5,1.2s-0.2,0.8-0.5,1.1c-0.3,0.3-0.7,0.4-1.2,0.4h-13.2v8h9.5c0.5,0,0.9,0.1,1.2,0.4
		s0.5,0.7,0.5,1.1s-0.2,0.8-0.5,1.1s-0.7,0.4-1.2,0.4h-9.5v8.3h13.2c0.5,0,0.9,0.1,1.2,0.4c0.3,0.3,0.5,0.7,0.5,1.1
		c0,0.5-0.2,0.9-0.5,1.2S122,46,121.5,46h-14.9V46.3z"/>
	<path class="st0" d="M129.7,46.3c-0.5,0-0.9-0.2-1.2-0.5S128,45,128,44.6V22.2c0-0.5,0.2-0.9,0.5-1.2c0.3-0.3,0.7-0.5,1.2-0.5
		s1,0.2,1.3,0.6l14.4,19.1v-18c0-0.5,0.2-0.9,0.5-1.2c0.3-0.3,0.7-0.5,1.2-0.5s0.9,0.2,1.2,0.5s0.5,0.7,0.5,1.2v22.3
		c0,0.5-0.2,0.9-0.5,1.2s-0.7,0.5-1.2,0.5c-0.2,0-0.5,0-0.7-0.1s-0.5-0.2-0.6-0.4l-14.4-19.1v18c0,0.5-0.2,0.9-0.5,1.2
		C130.6,46.1,130.2,46.3,129.7,46.3z"/>
	<path class="st0" d="M157.1,46.3c-0.5,0-0.9-0.2-1.2-0.5s-0.5-0.7-0.5-1.2V22.2c0-0.5,0.2-0.9,0.5-1.2c0.3-0.3,0.7-0.5,1.2-0.5H172
		c0.5,0,0.9,0.1,1.2,0.4s0.5,0.7,0.5,1.2s-0.2,0.8-0.5,1.1c-0.3,0.3-0.7,0.4-1.2,0.4h-13.2v8h9.5c0.5,0,0.9,0.1,1.2,0.4
		s0.5,0.7,0.5,1.1s-0.2,0.8-0.5,1.1s-0.7,0.4-1.2,0.4h-9.5v8.3H172c0.5,0,0.9,0.1,1.2,0.4c0.3,0.3,0.5,0.7,0.5,1.1
		c0,0.5-0.2,0.9-0.5,1.2S172.5,46,172,46h-14.9V46.3z"/>
	<path class="st0" d="M180.2,46.3c-0.5,0-0.9-0.2-1.2-0.5s-0.5-0.7-0.5-1.2V22.2c0-0.5,0.2-0.9,0.5-1.2c0.3-0.3,0.7-0.5,1.2-0.5h6
		c1.9,0,3.6,0.3,5.2,0.9c1.6,0.6,2.9,1.5,4,2.7s2,2.5,2.6,4.1s0.9,3.3,0.9,5.2s-0.3,3.6-0.9,5.2c-0.6,1.6-1.5,2.9-2.6,4.1
		c-1.1,1.2-2.5,2-4,2.7c-1.6,0.6-3.3,0.9-5.2,0.9C186.2,46.3,180.2,46.3,180.2,46.3z M181.9,43.2h4.3c1.8,0,3.5-0.4,4.9-1.3
		c1.4-0.8,2.5-2,3.3-3.5s1.2-3.2,1.2-5.1c0-1.9-0.4-3.6-1.2-5.1s-1.9-2.6-3.3-3.5c-1.4-0.8-3.1-1.3-4.9-1.3h-4.3V43.2z"/>
	<path class="st0" d="M206,46.3c-0.5,0-0.9-0.2-1.2-0.5s-0.5-0.7-0.5-1.2V22.2c0-0.5,0.2-0.9,0.5-1.2c0.3-0.3,0.7-0.5,1.2-0.5
		s0.9,0.2,1.2,0.5s0.5,0.7,0.5,1.2v22.3c0,0.5-0.2,0.9-0.5,1.2C206.9,46.1,206.5,46.3,206,46.3z"/>
	<path class="st0" d="M225.9,46.6c-1.8,0-3.4-0.3-5-1s-2.9-1.6-4.1-2.8c-1.2-1.2-2.1-2.6-2.7-4.2c-0.6-1.6-1-3.3-1-5.2
		c0-1.8,0.3-3.6,1-5.2c0.6-1.6,1.6-3,2.7-4.2c1.2-1.2,2.5-2.1,4-2.8c1.5-0.7,3.2-1,5-1c1.7,0,3.2,0.2,4.4,0.7
		c1.2,0.4,2.4,1.2,3.7,2.2c0.2,0.1,0.3,0.3,0.4,0.4c0.1,0.1,0.2,0.3,0.2,0.4s0,0.3,0,0.5c0,0.4-0.1,0.8-0.4,1s-0.7,0.4-1.1,0.5
		c-0.4,0-0.8-0.1-1.2-0.4c-0.8-0.7-1.7-1.2-2.5-1.6c-0.9-0.4-2-0.6-3.4-0.6c-1.3,0-2.5,0.3-3.7,0.8s-2.2,1.3-3,2.2s-1.5,2-2,3.2
		s-0.7,2.5-0.7,3.9c0,1.4,0.2,2.7,0.7,3.9s1.2,2.3,2,3.2s1.9,1.6,3,2.2s2.4,0.8,3.7,0.8c1.1,0,2.2-0.2,3.2-0.6c1-0.4,2-0.9,2.9-1.6
		c0.4-0.3,0.8-0.4,1.2-0.4s0.7,0.2,1,0.5s0.4,0.7,0.4,1.1c0,0.2,0,0.4-0.1,0.6c-0.1,0.2-0.2,0.4-0.4,0.6c-1.2,0.9-2.5,1.7-3.8,2.1
		C228.8,46.4,227.4,46.6,225.9,46.6z"/>
	<path class="st0" d="M238.8,23.7c-0.5,0-0.8-0.1-1.1-0.4s-0.4-0.7-0.4-1.1c0-0.5,0.1-0.8,0.4-1.1s0.7-0.4,1.1-0.4h17.7
		c0.5,0,0.8,0.1,1.1,0.4s0.4,0.7,0.4,1.1c0,0.5-0.1,0.8-0.4,1.1s-0.7,0.4-1.1,0.4H238.8z M247.6,46.3c-0.5,0-0.9-0.2-1.2-0.5
		s-0.5-0.7-0.5-1.2V20.5h3.4v24.1c0,0.5-0.2,0.9-0.5,1.2S248.1,46.3,247.6,46.3z"/>
	<path class="st0" d="M283,46.6c-1.8,0-3.4-0.3-5-1s-2.9-1.6-4.1-2.8s-2.1-2.6-2.7-4.2c-0.6-1.6-1-3.3-1-5.2c0-1.8,0.3-3.6,1-5.2
		c0.6-1.6,1.6-3,2.7-4.2c1.2-1.2,2.5-2.1,4-2.8c1.5-0.7,3.2-1,5-1c1.7,0,3.2,0.2,4.4,0.7c1.2,0.4,2.4,1.2,3.7,2.2
		c0.2,0.1,0.3,0.3,0.4,0.4s0.2,0.3,0.2,0.4s0,0.3,0,0.5c0,0.4-0.1,0.8-0.4,1s-0.7,0.4-1.1,0.5c-0.4,0-0.8-0.1-1.2-0.4
		c-0.8-0.7-1.7-1.2-2.5-1.6c-0.9-0.4-2-0.6-3.4-0.6c-1.3,0-2.5,0.3-3.7,0.8c-1.1,0.5-2.2,1.3-3,2.2c-0.9,0.9-1.5,2-2,3.2
		s-0.7,2.5-0.7,3.9c0,1.4,0.2,2.7,0.7,3.9s1.2,2.3,2,3.2c0.9,0.9,1.9,1.6,3,2.2c1.1,0.5,2.4,0.8,3.7,0.8c1.1,0,2.2-0.2,3.2-0.6
		c1-0.4,2-0.9,2.9-1.6c0.4-0.3,0.8-0.4,1.2-0.4c0.4,0,0.7,0.2,1,0.5s0.4,0.7,0.4,1.1c0,0.2,0,0.4-0.1,0.6s-0.2,0.4-0.4,0.6
		c-1.2,0.9-2.5,1.7-3.8,2.1C285.9,46.4,284.5,46.6,283,46.6z"/>
	<path class="st0" d="M309,46.6c-1.9,0-3.7-0.3-5.3-1c-1.6-0.6-3-1.6-4.1-2.7c-1.2-1.2-2.1-2.6-2.7-4.2c-0.6-1.6-1-3.4-1-5.3
		c0-1.9,0.3-3.7,1-5.3c0.6-1.6,1.5-3,2.7-4.2s2.5-2.1,4.1-2.7s3.4-1,5.3-1s3.7,0.3,5.3,1c1.6,0.6,3,1.6,4.1,2.7
		c1.2,1.2,2.1,2.6,2.7,4.2s1,3.4,1,5.3c0,1.9-0.3,3.7-1,5.3c-0.6,1.6-1.5,3-2.7,4.2s-2.5,2.1-4.1,2.7C312.7,46.3,311,46.6,309,46.6z
		 M309,43.5c1.4,0,2.7-0.3,3.9-0.8c1.2-0.5,2.2-1.2,3.1-2.1c0.9-0.9,1.6-2,2-3.2c0.5-1.2,0.7-2.6,0.7-4s-0.2-2.8-0.7-4
		s-1.2-2.3-2-3.2c-0.9-0.9-1.9-1.6-3.1-2.1s-2.5-0.8-3.9-0.8s-2.7,0.3-3.9,0.8c-1.2,0.5-2.2,1.2-3.1,2.1s-1.5,2-2,3.2
		s-0.7,2.6-0.7,4s0.2,2.8,0.7,4s1.2,2.3,2,3.2c0.9,0.9,1.9,1.6,3.1,2.1C306.3,43.2,307.6,43.5,309,43.5z"/>
	<path class="st0" d="M329.2,46.3c-0.5,0-0.9-0.2-1.2-0.5c-0.3-0.3-0.5-0.7-0.5-1.2V22.2c0-0.5,0.2-0.9,0.5-1.2s0.7-0.5,1.2-0.5
		s0.9,0.2,1.2,0.5s0.5,0.7,0.5,1.2v20.6h11.9c0.5,0,0.9,0.2,1.2,0.5c0.3,0.3,0.5,0.7,0.5,1.2s-0.2,0.9-0.5,1.2s-0.7,0.5-1.2,0.5
		L329.2,46.3L329.2,46.3z"/>
	<path class="st0" d="M350.4,46.3c-0.5,0-0.9-0.2-1.2-0.5s-0.5-0.7-0.5-1.2V22.2c0-0.5,0.2-0.9,0.5-1.2c0.3-0.3,0.7-0.5,1.2-0.5
		h14.9c0.5,0,0.9,0.1,1.2,0.4c0.3,0.3,0.5,0.7,0.5,1.2s-0.2,0.8-0.5,1.1c-0.3,0.3-0.7,0.4-1.2,0.4h-13.2v8h9.5
		c0.5,0,0.9,0.1,1.2,0.4c0.3,0.3,0.5,0.7,0.5,1.1s-0.2,0.8-0.5,1.1s-0.7,0.4-1.2,0.4h-9.5v8.3h13.2c0.5,0,0.9,0.1,1.2,0.4
		c0.3,0.3,0.5,0.7,0.5,1.1c0,0.5-0.2,0.9-0.5,1.2s-0.7,0.4-1.2,0.4h-14.9V46.3z"/>
</g>
</svg>
